<svg xmlns="http://www.w3.org/2000/svg" width="44" height="42">
  <g fill="none" fill-rule="evenodd" stroke="#fff" stroke-linejoin="round" stroke-width="4">
    <path d="M3.78 33l16.74 6.7A4 4 0 0 0 22 40V17.75L2.63 10a2.68 2.68 0 0 0-.52 1.59v19A2.65 2.65 0 0 0 3.78 33zm36.44 0a2.65 2.65 0 0 0 1.67-2.46V11.59a2.68 2.68 0 0 0-.52-1.59L22 17.75V40a4 4 0 0 0 1.48-.29L40.22 33z"/>
    <path d="M40.22 9.12L23.48 2.43a4 4 0 0 0-3 0L3.78 9.12a2.73 2.73 0 0 0-1.15.88L22 17.75 41.37 10a2.73 2.73 0 0 0-1.15-.88z"/>
  </g>
</svg>