<svg xmlns="http://www.w3.org/2000/svg" width="256" height="358">
  <g fill="#FFF">
    <path stroke="#FFF" stroke-width="11" d="M134.5747 22.4844c-2.8027-1.9792-7.3467-1.9792-10.1494 0L26.102 91.9164c-2.8027 1.9792-2.8027 5.188 0 7.1672l98.3233 69.432c2.8027 1.9792 7.3467 1.9792 10.1494 0l98.3233-69.432c2.8027-1.9792 2.8027-5.188 0-7.1672l-98.3233-69.432zm8.6526-12.253l98.3232 69.4321c11.266 7.9556 11.266 23.7174 0 31.673l-98.3232 69.432c-7.9896 5.642-19.465 5.642-27.4546 0l-98.3232-69.432c-11.266-7.9556-11.266-23.7174 0-31.673l98.3232-69.432c7.9896-5.642 19.465-5.642 27.4546 0z"/>
    <path stroke="#FFF" stroke-width="11" d="M134.5747 189.4844c-2.8027-1.9792-7.3467-1.9792-10.1494 0l-98.3233 69.432c-2.8027 1.9792-2.8027 5.188 0 7.1672l98.3233 69.432c2.8027 1.9792 7.3467 1.9792 10.1494 0l98.3233-69.432c2.8027-1.9792 2.8027-5.188 0-7.1672l-98.3233-69.432zm8.6526-12.253l98.3232 69.4321c11.266 7.9556 11.266 23.7174 0 31.673l-98.3232 69.432c-7.9896 5.642-19.465 5.642-27.4546 0l-98.3232-69.432c-11.266-7.9556-11.266-23.7174 0-31.673l98.3232-69.432c7.9896-5.642 19.465-5.642 27.4546 0z"/>
    <path d="M26.4236 256.9957c-.033 1.5406.2799 3.7883.818 5.402l.3262.9786-1.1637 23.7665-7.074-2.6832C8.0213 280.1702.1697 268.5588.4275 256.546L3.0097 97.099c.273-12.7312 10.3677-19.0158 27.3787-19.0009l11.3407.01-7.0295 8.8992c-1.283 1.6242-2.7918 4.129-4.0212 6.6511-.5713 1.172-1.0434 2.2703-1.3604 3.1554-.1397.3898-.241.716-.3002.9536-.0044.0178-.8692 53.094-2.5942 159.2284z"/>
  </g>
</svg>