<svg width="90px" height="74px" viewBox="0 0 90 74" version="1.1" xmlns="http://www.w3.org/2000/svg" xmlns:xlink="http://www.w3.org/1999/xlink">
    <!-- Generator: Sketch 48.2 (47327) - http://www.bohemiancoding.com/sketch -->
    <desc>Created with Sketch.</desc>
    <defs></defs>
    <g id="Page-1" stroke="none" stroke-width="1" fill="none" fill-rule="evenodd">
        <g id="doctor-hospital" transform="translate(1.000000, 0.000000)">
            <path d="M83.53,40 C83.5284701,23.6646106 73.5940168,8.97150733 58.4350828,2.88449909 C43.2761489,-3.20250915 25.9390288,0.539804837 14.6406656,12.3377681 C3.34230241,24.1357314 0.353181775,41.6184602 7.09,56.5 L80,56.5 C82.3406421,51.314923 83.544273,45.6888861 83.53,40 Z" id="Shape" fill="#E8F4FA" fill-rule="nonzero"></path>
            <path d="M4.53,56.5 L82.53,56.5" id="Shape" stroke="#45413C" stroke-linecap="round" stroke-linejoin="round"></path>
            <path d="M0.03,56.5 L2.53,56.5" id="Shape" stroke="#45413C" stroke-linecap="round" stroke-linejoin="round"></path>
            <path d="M84.53,56.5 L87.03,56.5" id="Shape" stroke="#45413C" stroke-linecap="round" stroke-linejoin="round"></path>
            <path d="M34.82,30 L43.45,30 L43.45,56.49 L33.82,56.49 L33.82,31 C33.82,30.4477153 34.2677153,30 34.82,30 Z" id="Shape" fill="#F7E5C6" fill-rule="nonzero"></path>
            <path d="M34.82,30 L43.45,30 L43.45,32.71 L33.82,32.71 L33.82,31 C33.82,30.4477153 34.2677153,30 34.82,30 Z" id="Shape" fill="#FFF5E3" fill-rule="nonzero"></path>
            <path d="M34.82,30 L43.45,30 L43.45,56.49 L33.82,56.49 L33.82,31 C33.82,30.4477153 34.2677153,30 34.82,30 Z" id="Shape" stroke="#45413C" stroke-linecap="round" stroke-linejoin="round"></path>
            <path d="M88,41.45 C88,42.4441125 87.1941125,43.25 86.2,43.25 L71.2,43.25 L71.2,39.64 L86.2,39.64 C86.6791274,39.6399926 87.1384864,39.831007 87.4763408,40.1707384 C87.8141952,40.5104698 88.0026618,40.97088 88,41.45 Z" id="Shape" fill="#FFFEF2" fill-rule="nonzero"></path>
            <path d="M87.79,42.24 C87.9106234,41.9942494 87.9722565,41.7237486 87.97,41.45 C87.9726618,40.97088 87.7841952,40.5104698 87.4463408,40.1707384 C87.1084864,39.831007 86.6491274,39.6399926 86.17,39.64 L71.17,39.64 L71.17,41.23 L86.17,41.23 C86.8567381,41.2360182 87.4822959,41.6260264 87.79,42.24 Z" id="Shape" fill="#FFFFFF" fill-rule="nonzero"></path>
            <rect id="Rectangle-path" fill="#F7E5C6" fill-rule="nonzero" x="71.13" y="39.64" width="1.75" height="3.61"></rect>
            <path d="M88,41.45 C88,42.4441125 87.1941125,43.25 86.2,43.25 L71.2,43.25 L71.2,39.64 L86.2,39.64 C86.6791274,39.6399926 87.1384864,39.831007 87.4763408,40.1707384 C87.8141952,40.5104698 88.0026618,40.97088 88,41.45 Z" id="Shape" stroke="#45413C" stroke-linecap="round" stroke-linejoin="round"></path>
            <polygon id="Shape" fill="#C0DCEB" fill-rule="nonzero" points="78.95 56.49 81.96 56.49 84.36 43.25 81.36 43.25"></polygon>
            <polygon id="Shape" fill="#ADC4D9" fill-rule="nonzero" points="81.04 44.97 84.05 44.97 84.36 43.25 81.36 43.25"></polygon>
            <polygon id="Shape" stroke="#45413C" stroke-linecap="round" stroke-linejoin="round" points="78.95 56.49 81.96 56.49 84.36 43.25 81.36 43.25"></polygon>
            <path d="M44.45,12 L70.13,12 C70.6822847,12 71.13,12.4477153 71.13,13 L71.13,56.49 L43.45,56.49 L43.45,13 C43.45,12.4477153 43.8977153,12 44.45,12 Z" id="Shape" fill="#FFFEF2" fill-rule="nonzero"></path>
            <rect id="Rectangle-path" fill="#F7E5C6" fill-rule="nonzero" x="43.45" y="31.22" width="27.68" height="3.01"></rect>
            <rect id="Rectangle-path" fill="#F7E5C6" fill-rule="nonzero" x="43.45" y="14.97" width="27.68" height="3.01"></rect>
            <path d="M44.45,12 L70.13,12 C70.6822847,12 71.13,12.4477153 71.13,13 L71.13,56.49 L43.45,56.49 L43.45,13 C43.45,12.4477153 43.8977153,12 44.45,12 Z" id="Shape" stroke="#45413C" stroke-linecap="round" stroke-linejoin="round"></path>
            <rect id="Rectangle-path" stroke="#45413C" fill="#DAEDF7" fill-rule="nonzero" stroke-linecap="round" stroke-linejoin="round" x="42.25" y="28.21" width="30.08" height="3.01" rx="1"></rect>
            <path d="M43.25,12 L71.33,12 C71.8822847,12 72.33,12.4477153 72.33,13 L72.33,15 L42.25,15 L42.25,13 C42.25,12.4477153 42.6977153,12 43.25,12 Z" id="Shape" fill="#DAEDF7" fill-rule="nonzero"></path>
            <path d="M71.33,12 L43.25,12 C42.6977153,12 42.25,12.4477153 42.25,13 L42.25,14.51 C42.25,13.9577153 42.6977153,13.51 43.25,13.51 L71.33,13.51 C71.8822847,13.51 72.33,13.9577153 72.33,14.51 L72.33,13 C72.33,12.4477153 71.8822847,12 71.33,12 Z" id="Shape" fill="#FFFFFF" fill-rule="nonzero"></path>
            <rect id="Rectangle-path" fill="#C0DCEB" fill-rule="nonzero" x="48.03" y="11.96" width="2.04" height="3.01"></rect>
            <rect id="Rectangle-path" fill="#C0DCEB" fill-rule="nonzero" x="64.51" y="11.96" width="2.04" height="3.01"></rect>
            <path d="M43.25,12 L71.33,12 C71.8822847,12 72.33,12.4477153 72.33,13 L72.33,15 L42.25,15 L42.25,13 C42.25,12.4477153 42.6977153,12 43.25,12 Z" id="Shape" stroke="#45413C" stroke-linecap="round" stroke-linejoin="round"></path>
            <rect id="Rectangle-path" fill="#F0F0F0" fill-rule="nonzero" x="50.07" y="2.34" width="14.44" height="14.44" rx="2"></rect>
            <path d="M62.51,2.34 L52.07,2.34 C50.9654305,2.34 50.07,3.2354305 50.07,4.34 L50.07,6.09 C50.07,4.9854305 50.9654305,4.09 52.07,4.09 L62.51,4.09 C63.6145695,4.09 64.51,4.9854305 64.51,6.09 L64.51,4.34 C64.51,3.2354305 63.6145695,2.34 62.51,2.34 Z" id="Shape" fill="#FFFFFF" fill-rule="nonzero"></path>
            <rect id="Rectangle-path" stroke="#45413C" stroke-linecap="round" stroke-linejoin="round" x="50.07" y="2.34" width="14.44" height="14.44" rx="2"></rect>
            <path d="M61.1,7.75 L59.1,7.75 L59.1,5.75 C59.1,5.19771525 58.6522847,4.75 58.1,4.75 L56.48,4.75 C55.9277153,4.75 55.48,5.19771525 55.48,5.75 L55.48,7.75 L53.48,7.75 C52.9277153,7.75 52.48,8.19771525 52.48,8.75 L52.48,10.36 C52.48,10.9122847 52.9277153,11.36 53.48,11.36 L55.48,11.36 L55.48,13.36 C55.48,13.9122847 55.9277153,14.36 56.48,14.36 L58.09,14.36 C58.6422847,14.36 59.09,13.9122847 59.09,13.36 L59.09,11.36 L61.09,11.36 C61.6422847,11.36 62.09,10.9122847 62.09,10.36 L62.09,8.75 C62.0900274,8.20159704 61.6483755,7.75548403 61.1,7.75 Z" id="Shape" stroke="#45413C" fill="#FF6242" fill-rule="nonzero" stroke-linecap="round" stroke-linejoin="round"></path>
            <path d="M51.67,43.25 L62.91,43.25 C63.4622847,43.25 63.91,43.6977153 63.91,44.25 L63.91,56.49 L50.67,56.49 L50.67,44.25 C50.67,43.6977153 51.1177153,43.25 51.67,43.25 Z" id="Shape" fill="#00B8F0" fill-rule="nonzero"></path>
            <path d="M62.91,43.25 L51.67,43.25 C51.1177153,43.25 50.67,43.6977153 50.67,44.25 L50.67,55.82 L63.19,43.29 C63.0984637,43.2662001 63.0045388,43.2527822 62.91,43.25 Z" id="Shape" fill="#4ACFFF" fill-rule="nonzero"></path>
            <path d="M51.67,43.25 L62.91,43.25 C63.4622847,43.25 63.91,43.6977153 63.91,44.25 L63.91,56.49 L50.67,56.49 L50.67,44.25 C50.67,43.6977153 51.1177153,43.25 51.67,43.25 Z" id="Shape" stroke="#45413C" stroke-linecap="round" stroke-linejoin="round"></path>
            <path d="M57.29,43.25 L57.29,56.49" id="Shape" stroke="#45413C" stroke-linecap="round" stroke-linejoin="round"></path>
            <rect id="Rectangle-path" fill="#00B8F0" fill-rule="nonzero" x="47.06" y="19.79" width="4.81" height="5.42" rx="1"></rect>
            <path d="M51.51,20 C51.3287187,19.8545141 51.1024184,19.7767234 50.87,19.78 L48.06,19.78 C47.5077153,19.78 47.06,20.2277153 47.06,20.78 L47.06,24.2 C47.0495795,24.2763126 47.0495795,24.3536874 47.06,24.43 L51.51,20 Z" id="Shape" fill="#4ACFFF" fill-rule="nonzero"></path>
            <rect id="Rectangle-path" stroke="#45413C" stroke-linecap="round" stroke-linejoin="round" x="47.06" y="19.79" width="4.81" height="5.42" rx="1"></rect>
            <rect id="Rectangle-path" fill="#00B8F0" fill-rule="nonzero" x="54.88" y="19.79" width="4.81" height="5.42" rx="1"></rect>
            <path d="M59.33,20 C59.1487187,19.8545141 58.9224184,19.7767234 58.69,19.78 L55.88,19.78 C55.3277153,19.78 54.88,20.2277153 54.88,20.78 L54.88,24.2 C54.8695795,24.2763126 54.8695795,24.3536874 54.88,24.43 L59.33,20 Z" id="Shape" fill="#4ACFFF" fill-rule="nonzero"></path>
            <rect id="Rectangle-path" stroke="#45413C" stroke-linecap="round" stroke-linejoin="round" x="54.88" y="19.79" width="4.81" height="5.42" rx="1"></rect>
            <rect id="Rectangle-path" fill="#00B8F0" fill-rule="nonzero" x="62.7" y="19.79" width="4.81" height="5.42" rx="1"></rect>
            <path d="M67.15,20 C66.9713841,19.8566957 66.7489953,19.779036 66.52,19.78 L63.7,19.78 C63.1477153,19.78 62.7,20.2277153 62.7,20.78 L62.7,24.2 C62.6895795,24.2763126 62.6895795,24.3536874 62.7,24.43 L67.15,20 Z" id="Shape" fill="#4ACFFF" fill-rule="nonzero"></path>
            <rect id="Rectangle-path" stroke="#45413C" stroke-linecap="round" stroke-linejoin="round" x="62.7" y="19.79" width="4.81" height="5.42" rx="1"></rect>
            <rect id="Rectangle-path" fill="#00B8F0" fill-rule="nonzero" x="62.7" y="34.23" width="4.81" height="5.42" rx="1"></rect>
            <path d="M67.15,34.45 C66.9713841,34.3066957 66.7489953,34.229036 66.52,34.23 L63.7,34.23 C63.1477153,34.23 62.7,34.6777153 62.7,35.23 L62.7,38.64 C62.6895795,38.7163126 62.6895795,38.7936874 62.7,38.87 L67.15,34.45 Z" id="Shape" fill="#4ACFFF" fill-rule="nonzero"></path>
            <rect id="Rectangle-path" stroke="#45413C" stroke-linecap="round" stroke-linejoin="round" x="62.7" y="34.23" width="4.81" height="5.42" rx="1"></rect>
            <rect id="Rectangle-path" fill="#00B8F0" fill-rule="nonzero" x="54.88" y="34.23" width="4.81" height="5.42" rx="1"></rect>
            <path d="M59.33,34.45 C59.1487187,34.3045141 58.9224184,34.2267234 58.69,34.23 L55.88,34.23 C55.3277153,34.23 54.88,34.6777153 54.88,35.23 L54.88,38.64 C54.8695795,38.7163126 54.8695795,38.7936874 54.88,38.87 L59.33,34.45 Z" id="Shape" fill="#4ACFFF" fill-rule="nonzero"></path>
            <rect id="Rectangle-path" stroke="#45413C" stroke-linecap="round" stroke-linejoin="round" x="54.88" y="34.23" width="4.81" height="5.42" rx="1"></rect>
            <rect id="Rectangle-path" fill="#00B8F0" fill-rule="nonzero" x="47.06" y="34.23" width="4.81" height="5.42" rx="1"></rect>
            <path d="M51.51,34.45 C51.3287187,34.3045141 51.1024184,34.2267234 50.87,34.23 L48.06,34.23 C47.5077153,34.23 47.06,34.6777153 47.06,35.23 L47.06,38.64 C47.0495795,38.7163126 47.0495795,38.7936874 47.06,38.87 L51.51,34.45 Z" id="Shape" fill="#4ACFFF" fill-rule="nonzero"></path>
            <rect id="Rectangle-path" stroke="#45413C" stroke-linecap="round" stroke-linejoin="round" x="47.06" y="34.23" width="4.81" height="5.42" rx="1"></rect>
            <rect id="Rectangle-path" fill="#00B8F0" fill-rule="nonzero" x="36.23" y="34.23" width="4.81" height="5.42" rx="1"></rect>
            <path d="M40.68,34.45 C40.4987187,34.3045141 40.2724184,34.2267234 40.04,34.23 L37.23,34.23 C36.6777153,34.23 36.23,34.6777153 36.23,35.23 L36.23,38.64 C36.2195795,38.7163126 36.2195795,38.7936874 36.23,38.87 L40.68,34.45 Z" id="Shape" fill="#4ACFFF" fill-rule="nonzero"></path>
            <rect id="Rectangle-path" stroke="#45413C" stroke-linecap="round" stroke-linejoin="round" x="36.23" y="34.23" width="4.81" height="5.42" rx="1"></rect>
            <rect id="Rectangle-path" fill="#00B8F0" fill-rule="nonzero" x="36.23" y="43.25" width="4.81" height="5.42" rx="1"></rect>
            <path d="M40.68,43.48 C40.5000879,43.3309188 40.2736522,43.2495435 40.04,43.25 L37.23,43.25 C36.6777153,43.25 36.23,43.6977153 36.23,44.25 L36.23,47.67 C36.2202724,47.7463581 36.2202724,47.8236419 36.23,47.9 L40.68,43.48 Z" id="Shape" fill="#4ACFFF" fill-rule="nonzero"></path>
            <rect id="Rectangle-path" stroke="#45413C" stroke-linecap="round" stroke-linejoin="round" x="36.23" y="43.25" width="4.81" height="5.42" rx="1"></rect>
            <path d="M26.07,27.65 C22.7663214,27.6499989 19.5980987,28.9630642 17.2629832,31.3000554 C14.9278676,33.6370466 13.6173464,36.8063224 13.62,40.11 L13.62,44.76 C13.6466612,48.2364899 15.3152256,51.4957524 18.12,53.55 L17.22,61.67 C17.1827849,61.9941575 17.2862524,62.3187242 17.5042096,62.5615362 C17.7221669,62.8043483 18.0337202,62.9421293 18.36,62.94 L33.78,62.94 C34.1071898,62.939155 34.4190773,62.8013442 34.64,62.56 C34.8583402,62.3181802 34.9605588,61.9932711 34.92,61.67 L34,53.55 C36.8085511,51.4978713 38.4809981,48.2382683 38.51,44.76 L38.51,40.11 C38.5100089,33.2363349 32.9436562,27.6610332 26.07,27.65 Z" id="Shape" fill="#F0F0F0" fill-rule="nonzero"></path>
            <path d="M26.07,27.65 C22.7663214,27.6499989 19.5980987,28.9630642 17.2629832,31.3000554 C14.9278676,33.6370466 13.6173464,36.8063224 13.62,40.11 L13.619996,44.26 C13.9456349,37.6349759 19.4119779,32.4307168 26.045,32.4307168 C32.6780221,32.4307168 38.1443651,37.6349759 38.47,44.26 L38.47,40.11 C38.4700795,33.2518955 32.9280249,27.6830246 26.07,27.65 Z" id="Shape" fill="#FFFFFF" fill-rule="nonzero"></path>
            <path d="M26.07,27.65 C22.7663214,27.6499989 19.5980987,28.9630642 17.2629832,31.3000554 C14.9278676,33.6370466 13.6173464,36.8063224 13.62,40.11 L13.62,44.76 C13.6466612,48.2364899 15.3152256,51.4957524 18.12,53.55 L17.22,61.67 C17.1827849,61.9941575 17.2862524,62.3187242 17.5042096,62.5615362 C17.7221669,62.8043483 18.0337202,62.9421293 18.36,62.94 L33.78,62.94 C34.1071898,62.939155 34.4190773,62.8013442 34.64,62.56 C34.8583402,62.3181802 34.9605588,61.9932711 34.92,61.67 L34,53.55 C36.8085511,51.4978713 38.4809981,48.2382683 38.51,44.76 L38.51,40.11 C38.5100089,33.2363349 32.9436562,27.6610332 26.07,27.65 Z" id="Shape" stroke="#45413C" stroke-linecap="round" stroke-linejoin="round"></path>
            <path d="M37,71.7 C37,72.7 32.11,73.43 26.07,73.43 C20.03,73.43 15.15,72.66 15.15,71.7 C15.15,70.74 20,70 26.07,70 C32.14,70 37,70.75 37,71.7 Z" id="Shape" fill="#020202" fill-rule="nonzero" opacity="0.15"></path>
            <path d="M26.08,25.35 C29.0915637,25.3433124 31.7509007,23.3842271 32.65,20.51 C34.84,20.51 34.97,17.05 33,17.05 L33,15.67 C33.0000001,13.1977221 31.6810555,10.9132431 29.54,9.67710408 C27.3989446,8.44096511 24.7610554,8.44096511 22.62,9.67710408 C20.4789445,10.9132431 19.1599999,13.1977221 19.16,15.67 L19.16,17.05 C17.16,17.05 17.32,20.51 19.51,20.51 C20.4090993,23.3842271 23.0684363,25.3433124 26.08,25.35 Z" id="Shape" stroke="#45413C" fill="#FFCEBF" fill-rule="nonzero" stroke-linecap="round" stroke-linejoin="round"></path>
            <path d="M23.83,16.36 C23.4763304,16.3559577 23.1554148,16.5664302 23.0181973,16.8924208 C22.8809799,17.2184114 22.9547754,17.5950276 23.2048739,17.8451261 C23.4549724,18.0952246 23.8315886,18.1690201 24.1575792,18.0318027 C24.4835698,17.8945852 24.6940423,17.5736696 24.69,17.22 C24.69,16.7450351 24.3049649,16.36 23.83,16.36 Z" id="Shape" fill="#45413C" fill-rule="nonzero"></path>
            <path d="M28.33,16.36 C27.9763304,16.3559577 27.6554148,16.5664302 27.5181973,16.8924208 C27.3809799,17.2184114 27.4547754,17.5950276 27.7048739,17.8451261 C27.9549724,18.0952246 28.3315886,18.1690201 28.6575792,18.0318027 C28.9835698,17.8945852 29.1940423,17.5736696 29.19,17.22 C29.1845971,16.7472912 28.8027088,16.3654029 28.33,16.36 Z" id="Shape" fill="#45413C" fill-rule="nonzero"></path>
            <path d="M22.62,19.13 C22.62,19.5110765 22.3110765,19.82 21.93,19.82 C21.5489235,19.82 21.24,19.5110765 21.24,19.13 C21.24,18.7489235 21.5489235,18.44 21.93,18.44 C22.3110765,18.44 22.62,18.7489235 22.62,19.13 Z" id="Shape" fill="#FFB59E" fill-rule="nonzero"></path>
            <path d="M30.92,19.13 C30.92,19.5110765 30.6110765,19.82 30.23,19.82 C29.8489235,19.82 29.54,19.5110765 29.54,19.13 C29.54,18.7489235 29.8489235,18.44 30.23,18.44 C30.6110765,18.44 30.92,18.7489235 30.92,19.13 Z" id="Shape" fill="#FFB59E" fill-rule="nonzero"></path>
            <path d="M24.35,21.27 C25.3968826,21.9707802 26.7631174,21.9707802 27.81,21.27" id="Shape" stroke="#45413C" stroke-linecap="round" stroke-linejoin="round"></path>
            <path d="M22.27,12.88 C25.27,15.83 30.53,15.34 33.68,14.27 C33.68,10.0671131 30.2728869,6.66 26.07,6.66 C21.8671131,6.66 18.46,10.0671131 18.46,14.27 L18.46,16.68 C18.46,16.68 22.27,15.68 22.27,12.87" id="Shape" stroke="#45413C" fill="#614B44" fill-rule="nonzero" stroke-linecap="round" stroke-linejoin="round"></path>
            <path d="M26.07,10 C29.0586756,10.0050881 31.7684485,11.7568605 33,14.48 C33.23,14.41 33.48,14.35 33.7,14.27 C33.7,10.0671131 30.2928869,6.66 26.09,6.66 C21.8871131,6.66 18.48,10.0671131 18.48,14.27 L18.48,16.68 L18.58,16.68 C19.0298015,12.8804776 22.2439709,10.0139019 26.07,10 Z" id="Shape" fill="#947063" fill-rule="nonzero"></path>
            <path d="M22.27,12.88 C25.27,15.83 30.53,15.34 33.68,14.27 C33.68,10.0671131 30.2728869,6.66 26.07,6.66 C21.8671131,6.66 18.46,10.0671131 18.46,14.27 L18.46,16.68 C18.46,16.68 22.27,15.68 22.27,12.87" id="Shape" stroke="#45413C" stroke-linecap="round" stroke-linejoin="round"></path>
            <path d="M22.27,12.88 C21.91,12.54 21.86,12.6 21.58,12.16" id="Shape" stroke="#45413C" stroke-linecap="round" stroke-linejoin="round"></path>
            <polygon id="Shape" stroke="#45413C" fill="#656769" fill-rule="nonzero" stroke-linecap="round" stroke-linejoin="round" points="24 69.86 24.3 62.94 18.46 62.94 18.46 69.86"></polygon>
            <polygon id="Shape" stroke="#45413C" fill="#656769" fill-rule="nonzero" stroke-linecap="round" stroke-linejoin="round" points="28.15 69.86 27.85 62.94 33.68 62.94 33.68 69.86"></polygon>
            <path d="M17.59,68.77 C17.339215,69.1366119 17.3197992,69.6142423 17.54,70 C17.7396858,70.3667152 18.122458,70.5963785 18.54,70.6 L23.28,70.6 C23.6780274,70.592906 24.0440767,70.3804655 24.2476936,70.038389 C24.4513105,69.6963126 24.4635311,69.2732598 24.28,68.92 C23.05,66.45 19,66.58 17.59,68.77 Z" id="Shape" stroke="#45413C" fill="#915E3A" fill-rule="nonzero" stroke-linecap="round" stroke-linejoin="round"></path>
            <path d="M34.55,68.77 C34.800785,69.1366119 34.8202008,69.6142423 34.6,70 C34.4003142,70.3667152 34.017542,70.5963785 33.6,70.6 L28.86,70.6 C28.4595586,70.5985991 28.0892149,70.3871971 27.8843944,70.0430986 C27.6795738,69.6990001 27.6703136,69.2726675 27.86,68.92 C29.09,66.45 33.12,66.58 34.55,68.77 Z" id="Shape" stroke="#45413C" fill="#915E3A" fill-rule="nonzero" stroke-linecap="round" stroke-linejoin="round"></path>
            <path d="M27.52,55.33 C27.5035541,55.1757677 27.4665597,55.0244267 27.41,54.88 C27.0381385,54.6414425 26.7015335,54.3519622 26.41,54.02 C26.1783248,53.9306031 25.9216752,53.9306031 25.69,54.02 C25.396606,54.3500766 25.0602757,54.6393207 24.69,54.88 C24.6242091,55.0213459 24.5868344,55.1742425 24.58,55.33 L24.25,62.94 L27.8,62.94 L27.52,55.33 Z" id="Shape"></path>
            <path d="M18.46,40.11 L18.46,44.76 C18.4435948,46.7526448 19.4618377,48.6112221 21.15,49.67 C21.5669802,49.9730036 21.7340043,50.5148132 21.56,51 L20.56,53.48 C20.4366685,53.7919121 20.1854038,54.0358938 19.87,54.15 C19.5387806,54.2702871 19.1708414,54.2334932 18.87,54.05 C18.5888254,53.8910313 18.3182575,53.713993 18.06,53.52" id="Shape" stroke="#45413C" stroke-linecap="round" stroke-linejoin="round"></path>
            <path d="M33.68,40.11 L33.68,44.76 C33.6985573,46.7506701 32.6843373,48.6088121 31,49.67 C30.5793489,49.970268 30.4080844,50.5126057 30.58,51 L31.58,53.48 C31.7077266,53.7925197 31.9621887,54.0360763 32.28,54.15 C32.6106297,54.2748856 32.9806473,54.2378838 33.28,54.05 C33.5630499,53.8888404 33.8368153,53.7118945 34.1,53.52" id="Shape" stroke="#45413C" stroke-linecap="round" stroke-linejoin="round"></path>
            <polygon id="Shape" stroke="#45413C" fill="#B8ECFF" fill-rule="nonzero" stroke-linecap="round" stroke-linejoin="round" points="22.72 33.8 26.07 42.19 29.43 33.8 26.07 31.11"></polygon>
            <polygon id="Shape" stroke="#45413C" fill="#00B8F0" fill-rule="nonzero" stroke-linejoin="round" points="24.17 37.44 26.07 31.11 27.97 37.44 26.07 42.19"></polygon>
            <path d="M26.07,27.65 C25.124234,27.6498476 24.1815156,27.7572035 23.26,27.97 L26.07,31.11 L28.88,28 C27.9598509,27.7759806 27.016988,27.6585421 26.07,27.65 Z" id="Shape" stroke="#45413C" fill="#FFCEBF" fill-rule="nonzero" stroke-linecap="round" stroke-linejoin="round"></path>
            <path d="M22.72,33.8 L26.07,31.11 L23.26,28 C22.3915036,28.2042847 21.5468689,28.4992365 20.74,28.88 L22.72,33.8 Z" id="Shape" stroke="#45413C" fill="#B8ECFF" fill-rule="nonzero" stroke-linecap="round" stroke-linejoin="round"></path>
            <path d="M29.43,33.8 L26.07,31.11 L28.88,28 C29.7489584,28.2026965 30.5937582,28.497706 31.4,28.88 L29.43,33.8 Z" id="Shape" stroke="#45413C" fill="#B8ECFF" fill-rule="nonzero" stroke-linecap="round" stroke-linejoin="round"></path>
            <path d="M20.54,34.57 L19.92,37.66 C19.8751936,37.886929 19.9695081,38.1187855 20.16,38.25 L26.07,42.18 L20.74,28.86 C20.1151855,29.1465657 19.5134012,29.4808903 18.94,29.86 L17.39,33.75 C17.3191776,33.9254581 17.3417463,34.1248146 17.45,34.28 C17.5589305,34.4374496 17.7385444,34.5309985 17.93,34.53 L20.54,34.57 Z" id="Shape" stroke="#45413C" fill="#FFFFFF" fill-rule="nonzero" stroke-linejoin="round"></path>
            <path d="M31.61,34.57 L32.22,37.66 C32.2648064,37.886929 32.1704919,38.1187855 31.98,38.25 L26.07,42.18 L31.4,28.86 C32.0248145,29.1465657 32.6265988,29.4808903 33.2,29.86 L34.75,33.75 C34.8208224,33.9254581 34.7982537,34.1248146 34.69,34.28 C34.586786,34.4386528 34.4092467,34.5330886 34.22,34.53 L31.61,34.57 Z" id="Shape" stroke="#45413C" fill="#FFFFFF" fill-rule="nonzero" stroke-linejoin="round"></path>
            <path d="M26.07,62.94 L26.07,42.18" id="Shape" stroke="#45413C" stroke-linecap="round" stroke-linejoin="round"></path>
        </g>
    </g>
</svg>
