<svg width="88px" height="68px" viewBox="0 0 88 68" version="1.1" xmlns="http://www.w3.org/2000/svg" xmlns:xlink="http://www.w3.org/1999/xlink">
    <!-- Generator: Sketch 48.2 (47327) - http://www.bohemiancoding.com/sketch -->
    <desc>Created with Sketch.</desc>
    <defs></defs>
    <g id="Page-1" stroke="none" stroke-width="1" fill="none" fill-rule="evenodd">
        <g id="stamp-document">
            <path d="M84.5,40 C84.4984701,23.6646106 74.5640168,8.97150733 59.4050828,2.88449909 C44.2461489,-3.20250915 26.9090288,0.539804837 15.6106656,12.3377681 C4.31230241,24.1357314 1.32318178,41.6184602 8.06,56.5 L80.94,56.5 C83.2912625,51.3173067 84.5051574,45.6911087 84.5,40 Z" id="Shape" fill="#E8F4FA" fill-rule="nonzero"></path>
            <path d="M5,56.5 L83,56.5" id="Shape" stroke="#45413C" stroke-linecap="round" stroke-linejoin="round"></path>
            <path d="M0.5,56.5 L3,56.5" id="Shape" stroke="#45413C" stroke-linecap="round" stroke-linejoin="round"></path>
            <path d="M85,56.5 L87.5,56.5" id="Shape" stroke="#45413C" stroke-linecap="round" stroke-linejoin="round"></path>
            <path d="M68.93,65.9 C68.93,66.9 57.93,67.8 44.26,67.8 C30.59,67.8 19.6,67 19.6,65.9 C19.6,64.8 30.6,64 44.26,64 C57.92,64 68.93,64.85 68.93,65.9 Z" id="Shape" fill="#020202" fill-rule="nonzero" opacity="0.15"></path>
            <path d="M71.46,63.37 C71.4626908,63.7049904 71.3308054,64.0270422 71.0939238,64.2639238 C70.8570422,64.5008054 70.5349904,64.6326908 70.2,64.63 L38.05,64.63 C37.714098,64.632666 37.391037,64.5010942 37.1525739,64.2645088 C36.9141109,64.0279234 36.7799894,63.7059126 36.78,63.37 L36.78,19.09 C36.7799894,18.7540874 36.9141109,18.4320766 37.1525739,18.1954912 C37.391037,17.9589058 37.714098,17.827334 38.05,17.83 L64.61,17.83 C64.9474424,17.8278397 65.2716499,17.961125 65.51,18.2 L71.09,23.78 C71.328875,24.0183501 71.4621603,24.3425576 71.46,24.68 L71.46,63.37 Z" id="Shape" fill="#F0F0F0" fill-rule="nonzero"></path>
            <path d="M36.78,22.89 C36.78,22.1885984 37.3485984,21.62 38.05,21.62 L68.93,21.62 L65.51,18.2 C65.2716499,17.961125 64.9474424,17.8278397 64.61,17.83 L38.05,17.83 C37.714098,17.827334 37.391037,17.9589058 37.1525739,18.1954912 C36.9141109,18.4320766 36.7799894,18.7540874 36.78,19.09 L36.78,22.89 Z" id="Shape" fill="#FFFFFF" fill-rule="nonzero"></path>
            <path d="M71.46,63.37 C71.4626908,63.7049904 71.3308054,64.0270422 71.0939238,64.2639238 C70.8570422,64.5008054 70.5349904,64.6326908 70.2,64.63 L38.05,64.63 C37.714098,64.632666 37.391037,64.5010942 37.1525739,64.2645088 C36.9141109,64.0279234 36.7799894,63.7059126 36.78,63.37 L36.78,19.09 C36.7799894,18.7540874 36.9141109,18.4320766 37.1525739,18.1954912 C37.391037,17.9589058 37.714098,17.827334 38.05,17.83 L64.61,17.83 C64.9474424,17.8278397 65.2716499,17.961125 65.51,18.2 L71.09,23.78 C71.328875,24.0183501 71.4621603,24.3425576 71.46,24.68 L71.46,63.37 Z" id="Shape" stroke="#45413C" stroke-linejoin="round"></path>
            <circle id="Oval" stroke="#46B000" cx="62.08" cy="53.25" r="6.33"></circle>
            <polyline id="Shape" stroke="#46B000" stroke-linecap="round" stroke-linejoin="round" points="58.92 53.25 61.45 55.78 65.56 51.03"></polyline>
            <path d="M45.01,33.01 L64.61,33.01" id="Shape" stroke="#45413C" stroke-linecap="round" stroke-linejoin="round"></path>
            <path d="M46.79,29.21 L55.2,29.21" id="Shape" stroke="#45413C" stroke-linecap="round" stroke-linejoin="round"></path>
            <path d="M45.01,36.8 L64.61,36.8" id="Shape" stroke="#45413C" stroke-linecap="round" stroke-linejoin="round"></path>
            <path d="M45.01,40.6 L64.61,40.6" id="Shape" stroke="#45413C" stroke-linecap="round" stroke-linejoin="round"></path>
            <path d="M65.14,23 C65.1373054,23.3058171 65.2576003,23.5998923 65.473854,23.816146 C65.6901077,24.0323997 65.9841829,24.1526946 66.29,24.15 L71.29,24.1500443 C71.2291734,24.0128693 71.144532,23.8876 71.04,23.78 L65.51,18.2 C65.4024,18.095468 65.2771307,18.0108266 65.1399557,17.95 L65.14,23 Z" id="Shape" stroke="#45413C" fill="#FFFFFF" fill-rule="nonzero" stroke-linejoin="round"></path>
            <path d="M18.54,52 L49.75,52 C51.959139,52 53.75,53.790861 53.75,56 L53.75,59.85 C53.75,60.4022847 53.3022847,60.85 52.75,60.85 L15.54,60.85 C14.9877153,60.85 14.54,60.4022847 14.54,59.85 L14.54,56 C14.54,53.790861 16.330861,52 18.54,52 Z" id="Shape" fill="#FF6242" fill-rule="nonzero"></path>
            <path d="M53.75,56.58 C53.75,54.0394902 51.6905098,51.98 49.15,51.98 L19.15,51.98 C16.6094902,51.98 14.55,54.0394902 14.55,56.58 L14.55,59.69 C14.5452296,59.7665925 14.5452296,59.8434075 14.55,59.92 C14.7811424,57.5736699 16.7523156,55.784052 19.11,55.78 L49.11,55.78 C51.4658902,55.7886786 53.4344254,57.5759013 53.67,59.92 C53.6747704,59.8434075 53.6747704,59.7665925 53.67,59.69 L53.75,56.58 Z" id="Shape" fill="#FF866E" fill-rule="nonzero"></path>
            <path d="M40.07,35.54 L28.22,35.54 C27.9424421,35.5370864 27.6678193,35.4828399 27.41,35.38 C28.03,36.67 29.72,41.18 29.72,51.98 L38.57,51.98 C38.57,41.18 40.26,36.67 40.88,35.38 C40.6221807,35.4828399 40.3475579,35.5370864 40.07,35.54 Z" id="Shape" fill="#FF6242" fill-rule="nonzero"></path>
            <path d="M28.22,35.54 C27.9424421,35.5370864 27.6678193,35.4828399 27.41,35.38 C27.6865933,35.9748369 27.9172666,36.5899657 28.1,37.22 L40.19,37.22 C40.3727334,36.5899657 40.6034067,35.9748369 40.88,35.38 C40.6221807,35.4828399 40.3475579,35.5370864 40.07,35.54 L28.22,35.54 Z" id="Shape" fill="#E04122" fill-rule="nonzero"></path>
            <path d="M50.85,63.85 C50.696727,64.3206764 50.2549572,64.6368053 49.76,64.63 L18.53,64.63 C18.0350428,64.6368053 17.593273,64.3206764 17.44,63.85 L16.44,60.85 L51.86,60.85 L50.85,63.85 Z" id="Shape" fill="#656769" fill-rule="nonzero"></path>
            <path d="M18.54,52 L49.75,52 C51.959139,52 53.75,53.790861 53.75,56 L53.75,59.85 C53.75,60.4022847 53.3022847,60.85 52.75,60.85 L15.54,60.85 C14.9877153,60.85 14.54,60.4022847 14.54,59.85 L14.54,56 C14.54,53.790861 16.330861,52 18.54,52 Z" id="Shape" stroke="#45413C" stroke-linejoin="round"></path>
            <path d="M40.07,35.54 L28.22,35.54 C27.9424421,35.5370864 27.6678193,35.4828399 27.41,35.38 C28.03,36.67 29.72,41.18 29.72,51.98 L38.57,51.98 C38.57,41.18 40.26,36.67 40.88,35.38 C40.6221807,35.4828399 40.3475579,35.5370864 40.07,35.54 Z" id="Shape" stroke="#45413C" stroke-linejoin="round"></path>
            <path d="M50.85,63.85 C50.696727,64.3206764 50.2549572,64.6368053 49.76,64.63 L18.53,64.63 C18.0350428,64.6368053 17.593273,64.3206764 17.44,63.85 L16.44,60.85 L51.86,60.85 L50.85,63.85 Z" id="Shape" stroke="#45413C" stroke-linejoin="round"></path>
            <path d="M29.64,48.19 L38.65,48.19" id="Shape" stroke="#45413C" stroke-linejoin="round"></path>
            <rect id="Rectangle-path" fill="#FF6242" fill-rule="nonzero" x="25.92" y="25.42" width="16.45" height="10.12" rx="2"></rect>
            <path d="M40.07,25.42 L28.22,25.42 C27.6100021,25.42 27.0249881,25.6623207 26.5936544,26.0936544 C26.1623207,26.5249881 25.92,27.1100021 25.92,27.72 L25.92,30.88 C25.92,30.2700021 26.1623207,29.6849881 26.5936544,29.2536544 C27.0249881,28.8223207 27.6100021,28.58 28.22,28.58 L40.07,28.58 C41.3402549,28.58 42.37,29.6097451 42.37,30.88 L42.37,27.72 C42.37,26.4497451 41.3402549,25.42 40.07,25.42 Z" id="Shape" fill="#FF866E" fill-rule="nonzero"></path>
            <rect id="Rectangle-path" stroke="#45413C" stroke-linejoin="round" x="25.92" y="25.42" width="16.45" height="10.12" rx="2"></rect>
        </g>
    </g>
</svg>
