<svg width="88px" height="70px" viewBox="0 0 88 70" version="1.1" xmlns="http://www.w3.org/2000/svg" xmlns:xlink="http://www.w3.org/1999/xlink">
    <!-- Generator: Sketch 48.2 (47327) - http://www.bohemiancoding.com/sketch -->
    <desc>Created with Sketch.</desc>
    <defs></defs>
    <g id="Page-1" stroke="none" stroke-width="1" fill="none" fill-rule="evenodd">
        <g id="customer-service-woman">
            <g id="_Group_">
                <path d="M84.5,40 C84.4984701,23.6646106 74.5640168,8.97150733 59.4050828,2.88449909 C44.2461489,-3.20250915 26.9090288,0.539804837 15.6106656,12.3377681 C4.31230241,24.1357314 1.32318178,41.6184602 8.06,56.5 L80.94,56.5 C83.2912625,51.3173067 84.5051574,45.6911087 84.5,40 Z" id="Shape" fill="#E8F4FA" fill-rule="nonzero"></path>
                <path d="M5,56.5 L83,56.5" id="Shape" stroke="#45413C" stroke-linecap="round" stroke-linejoin="round"></path>
                <path d="M0.5,56.5 L3,56.5" id="Shape" stroke="#45413C" stroke-linecap="round" stroke-linejoin="round"></path>
                <path d="M85,56.5 L87.5,56.5" id="Shape" stroke="#45413C" stroke-linecap="round" stroke-linejoin="round"></path>
            </g>
            <path d="M57.9,34.9 C61.2137085,34.9 63.9,32.2137085 63.9,28.9 L63.9,16.9 C63.9074003,13.573818 62.5339028,10.3937735 60.1073232,8.1188552 C57.6807437,5.84393691 54.4187899,4.67824575 51.1,4.9 C44.6880113,5.45563773 39.7972262,10.8748023 39.9,17.31 L39.9,28.9 C39.9,32.2137085 42.5862915,34.9 45.9,34.9 L57.9,34.9 Z" id="Shape" fill="#FFDF3D" fill-rule="nonzero"></path>
            <path d="M51.1,4.93 C44.6996923,5.48485879 39.8131132,10.8862738 39.9,17.31 L39.9,20.31 C39.8131132,13.8862738 44.6996923,8.48485879 51.1,7.93 C54.4187899,7.70824575 57.6807437,8.87393691 60.1073232,11.1488552 C62.5339028,13.4237735 63.9074003,16.603818 63.9,19.93 L63.9,16.93 C63.9074003,13.603818 62.5339028,10.4237735 60.1073232,8.1488552 C57.6807437,5.87393691 54.4187899,4.70824575 51.1,4.93 Z" id="Shape" fill="#FFEF9E" fill-rule="nonzero"></path>
            <path d="M57.9,34.9 C61.2137085,34.9 63.9,32.2137085 63.9,28.9 L63.9,16.9 C63.9074003,13.573818 62.5339028,10.3937735 60.1073232,8.1188552 C57.6807437,5.84393691 54.4187899,4.67824575 51.1,4.9 C44.6880113,5.45563773 39.7972262,10.8748023 39.9,17.31 L39.9,28.9 C39.9,32.2137085 42.5862915,34.9 45.9,34.9 L57.9,34.9 Z" id="Shape" stroke="#45413C" stroke-linecap="round" stroke-linejoin="round"></path>
            <path d="M51.9,33.1 C43.2843579,33.1 36.3,40.0843579 36.3,48.7 L36.3,52.9 C36.3,60.81 33.49,61.9 30.38,61.9 L27.9,61.9 L27.9,67.3 L30.38,67.3 C34.74,67.3 42.3,63.67 42.3,56.5 L61.5,56.5 C61.5,61.06 58.14,61.9 55.58,61.9 L53.1,61.9 L53.1,67.3 L55.58,67.3 C60.5,67.3 67.5,66.3 67.5,56.5 L67.5,48.7 C67.5026552,44.5618093 65.8599412,40.5923454 62.9337979,37.6662021 C60.0076546,34.7400588 56.0381907,33.0973448 51.9,33.1 Z" id="Shape" fill="#FFB0CA" fill-rule="nonzero"></path>
            <path d="M51.9,33.1 C47.7618093,33.0973448 43.7923454,34.7400588 40.8662021,37.6662021 C37.9400588,40.5923454 36.2973448,44.5618093 36.3,48.7 L36.2999968,52.9 C36.3,44.2843579 43.2843579,37.3 51.9,37.3 C60.5156421,37.3 67.5,44.2843579 67.5000032,52.9 L67.5,48.7 C67.5026552,44.5618093 65.8599412,40.5923454 62.9337979,37.6662021 C60.0076546,34.7400588 56.0381907,33.0973448 51.9,33.1 Z" id="Shape" fill="#FFCCDD" fill-rule="nonzero"></path>
            <path d="M51.9,33.1 C43.2843579,33.1 36.3,40.0843579 36.3,48.7 L36.3,52.9 C36.3,60.81 33.49,61.9 30.38,61.9 L27.9,61.9 L27.9,67.3 L30.38,67.3 C34.74,67.3 42.3,63.67 42.3,56.5 L61.5,56.5 C61.5,61.06 58.14,61.9 55.58,61.9 L53.1,61.9 L53.1,67.3 L55.58,67.3 C60.5,67.3 67.5,66.3 67.5,56.5 L67.5,48.7 C67.5026552,44.5618093 65.8599412,40.5923454 62.9337979,37.6662021 C60.0076546,34.7400588 56.0381907,33.0973448 51.9,33.1 Z" id="Shape" stroke="#45413C" stroke-linecap="round" stroke-linejoin="round"></path>
            <path d="M42.3,49.3 L42.3,56.5" id="Shape" stroke="#45413C" stroke-linecap="round" stroke-linejoin="round"></path>
            <path d="M61.5,49.3 L61.5,56.5" id="Shape" stroke="#45413C" stroke-linecap="round" stroke-linejoin="round"></path>
            <ellipse id="Oval" fill="#020202" fill-rule="nonzero" opacity="0.15" cx="36.94" cy="68" rx="18" ry="1.5"></ellipse>
            <path d="M53.1,66.7 L51.3,66.7 C49.9745166,66.7 48.9,65.6254834 48.9,64.3 C48.9,62.9745166 49.9745166,61.9 51.3,61.9 L53.1,61.9 L53.1,66.7 Z" id="Shape" stroke="#45413C" fill="#FFDCD1" fill-rule="nonzero" stroke-linecap="round" stroke-linejoin="round"></path>
            <path d="M27.9,66.7 L26.1,66.7 C24.7745166,66.7 23.7,65.6254834 23.7,64.3 C23.7,62.9745166 24.7745166,61.9 26.1,61.9 L27.9,61.9 L27.9,66.7 Z" id="Shape" stroke="#45413C" fill="#FFDCD1" fill-rule="nonzero" stroke-linecap="round" stroke-linejoin="round"></path>
            <path d="M51.9,40.9 L51.9,56.5" id="Shape" stroke="#45413C" stroke-linecap="round" stroke-linejoin="round"></path>
            <polygon id="Shape" fill="#FFDCD1" fill-rule="nonzero" points="55.5 33.7 51.9 40.9 48.3 33.7 48.3 30.7 55.5 30.7"></polygon>
            <path d="M48.3,33.57 L48.57,33.7 C50.7179158,34.5000671 53.0820842,34.5000671 55.23,33.7 L55.5,33.57 L55.5,30.7 L48.3,30.7 L48.3,33.57 Z" id="Shape" fill="#FFCEBF" fill-rule="nonzero"></path>
            <polygon id="Shape" stroke="#45413C" stroke-linecap="round" stroke-linejoin="round" points="55.5 33.7 51.9 40.9 48.3 33.7 48.3 30.7 55.5 30.7"></polygon>
            <path d="M46.28,39.23 C46.473052,39.4808782 46.7734904,39.6255337 47.09,39.62 C47.4047701,39.61218 47.6974741,39.4565652 47.88,39.2 L49.68,36.7 C49.9416991,36.346497 49.9416991,35.863503 49.68,35.51 L48.2,33.51 C46.5306183,33.9128749 44.9392141,34.5886304 43.49,35.51 L46.28,39.23 Z" id="Shape" stroke="#45413C" fill="#FFB0CA" fill-rule="nonzero" stroke-linecap="round" stroke-linejoin="round"></path>
            <path d="M57.52,39.23 C57.3311456,39.4818058 57.0347573,39.63 56.72,39.63 C56.4052427,39.63 56.1088544,39.4818058 55.92,39.23 L54.13,36.73 C53.8683009,36.376497 53.8683009,35.893503 54.13,35.54 L55.61,33.54 C57.2825664,33.9427065 58.8772884,34.6184362 60.33,35.54 L57.52,39.23 Z" id="Shape" stroke="#45413C" fill="#FFB0CA" fill-rule="nonzero" stroke-linecap="round" stroke-linejoin="round"></path>
            <path d="M62.1,19.9 L62.1,17.5 C62.1,17.22 62.1,16.94 62.1,16.67 C57.5727727,19.2667088 51.8355995,18.2473286 48.48,14.25 C47.7724034,16.7802169 45.5242314,18.573114 42.9,18.7 C42.4959816,18.6990508 42.0933863,18.6520814 41.7,18.56 L41.7,19.9 C40.7081599,19.9054648 39.9054648,20.7081599 39.9,21.7 L39.9,22.3 C39.9054648,23.2918401 40.7081599,24.0945352 41.7,24.1 L41.87,24.1 C42.7291683,28.969513 46.9602728,32.5194422 51.905,32.5194422 C56.8497272,32.5194422 61.0808317,28.969513 61.94,24.1 L62.1,24.1 C63.0941125,24.1 63.9,23.2941125 63.9,22.3 L63.9,21.7 C63.9,20.7058875 63.0941125,19.9 62.1,19.9 Z" id="Shape" stroke="#45413C" fill="#FFDCD1" fill-rule="nonzero" stroke-linecap="round" stroke-linejoin="round"></path>
            <path d="M47.1,24.1 C47.1,24.7627417 46.5627417,25.3 45.9,25.3 C45.2372583,25.3 44.7,24.7627417 44.7,24.1 C44.7,23.4372583 45.2372583,22.9 45.9,22.9 C46.5627417,22.9 47.1,23.4372583 47.1,24.1 Z" id="Shape" fill="#FFCEBF" fill-rule="nonzero"></path>
            <path d="M59.1,24.1 C59.1,24.7627417 58.5627417,25.3 57.9,25.3 C57.2372583,25.3 56.7,24.7627417 56.7,24.1 C56.7,23.4372583 57.2372583,22.9 57.9,22.9 C58.2182598,22.9 58.5234845,23.0264282 58.7485281,23.2514719 C58.9735718,23.4765155 59.1,23.7817402 59.1,24.1 Z" id="Shape" fill="#FFCEBF" fill-rule="nonzero"></path>
            <path d="M48.9,26.5 C50.58,28.1 53.22,28.1 54.9,26.5" id="Shape" stroke="#45413C" stroke-linecap="round" stroke-linejoin="round"></path>
            <path d="M57.3,21.1 C57.0441775,20.4984301 56.453706,20.1078871 55.8,20.1078871 C55.146294,20.1078871 54.5558225,20.4984301 54.3,21.1" id="Shape" stroke="#45413C" stroke-linecap="round" stroke-linejoin="round"></path>
            <path d="M49.5,20.9 C49.2441775,20.2984301 48.653706,19.9078871 48,19.9078871 C47.346294,19.9078871 46.7558225,20.2984301 46.5,20.9" id="Shape" stroke="#45413C" stroke-linecap="round" stroke-linejoin="round"></path>
            <path d="M37.5,24.1 L37.5,25.9 C37.5,28.8823376 39.9176624,31.3 42.9,31.3 L45.9,31.3" id="Shape" stroke="#45413C" stroke-linecap="round" stroke-linejoin="round"></path>
            <path d="M38.7,19.3 L41.1,19.3 L41.1,25.3 L38.7,25.3 C38.3817402,25.3 38.0765155,25.1735718 37.8514719,24.9485281 C37.6264282,24.7234845 37.5,24.4182598 37.5,24.1 L37.5,20.5 C37.5,20.1817402 37.6264282,19.8765155 37.8514719,19.6514719 C38.0765155,19.4264282 38.3817402,19.3 38.7,19.3 Z" id="Shape" stroke="#45413C" fill="#FFFFFF" fill-rule="nonzero" stroke-linecap="round" stroke-linejoin="round"></path>
            <path d="M39.9,24.1 C39.9,24.7627417 40.4372583,25.3 41.1,25.3 C41.7627417,25.3 42.3,24.7627417 42.3,24.1 L42.3,20.5 C42.3,19.8372583 41.7627417,19.3 41.1,19.3 C40.4372583,19.3 39.9,19.8372583 39.9,20.5 L39.9,24.1 Z" id="Shape" stroke="#45413C" fill="#656769" fill-rule="nonzero" stroke-linecap="round" stroke-linejoin="round"></path>
            <path d="M63.9,19.3 L66.3,19.3 L66.3,25.3 L63.9,25.3 C63.2372583,25.3 62.7,24.7627417 62.7,24.1 L62.7,20.5 C62.7,19.8372583 63.2372583,19.3 63.9,19.3 Z" id="Shape" stroke="#45413C" fill="#FFFFFF" fill-rule="nonzero" stroke-linecap="round" stroke-linejoin="round" transform="translate(64.500000, 22.300000) rotate(180.000000) translate(-64.500000, -22.300000) "></path>
            <path d="M63.9,24.1 C63.9,24.7627417 63.3627417,25.3 62.7,25.3 C62.0372583,25.3 61.5,24.7627417 61.5,24.1 L61.5,20.5 C61.5,19.8372583 62.0372583,19.3 62.7,19.3 C63.3627417,19.3 63.9,19.8372583 63.9,20.5 L63.9,24.1 Z" id="Shape" stroke="#45413C" fill="#656769" fill-rule="nonzero" stroke-linecap="round" stroke-linejoin="round"></path>
            <path d="M49.5,31.3 C49.5,32.2941125 48.6941125,33.1 47.7,33.1 C46.7058875,33.1 45.9,32.2941125 45.9,31.3 C45.9,30.3058875 46.7058875,29.5 47.7,29.5 C48.6918401,29.5054648 49.4945352,30.3081599 49.5,31.3 Z" id="Shape" stroke="#45413C" fill="#656769" fill-rule="nonzero" stroke-linecap="round" stroke-linejoin="round"></path>
            <path d="M37.5,22.3 L37.5,16.9 C37.5000002,8.94709972 43.9470997,2.5000003 51.9,2.5000003 C59.8529003,2.5000003 66.2999998,8.94709972 66.3,16.9 L66.3,22.3" id="Shape" stroke="#45413C" stroke-linecap="round" stroke-linejoin="round"></path>
            <path d="M40.63,65 L42.86,65 L38.09,50.19 C37.9506053,49.7606615 37.5408611,49.477938 37.09,49.5 L35.63,49.5 L40.63,65 Z" id="Shape" stroke="#45413C" fill="#E8F4FA" fill-rule="nonzero" stroke-linejoin="round"></path>
            <path d="M21.13,65 L40.63,65 L35.63,49.5 L17.5,49.5 C17.1798426,49.5002358 16.8791539,49.6537516 16.6911994,49.9129309 C16.503245,50.1721102 16.4507511,50.5056146 16.55,50.81 L21.13,65 Z" id="Shape" fill="#ADC4D9" fill-rule="nonzero"></path>
            <path d="M35.63,49.5 L17.5,49.5 C17.1798426,49.5002358 16.8791539,49.6537516 16.6911994,49.9129309 C16.503245,50.1721102 16.4507511,50.5056146 16.55,50.81 L17.15,52.67 L36.65,52.67 L35.63,49.5 Z" id="Shape" fill="#C0DCEB" fill-rule="nonzero"></path>
            <path d="M21.13,65 L41.63,65 L41.63,67.5 L23.13,67.5 C22.0254305,67.5 21.13,66.6045695 21.13,65.5 L21.13,65 Z" id="Shape" stroke="#45413C" fill="#C0DCEB" fill-rule="nonzero" stroke-linejoin="round"></path>
            <path d="M41.63,65 L50.63,65 C50.9061424,65 51.13,65.2238576 51.13,65.5 C51.13,66.6045695 50.2345695,67.5 49.13,67.5 L41.63,67.5 L41.63,65 Z" id="Shape" stroke="#45413C" fill="#E8F4FA" fill-rule="nonzero" stroke-linejoin="round"></path>
            <path d="M29.47,56.7 C29.4777898,56.3175962 29.6768294,55.9645827 30,55.76 C29.7933847,55.4660012 29.4592553,55.2877989 29.1,55.28 C28.72,55.28 28.35,55.5 28.16,55.5 C27.97,55.5 27.67,55.28 27.35,55.29 C26.9333247,55.3057843 26.5547134,55.5367372 26.35,55.9 C26.0193085,56.7248848 26.1364351,57.6618973 26.66,58.38 C26.87,58.68 27.12,59.01 27.44,59 C27.76,58.99 27.87,58.8 28.24,58.8 C28.61,58.8 28.73,59 29.05,58.99 C29.37,58.98 29.6,58.69 29.81,58.39 C29.9511303,58.171222 30.065292,57.9361832 30.15,57.69 C29.7402097,57.5326345 29.4698117,57.1389669 29.47,56.7 Z" id="Shape" stroke="#45413C" fill="#F0F0F0" fill-rule="nonzero" stroke-linejoin="round"></path>
            <path d="M28.63,54 L29.08,53.55" id="Shape" stroke="#45413C" stroke-linecap="round" stroke-linejoin="round"></path>
            <path d="M21.13,65 L40.63,65 L35.63,49.5 L17.5,49.5 C17.1798426,49.5002358 16.8791539,49.6537516 16.6911994,49.9129309 C16.503245,50.1721102 16.4507511,50.5056146 16.55,50.81 L21.13,65 Z" id="Shape" stroke="#45413C" stroke-linejoin="round"></path>
        </g>
    </g>
</svg>
