<svg width="80px" height="80px" viewBox="0 0 80 80" version="1.1" xmlns="http://www.w3.org/2000/svg" xmlns:xlink="http://www.w3.org/1999/xlink">
    <!-- Generator: Sketch 48.2 (47327) - http://www.bohemiancoding.com/sketch -->
    <desc>Created with Sketch.</desc>
    <defs></defs>
    <g id="Page-1" stroke="none" stroke-width="1" fill="none" fill-rule="evenodd">
        <g id="ship">
            <circle id="Oval" fill="#E8F4FA" fill-rule="nonzero" cx="40" cy="40" r="40"></circle>
            <rect id="Rectangle-path" stroke="#45413C" fill="#FF6242" fill-rule="nonzero" stroke-linecap="round" stroke-linejoin="round" x="22" y="43.5" width="7.5" height="3.5"></rect>
            <rect id="Rectangle-path" stroke="#45413C" fill="#6DD627" fill-rule="nonzero" stroke-linecap="round" stroke-linejoin="round" x="22" y="40" width="7.5" height="3.5"></rect>
            <path d="M22.5,36.5 L29,36.5 C29.2761424,36.5 29.5,36.7238576 29.5,37 L29.5,40 L22,40 L22,37 C22,36.7238576 22.2238576,36.5 22.5,36.5 Z" id="Shape" fill="#6DD627" fill-rule="nonzero"></path>
            <path d="M29,36.5 L22.5,36.5 C22.2238576,36.5 22,36.7238576 22,37 L22,39 C22,38.7238576 22.2238576,38.5 22.5,38.5 L29,38.5 C29.2761424,38.5 29.5,38.7238576 29.5,39 L29.5,37 C29.5,36.7238576 29.2761424,36.5 29,36.5 Z" id="Shape" fill="#9CEB60" fill-rule="nonzero"></path>
            <path d="M22.5,36.5 L29,36.5 C29.2761424,36.5 29.5,36.7238576 29.5,37 L29.5,40 L22,40 L22,37 C22,36.7238576 22.2238576,36.5 22.5,36.5 Z" id="Shape" stroke="#45413C" stroke-linecap="round" stroke-linejoin="round"></path>
            <path d="M59.53,58 L16.07,58 C15.7169327,57.9999384 15.3900643,57.8136995 15.21,57.51 L12.21,52.51 C11.4218022,51.1977889 10.5534899,49.9353965 9.61,48.73 L6.8,45.16 C6.56172695,44.8584802 6.51732329,44.4470903 6.68576848,44.1016711 C6.85421368,43.7562518 7.20570333,43.537921 7.59,43.54 L24.37,43.54 C24.7806471,43.5426928 25.181118,43.6680576 25.52,43.9 L30,47 L70,47 L70,51.76 C69.9995973,52.518944 69.5696577,53.21227 68.89,53.55 L60.42,57.79 C60.1435316,57.9277917 59.8389032,57.9996703 59.53,58 Z" id="Shape" fill="#ADC4D9" fill-rule="nonzero"></path>
            <path d="M60.5,46.9999987 L48.5,46.9999987 L48.5,28.9999987 L57.5,29 C57.7974322,28.999517 58.0796435,29.1314599 58.27,29.36 L60.5,31.9999998 L60.5,46.9999987 Z" id="Shape" fill="#F0F0F0" fill-rule="nonzero"></path>
            <path d="M58.3,29.36 C58.1096435,29.1314599 57.8274322,28.999517 57.53,29 L48.53,28.9999987 L48.53,32 L57.53,32 C57.8274322,31.999517 58.1096435,32.1314599 58.3,32.36 L60.5,35 L60.5,32 L58.3,29.36 Z" id="Shape" fill="#FFFFFF" fill-rule="nonzero"></path>
            <path d="M60.5,46.9999987 L48.5,46.9999987 L48.5,28.9999987 L57.5,29 C57.7974322,28.999517 58.0796435,29.1314599 58.27,29.36 L60.5,31.9999998 L60.5,46.9999987 Z" id="Shape" stroke="#45413C" stroke-linecap="round" stroke-linejoin="round"></path>
            <rect id="Rectangle-path" stroke="#45413C" fill="#6DD627" fill-rule="nonzero" stroke-linecap="round" stroke-linejoin="round" x="60.5" y="43.5" width="7.5" height="3.5"></rect>
            <rect id="Rectangle-path" stroke="#45413C" fill="#FF6242" fill-rule="nonzero" stroke-linecap="round" stroke-linejoin="round" x="60.5" y="40" width="7.5" height="3.5"></rect>
            <rect id="Rectangle-path" stroke="#45413C" fill="#FFE500" fill-rule="nonzero" stroke-linecap="round" stroke-linejoin="round" x="60.5" y="36.5" width="7.5" height="3.5"></rect>
            <path d="M60.5,33 L67.5,33 C67.7761424,33 68,33.2238576 68,33.5 L68,36.5 L60.5,36.5 L60.5,33 Z" id="Shape" fill="#FF6242" fill-rule="nonzero"></path>
            <path d="M67.5,33 L60.5,33 L60.5,35 L67.5,35 C67.7761424,35 68,35.2238576 68,35.5 L68,33.5 C68,33.2238576 67.7761424,33 67.5,33 Z" id="Shape" fill="#FF866E" fill-rule="nonzero"></path>
            <path d="M60.5,33 L67.5,33 C67.7761424,33 68,33.2238576 68,33.5 L68,36.5 L60.5,36.5 L60.5,33 Z" id="Shape" stroke="#45413C" stroke-linecap="round" stroke-linejoin="round"></path>
            <rect id="Rectangle-path" stroke="#45413C" fill="#FFE500" fill-rule="nonzero" stroke-linecap="round" stroke-linejoin="round" x="39" y="43.5" width="7.5" height="3.5"></rect>
            <rect id="Rectangle-path" stroke="#45413C" fill="#6DD627" fill-rule="nonzero" stroke-linecap="round" stroke-linejoin="round" x="39" y="40" width="7.5" height="3.5"></rect>
            <rect id="Rectangle-path" stroke="#45413C" fill="#6DD627" fill-rule="nonzero" stroke-linecap="round" stroke-linejoin="round" x="39" y="36.5" width="7.5" height="3.5"></rect>
            <path d="M39.5,33 L46,33 C46.2761424,33 46.5,33.2238576 46.5,33.5 L46.5,36.5 L39,36.5 L39,33.5 C39,33.2238576 39.2238576,33 39.5,33 Z" id="Shape" fill="#FF6242" fill-rule="nonzero"></path>
            <path d="M46,33 L39.5,33 C39.2238576,33 39,33.2238576 39,33.5 L39,35.5 C39,35.2238576 39.2238576,35 39.5,35 L46,35 C46.2761424,35 46.5,35.2238576 46.5,35.5 L46.5,33.5 C46.5,33.2238576 46.2761424,33 46,33 Z" id="Shape" fill="#FF866E" fill-rule="nonzero"></path>
            <path d="M39.5,33 L46,33 C46.2761424,33 46.5,33.2238576 46.5,33.5 L46.5,36.5 L39,36.5 L39,33.5 C39,33.2238576 39.2238576,33 39.5,33 Z" id="Shape" stroke="#45413C" stroke-linecap="round" stroke-linejoin="round"></path>
            <rect id="Rectangle-path" stroke="#45413C" fill="#6DD627" fill-rule="nonzero" stroke-linecap="round" stroke-linejoin="round" x="31.5" y="43.5" width="7.5" height="3.5"></rect>
            <rect id="Rectangle-path" stroke="#45413C" fill="#FF6242" fill-rule="nonzero" stroke-linecap="round" stroke-linejoin="round" x="31.5" y="40" width="7.5" height="3.5"></rect>
            <path d="M32,36.5 L39,36.5 L39,40 L31.5,40 L31.5,37 C31.5,36.7238576 31.7238576,36.5 32,36.5 Z" id="Shape" fill="#FFE500" fill-rule="nonzero"></path>
            <path d="M32,36.5 C31.7238576,36.5 31.5,36.7238576 31.5,37 L31.5,39 C31.5,38.7238576 31.7238576,38.5 32,38.5 L39,38.5 L39,36.5 L32,36.5 Z" id="Shape" fill="#FFF48C" fill-rule="nonzero"></path>
            <path d="M32,36.5 L39,36.5 L39,40 L31.5,40 L31.5,37 C31.5,36.7238576 31.7238576,36.5 32,36.5 Z" id="Shape" stroke="#45413C" stroke-linecap="round" stroke-linejoin="round"></path>
            <rect id="Rectangle-path" stroke="#45413C" fill="#FF866E" fill-rule="nonzero" stroke-linecap="round" stroke-linejoin="round" x="16" y="37" width="2" height="6.5"></rect>
            <path d="M68,35 L69,35 C69.5522847,35 70,35.4477153 70,36 L70,47 L68,47 L68,35 Z" id="Shape" fill="#FF866E" fill-rule="nonzero"></path>
            <path d="M69,35 L68,35 L68,37.5 L69,37.5 C69.5522847,37.5 70,37.9477153 70,38.5 L70,36 C70,35.4477153 69.5522847,35 69,35 Z" id="Shape" fill="#FFA694" fill-rule="nonzero"></path>
            <path d="M18,43.5 L18,40 L19.09,40 C19.3523399,40.0011046 19.6037394,40.1052558 19.79,40.29 L23,43.5 L18,43.5 Z" id="Shape" stroke="#45413C" fill="#FF866E" fill-rule="nonzero" stroke-linecap="round" stroke-linejoin="round"></path>
            <path d="M18,35 L16,35 C15.4477153,35 15,35.4477153 15,36 C15,36.5522847 15.4477153,37 16,37 L18,37 C18.5522847,37 19,36.5522847 19,36 C19,35.4477153 18.5522847,35 18,35 Z" id="Shape" stroke="#45413C" fill="#FF866E" fill-rule="nonzero" stroke-linecap="round" stroke-linejoin="round"></path>
            <rect id="Rectangle-path" fill="#00B8F0" fill-rule="nonzero" x="46.5" y="26" width="10" height="3"></rect>
            <polygon id="Shape" fill="#4ACFFF" fill-rule="nonzero" points="56 26 50.5 29 46.5 29 46.5 26"></polygon>
            <rect id="Rectangle-path" stroke="#45413C" stroke-linecap="round" stroke-linejoin="round" x="46.5" y="26" width="10" height="3"></rect>
            <path d="M53.43,21.5 L51.5,21.5 C50.9477153,21.5 50.5,21.9477153 50.5,22.5 L50.5,24 L55.5,24 L54.29,22 C54.1124477,21.6924555 53.7851111,21.5021435 53.43,21.5 Z" id="Shape" stroke="#45413C" fill="#FF6242" fill-rule="nonzero" stroke-linecap="round" stroke-linejoin="round"></path>
            <path d="M46.5,29 L48.5,29 L48.5,31 L47.5,31 C46.9477153,31 46.5,30.5522847 46.5,30 L46.5,29 Z" id="Shape" stroke="#45413C" fill="#FFFFFF" fill-rule="nonzero" stroke-linecap="round" stroke-linejoin="round"></path>
            <path d="M47.5,24 L55.5,24 C56.0522847,24 56.5,24.4477153 56.5,25 L56.5,26 L46.5,26 L46.5,25 C46.5,24.4477153 46.9477153,24 47.5,24 Z" id="Shape" stroke="#45413C" fill="#FFFFFF" fill-rule="nonzero" stroke-linecap="round" stroke-linejoin="round"></path>
            <path d="M30,47 L25.52,43.86 C25.181118,43.6280576 24.7806471,43.5026928 24.37,43.5 L7.56,43.5 C7.17570333,43.497921 6.82421368,43.7162518 6.65576848,44.0616711 C6.48732329,44.4070903 6.53172695,44.8184802 6.77,45.12 L7.15,45.6 C7.27707188,45.5353479 7.41743101,45.501114 7.56,45.5 L24.37,45.5 C24.7806471,45.5026928 25.181118,45.6280576 25.52,45.86 L30,49 L70,49 L70,47 L30,47 Z" id="Shape" fill="#C0DCEB" fill-rule="nonzero"></path>
            <path d="M59.53,58 L16.07,58 C15.7169327,57.9999384 15.3900643,57.8136995 15.21,57.51 L12.21,52.51 C11.4218022,51.1977889 10.5534899,49.9353965 9.61,48.73 L6.8,45.16 C6.56172695,44.8584802 6.51732329,44.4470903 6.68576848,44.1016711 C6.85421368,43.7562518 7.20570333,43.537921 7.59,43.54 L24.37,43.54 C24.7806471,43.5426928 25.181118,43.6680576 25.52,43.9 L30,47 L70,47 L70,51.76 C69.9995973,52.518944 69.5696577,53.21227 68.89,53.55 L60.42,57.79 C60.1435316,57.9277917 59.8389032,57.9996703 59.53,58 Z" id="Shape" stroke="#45413C" stroke-linecap="round" stroke-linejoin="round"></path>
            <path d="M60.5,32 L60.5,25" id="Shape" stroke="#45413C" stroke-linecap="round" stroke-linejoin="round"></path>
            <path d="M51.5,21.5 L51.5,18" id="Shape" stroke="#45413C" stroke-linecap="round" stroke-linejoin="round"></path>
            <path d="M15,36 L7.5,43.5" id="Shape" stroke="#45413C" stroke-linecap="round" stroke-linejoin="round"></path>
            <polygon id="Shape" stroke="#45413C" fill="#DAEDF7" fill-rule="nonzero" stroke-linecap="round" stroke-linejoin="round" points="51 41.5 60.5 36 60.5 33.5 51 39"></polygon>
            <polygon id="Shape" stroke="#45413C" fill="#DAEDF7" fill-rule="nonzero" stroke-linecap="round" stroke-linejoin="round" points="51 47 60.5 41.5 60.5 39 51 44.5"></polygon>
            <rect id="Rectangle-path" stroke="#45413C" fill="#FFAA54" fill-rule="nonzero" stroke-linecap="round" stroke-linejoin="round" x="51" y="33.5" width="9.5" height="2.5"></rect>
            <rect id="Rectangle-path" stroke="#45413C" fill="#FFAA54" fill-rule="nonzero" stroke-linecap="round" stroke-linejoin="round" x="51" y="39" width="9.5" height="2.5"></rect>
            <rect id="Rectangle-path" stroke="#45413C" fill="#FFAA54" fill-rule="nonzero" stroke-linecap="round" stroke-linejoin="round" x="51" y="44.5" width="9.5" height="2.5"></rect>
            <path d="M60.37,57.79 L67.94,54 L30,54 L24.75,50.57 C24.4252344,50.3602197 24.046626,50.2490686 23.66,50.25 L10.66,50.2499942 C11.17,50.98 11.66,51.71 12.12,52.47 L15.12,57.47 C15.2932384,57.7953472 15.6314063,57.9990165 16,58 L59.47,58 C59.7822807,58.0012237 60.090509,57.9293037 60.37,57.79 Z" id="Shape" stroke="#45413C" fill="#FF6242" fill-rule="nonzero" stroke-linecap="round" stroke-linejoin="round"></path>
            <path d="M50,26 L50,29" id="Shape" stroke="#45413C" stroke-linecap="round" stroke-linejoin="round"></path>
            <path d="M53.5,26 L53.5,29" id="Shape" stroke="#45413C" stroke-linecap="round" stroke-linejoin="round"></path>
            <path d="M69.24,56.1 C66.8,56.1 66.8,57.66 64.36,57.66 C61.92,57.66 61.92,56.1 59.48,56.1 C57.04,56.1 57,57.66 54.61,57.66 C52.22,57.66 52.17,56.1 49.73,56.1 C47.29,56.1 47.29,57.66 44.86,57.66 C42.43,57.66 42.42,56.1 40,56.1 C37.58,56.1 37.57,57.66 35.13,57.66 C32.69,57.66 32.69,56.1 30.26,56.1 C27.83,56.1 27.82,57.66 25.38,57.66 C22.94,57.66 22.95,56.1 20.51,56.1 C18.07,56.1 18.08,57.66 15.64,57.66 C13.2,57.66 13.2,56.1 10.77,56.1 C8.34,56.1 8.33,57.66 5.89,57.66 C5.18649731,57.6771202 4.49270085,57.4932641 3.89,57.13 C10.5070882,71.1004343 24.5817048,80.0075732 40.04,80.0075732 C55.4982952,80.0075732 69.5729118,71.1004343 76.19,57.13 C75.5894778,57.4993817 74.8948282,57.6869371 74.19,57.67 C71.68,57.66 71.68,56.1 69.24,56.1 Z" id="Shape" fill="#4AEFF7" fill-rule="nonzero"></path>
            <path d="M1,56.09 C3.44,56.09 3.44,57.66 5.87,57.66 C8.3,57.66 8.31,56.09 10.75,56.09 C13.19,56.09 13.18,57.66 15.62,57.66 C18.06,57.66 18.06,56.09 20.49,56.09 C22.92,56.09 22.93,57.66 25.36,57.66 C27.79,57.66 27.8,56.09 30.24,56.09 C32.68,56.09 32.67,57.66 35.11,57.66 C37.55,57.66 37.55,56.09 39.98,56.09 C42.41,56.09 42.42,57.66 44.86,57.66 C47.3,57.66 47.29,56.09 49.73,56.09 C52.17,56.09 52.17,57.66 54.61,57.66 C57.05,57.66 57.04,56.09 59.48,56.09 C61.92,56.09 61.92,57.66 64.36,57.66 C66.8,57.66 66.8,56.09 69.24,56.09 C71.68,56.09 71.68,57.66 74.12,57.66 C76.56,57.66 76.56,56.09 79,56.09" id="Shape" stroke="#45413C" stroke-linecap="round" stroke-linejoin="round"></path>
            <path d="M14.66,63.56 C17.1,63.56 17.1,62 19.53,62 C21.96,62 21.97,63.56 24.41,63.56 C26.85,63.56 26.84,62 29.28,62 C31.72,62 31.72,63.56 34.15,63.56 C36.58,63.56 36.59,62 39,62 C41.41,62 41.44,63.56 43.87,63.56" id="Shape" stroke="#A6FBFF" stroke-linecap="round" stroke-linejoin="round"></path>
            <path d="M29.17,72.73 C31.61,72.73 31.61,71.17 34.04,71.17 C36.47,71.17 36.48,72.73 38.91,72.73 C41.34,72.73 41.35,71.17 43.79,71.17 C46.23,71.17 46.22,72.73 48.66,72.73" id="Shape" stroke="#A6FBFF" stroke-linecap="round" stroke-linejoin="round"></path>
            <path d="M64.78,66 C62.35,66 62.35,67.56 59.91,67.56 C57.47,67.56 57.48,66 55,66 C52.52,66 52.56,67.56 50.13,67.56" id="Shape" stroke="#A6FBFF" stroke-linecap="round" stroke-linejoin="round"></path>
            <path d="M68,35 L69,35 C69.5522847,35 70,35.4477153 70,36 L70,47 L68,47 L68,35 Z" id="Shape" stroke="#45413C" stroke-linecap="round" stroke-linejoin="round"></path>
        </g>
    </g>
</svg>
