<svg width="89px" height="72px" viewBox="0 0 89 72" version="1.1" xmlns="http://www.w3.org/2000/svg" xmlns:xlink="http://www.w3.org/1999/xlink">
    <!-- Generator: Sketch 48.2 (47327) - http://www.bohemiancoding.com/sketch -->
    <desc>Created with Sketch.</desc>
    <defs></defs>
    <g id="Page-1" stroke="none" stroke-width="1" fill="none" fill-rule="evenodd">
        <g id="shopping-shoes-woman">
            <path d="M84,40 C83.9984701,23.6646106 74.0640168,8.97150733 58.9050828,2.88449909 C43.7461489,-3.20250915 26.4090288,0.539804837 15.1106656,12.3377681 C3.81230241,24.1357314 0.823181775,41.6184602 7.56,56.5 L80.44,56.5 C82.7912625,51.3173067 84.0051574,45.6911087 84,40 Z" id="Shape" fill="#E8F4FA" fill-rule="nonzero"></path>
            <path d="M5,56.5 L83,56.5" id="Shape" stroke="#45413C" stroke-linecap="round" stroke-linejoin="round"></path>
            <path d="M0.5,56.5 L3,56.5" id="Shape" stroke="#45413C" stroke-linecap="round" stroke-linejoin="round"></path>
            <path d="M85,56.5 L87.5,56.5" id="Shape" stroke="#45413C" stroke-linecap="round" stroke-linejoin="round"></path>
            <path d="M12.81,42.39 L9.94,50.15" id="Shape" stroke="#45413C" fill="#FFCEBF" fill-rule="nonzero" stroke-linecap="round" stroke-linejoin="round"></path>
            <ellipse id="Oval" fill="#020202" fill-rule="nonzero" opacity="0.15" cx="26.41" cy="70.27" rx="17.54" ry="1.72"></ellipse>
            <g id="Group" transform="translate(42.000000, 8.000000)" stroke="#45413C" stroke-linecap="round" stroke-linejoin="round">
                <path d="M9.5,36.05 L9.5,37.05 C9.5,38.1545695 10.3954305,39.05 11.5,39.05 L20.5,39.05 L20.5,38 C20.5,36.8954305 19.6045695,36 18.5,36 L17,36 L15.43,34 C15.3334998,33.8739108 15.183779,33.7999597 15.025,33.7999597 C14.866221,33.7999597 14.7165002,33.8739108 14.62,34 L14,35 C12.9507202,35.3605246 11.8157472,35.3884624 10.75,35.08 C10.450235,35.0026005 10.1315243,35.0684105 9.88693334,35.2582131 C9.64234237,35.4480157 9.49945679,35.7404044 9.5,36.05 Z" id="Shape" fill="#FF87AF" fill-rule="nonzero"></path>
                <path d="M46,13.5 L1.25,13.5 C0.559644063,13.5 7.10542736e-15,12.9403559 7.10542736e-15,12.25 C7.10542736e-15,11.5596441 0.559644063,11 1.25,11 L46,11 L46,13.5 Z" id="Shape" fill="#FFFFFF" fill-rule="nonzero"></path>
                <path d="M46,27.5 L1.25,27.5 C0.559644063,27.5 7.10542736e-15,26.9403559 7.10542736e-15,26.25 C7.10542736e-15,25.5596441 0.559644063,25 1.25,25 L46,25 L46,27.5 Z" id="Shape" fill="#FFFFFF" fill-rule="nonzero"></path>
                <path d="M46,41.5 L1.25,41.5 C0.559644063,41.5 7.10542736e-15,40.9403559 7.10542736e-15,40.25 C7.10542736e-15,39.5596441 0.559644063,39 1.25,39 L46,39 L46,41.5 Z" id="Shape" fill="#FFFFFF" fill-rule="nonzero"></path>
                <path d="M22,6.5 L29,6.5 C29.2761424,6.5 29.5,6.72385763 29.5,7 L29.5,10 C29.5,10.5522847 29.0522847,11 28.5,11 L22.5,11 C21.9477153,11 21.5,10.5522847 21.5,10 L21.5,7 C21.5,6.72385763 21.7238576,6.5 22,6.5 Z" id="Shape" fill="#9F5AE5" fill-rule="nonzero"></path>
                <path d="M29.5,7 C29.5,8.1045695 28.6045695,9 27.5,9 L23.5,9 C22.3954305,9 21.5,8.1045695 21.5,7 C21.5,6.72385763 21.7238576,6.5 22,6.5 L29,6.5 C29.2761424,6.5 29.5,6.72385763 29.5,7 Z" id="Shape" fill="#BF8DF2" fill-rule="nonzero"></path>
                <path d="M11,22 L12.5,22 C14.5,23 15,23.5 15,25 L11.91,25 C9,25 9,22.5 6.5,22.5 C5.11928813,22.5 4,21.3807119 4,20 L4.33,18.68 C4.36949362,18.5252805 4.48051079,18.39873 4.62877045,18.3394261 C4.77703011,18.2801223 4.94469805,18.2951987 5.08,18.38 C6.12,19.06 8.43,20.53 11,22 Z" id="Shape" fill="#FF6242" fill-rule="nonzero"></path>
                <path d="M5.5,22.29 L5.5,25" id="Shape"></path>
                <path d="M25.5,22 L27,22 C29,23 29.5,23.5 29.5,25 L26.41,25 C23.5,25 23.5,22.5 21,22.5 C19.6192881,22.5 18.5,21.3807119 18.5,20 L18.83,18.68 C18.8694936,18.5252805 18.9805108,18.39873 19.1287704,18.3394261 C19.2770301,18.2801223 19.4446981,18.2951987 19.58,18.38 C20.62,19.06 22.93,20.53 25.5,22 Z" id="Shape" fill="#656769" fill-rule="nonzero"></path>
                <path d="M20,22.29 L20,25" id="Shape"></path>
                <path d="M40,22 L41.5,22 C43.5,23 44,23.5 44,25 L40.91,25 C38,25 38,22.5 35.5,22.5 C34.1192881,22.5 33,21.3807119 33,20 L33.33,18.68 C33.3694936,18.5252805 33.4805108,18.39873 33.6287704,18.3394261 C33.7770301,18.2801223 33.9446981,18.2951987 34.08,18.38 C35.12,19.06 37.43,20.53 40,22 Z" id="Shape" fill="#FF8A14" fill-rule="nonzero"></path>
                <path d="M34.5,22.29 L34.5,25" id="Shape"></path>
                <path d="M16.7,8.41 C16.8872819,9.01660072 16.7754448,9.67609052 16.3986485,10.1870342 C16.0218522,10.6979779 15.4248534,10.9996843 14.79,11 L8.71,11 C8.07514661,10.9996843 7.47814782,10.6979779 7.1013515,10.1870342 C6.72455519,9.67609052 6.61271815,9.01660072 6.8,8.41 L8,4.5 L15.5,4.5 L16.7,8.41 Z" id="Shape" fill="#FFAA54" fill-rule="nonzero"></path>
                <path d="M8,4.5 L8,3.75 C8,1.67893219 9.67893219,0 11.75,0 C13.8210678,0 15.5,1.67893219 15.5,3.75 L15.5,4.5" id="Shape"></path>
                <path d="M13,7.25 C13,7.94035594 12.4403559,8.5 11.75,8.5 C11.0596441,8.5 10.5,7.94035594 10.5,7.25 L10.5,4.5 L13,4.5 L13,7.25 Z" id="Shape" fill="#FF8A14" fill-rule="nonzero"></path>
                <path d="M20.5,39 L20.5,38 C20.5,36.8954305 19.6045695,36 18.5,36 L17,36 L17,39 L20.5,39 Z" id="Shape" fill="#FFFFFF" fill-rule="nonzero"></path>
                <path d="M10,36.5 L9.5,36.5 L9.5,37 C9.5,38.1045695 10.3954305,39 11.5,39 L12,39 L12,38.5 C12,37.3954305 11.1045695,36.5 10,36.5 Z" id="Shape" fill="#FFFFFF" fill-rule="nonzero"></path>
                <path d="M27.5,36.5 L39,36.5 C39.5522847,36.5 40,36.9477153 40,37.5 L40,39 L27.5,39 L27.5,36.5 Z" id="Shape" fill="#FFCC99" fill-rule="nonzero"></path>
                <path d="M27.5,34 L38,34 C38.5522847,34 39,34.4477153 39,35 L39,36.5 L27.5,36.5 C26.9477153,36.5 26.5,36.0522847 26.5,35.5 L26.5,35 C26.5,34.4477153 26.9477153,34 27.5,34 Z" id="Shape" fill="#FFB0CA" fill-rule="nonzero"></path>
            </g>
            <path d="M46.16,35.64 C45.9120493,35.5403601 45.6472215,35.4894316 45.38,35.49 C44.5689519,35.489989 43.8381983,35.9797915 43.53,36.73 L41.83,40.8 C41.4267672,41.7633891 40.4843731,42.3903375 39.44,42.39 L39.06,42.39 C37.6295825,42.39 36.47,41.2304175 36.47,39.8 L36.47,38.08 C36.4699999,32.3638529 31.8361471,27.7300002 26.12,27.7300002 C20.4038529,27.7300002 15.7700001,32.3638529 15.77,38.08 L15.77,39.8 C15.7700106,41.2265213 14.6165107,42.3844922 13.19,42.39 L12.8,42.39 C11.7572386,42.3850263 10.8175087,41.7598504 10.41,40.8 L8.72,36.73 C8.41042526,35.9764118 7.67468705,35.4859197 6.86,35.49 C6.59611863,35.4904635 6.33475951,35.5413776 6.09,35.64 C5.59436709,35.8413815 5.20007516,36.2329371 4.99524697,36.7271556 C4.79041878,37.2213741 4.79213065,37.7770529 5,38.27 L6.7,42.34 C7.72103695,44.8071702 10.1299015,46.4143962 12.8,46.41 L13.22,46.41 C16.6335752,46.409074 19.4849803,43.8090086 19.8,40.41 L19.8,45 L32.45,45 L32.45,40.4 C32.7650197,43.7990086 35.6164248,46.399074 39.03,46.4 L39.44,46.4 C42.1137362,46.4084555 44.527578,44.8005445 45.55,42.33 L47.24,38.26 C47.4452821,37.7694537 47.4467566,37.2173512 47.2440976,36.7257155 C47.0414386,36.2340798 46.651333,35.843392 46.16,35.64 Z" id="Shape" fill="#FFDA8F" fill-rule="nonzero"></path>
            <path d="M26.12,27.73 C20.4038528,27.73 15.77,32.3638528 15.77,38.08 L15.77,39.8 C16.1100099,34.3333404 20.6427768,30.0737391 26.12,30.0737391 C31.5972232,30.0737391 36.1299901,34.3333404 36.47,39.8 L36.47,38.08 C36.47,32.3638528 31.8361472,27.73 26.12,27.73 Z" id="Shape" fill="#FFE9BD" fill-rule="nonzero"></path>
            <path d="M32.45,45 L32.45,40.4 C32.7650197,43.7990086 35.6164248,46.399074 39.03,46.4 L39.44,46.4 C42.1137362,46.4084555 44.527578,44.8005445 45.55,42.33 L47.24,38.26 C47.448435,37.7683132 47.4515696,37.2136874 47.2487057,36.719676 C47.0458417,36.2256646 46.6538304,35.833304 46.16,35.63 C45.9120493,35.5303601 45.6472215,35.4794316 45.38,35.48 C44.5689519,35.479989 43.8381983,35.9697915 43.53,36.72 L41.83,40.79 C41.4267672,41.7533891 40.4843731,42.3803375 39.44,42.38 L39.06,42.38 C37.6295825,42.38 36.47,41.2204175 36.47,39.79 L36.47,38.08 C36.47,32.3638528 31.8361472,27.73 26.12,27.73 C20.4038528,27.73 15.77,32.3638528 15.77,38.08 L15.77,39.8 C15.7700106,41.2265213 14.6165107,42.3844922 13.19,42.39 L12.8,42.39 C11.7572386,42.3850263 10.8175087,41.7598504 10.41,40.8 L8.72,36.73 C8.41042526,35.9764118 7.67468705,35.4859197 6.86,35.49 C6.59611863,35.4904635 6.33475951,35.5413776 6.09,35.64 C5.59436709,35.8413815 5.20007516,36.2329371 4.99524697,36.7271556 C4.79041878,37.2213741 4.79213065,37.7770529 5,38.27 L6.7,42.34 C7.72103695,44.8071702 10.1299015,46.4143962 12.8,46.41 L13.22,46.41 C16.6335752,46.409074 19.4849803,43.8090086 19.8,40.41 L19.8,45 L32.45,45 Z" id="Shape" stroke="#45413C" stroke-linecap="round" stroke-linejoin="round"></path>
            <path d="M32.45,69.12 L32.4500443,45 L19.7999995,45 L19.8,69.12 C19.7997032,69.433863 19.9277028,69.7342103 20.1543083,69.9513739 C20.3809138,70.1685375 20.6864337,70.2836464 21,70.27 L31.3,70.27 C31.6058171,70.2726946 31.8998923,70.1523997 32.116146,69.936146 C32.3323997,69.7198923 32.4526946,69.4258171 32.45,69.12 Z" id="Shape" fill="#656769" fill-rule="nonzero"></path>
            <polygon id="Shape" fill="#525252" fill-rule="nonzero" points="32.45 47.85 32.45 44.98 19.8 44.98 19.8 47.85"></polygon>
            <path d="M32.45,69.12 L32.4500443,45 L19.7999995,45 L19.8,69.12 C19.7997032,69.433863 19.9277028,69.7342103 20.1543083,69.9513739 C20.3809138,70.1685375 20.6864337,70.2836464 21,70.27 L31.3,70.27 C31.6058171,70.2726946 31.8998923,70.1523997 32.116146,69.936146 C32.3323997,69.7198923 32.4526946,69.4258171 32.45,69.12 Z" id="Shape" stroke="#45413C" stroke-linecap="round" stroke-linejoin="round"></path>
            <path d="M26.13,53.6 L26.13,70.27" id="Shape" stroke="#45413C" stroke-linecap="round" stroke-linejoin="round"></path>
            <path d="M26.13,70.27 C26.1245076,68.3668973 24.5831027,66.8254924 22.68,66.82 L22.1,66.82 C20.8488955,66.8267237 19.7000843,67.512181 19.1,68.61 C18.9199865,68.9611196 18.9343397,69.38036 19.1379457,69.718346 C19.3415517,70.0563319 19.7054561,70.2649993 20.1,70.27 L26.13,70.27 Z" id="Shape" stroke="#45413C" fill="#FF6242" fill-rule="nonzero" stroke-linecap="round" stroke-linejoin="round"></path>
            <path d="M32.14,70.27 C32.5345439,70.2649993 32.8984483,70.0563319 33.1020543,69.718346 C33.3056603,69.38036 33.3200135,68.9611196 33.14,68.61 C32.5399157,67.512181 31.3911045,66.8267237 30.14,66.82 L29.57,66.82 C27.6646176,66.82 26.12,68.3646176 26.12,70.27 L32.14,70.27 Z" id="Shape" stroke="#45413C" fill="#FF6242" fill-rule="nonzero" stroke-linecap="round" stroke-linejoin="round"></path>
            <path d="M31.87,33.48 L31.87,29.48 C31.1432335,28.9915539 30.3568168,28.5983456 29.53,28.31 C29.18,30.03 28.05,33.08 26.12,34.06 C24.2,33.06 23.12,30.06 22.71,28.31 C21.8840679,28.6004366 21.0979085,28.9935163 20.37,29.48 L20.37,33.48 C18.92,36.36 18.11,37.26 19.21,38.81 C19.4912988,39.2975007 19.6906184,39.8278935 19.8,40.38 L19.8,45 L32.45,45 L32.45,40.4 C32.5489759,39.844478 32.7345696,39.3079434 33,38.81 C34.14,37.26 33.32,36.36 31.87,33.48 Z" id="Shape" fill="#E8F4FA" fill-rule="nonzero"></path>
            <path d="M23.35,30.4 C23.0839781,29.7171536 22.8700334,29.0151476 22.71,28.3 C21.8840679,28.5904366 21.0979085,28.9835163 20.37,29.47 L20.37,31.77 C21.2842024,31.1578459 22.2901637,30.6953738 23.35,30.4 Z" id="Shape" fill="#FFFFFF" fill-rule="nonzero"></path>
            <path d="M31.87,31.77 L31.87,29.47 C31.1432335,28.9815539 30.3568168,28.5883456 29.53,28.3 C29.379276,29.0175714 29.1651007,29.7203338 28.89,30.4 C29.9512804,30.6914226 30.9578565,31.1541774 31.87,31.77 Z" id="Shape" fill="#FFFFFF" fill-rule="nonzero"></path>
            <path d="M31.87,33.48 L31.87,29.48 C31.1432335,28.9915539 30.3568168,28.5983456 29.53,28.31 C29.18,30.03 28.05,33.08 26.12,34.06 C24.2,33.06 23.12,30.06 22.71,28.31 C21.8840679,28.6004366 21.0979085,28.9935163 20.37,29.48 L20.37,33.48 C18.92,36.36 18.11,37.26 19.21,38.81 C19.4912988,39.2975007 19.6906184,39.8278935 19.8,40.38 L19.8,45 L32.45,45 L32.45,40.4 C32.5489759,39.844478 32.7345696,39.3079434 33,38.81 C34.14,37.26 33.32,36.36 31.87,33.48 Z" id="Shape" stroke="#45413C" stroke-linecap="round" stroke-linejoin="round"></path>
            <path d="M12.81,42.39 L15.68,50.15" id="Shape" stroke="#45413C" fill="#FFCEBF" fill-rule="nonzero" stroke-linecap="round" stroke-linejoin="round"></path>
            <path d="M8.8,50.15 L17,50.15 C17.2761424,50.15 17.5,50.3738576 17.5,50.65 L17.5,54.33 C17.5,54.8822847 17.0522847,55.33 16.5,55.33 L9.3,55.33 C8.74771525,55.33 8.3,54.8822847 8.3,54.33 L8.3,50.65 C8.3,50.3738576 8.52385763,50.15 8.8,50.15 Z" id="Shape" stroke="#45413C" fill="#9F5AE5" fill-rule="nonzero" stroke-linecap="round" stroke-linejoin="round"></path>
            <path d="M17.5,50.73 C17.4835831,51.9885238 16.4586308,53.0001071 15.2,53 L10.6,53 C9.32974508,53 8.3,51.9702549 8.3,50.7 C8.3,50.3796748 8.55967485,50.12 8.88,50.12 L16.88,50.12 C17.1964132,50.1254562 17.450047,50.3835398 17.45,50.7 L17.5,50.73 Z" id="Shape" stroke="#45413C" fill="#BF8DF2" fill-rule="nonzero" stroke-linecap="round" stroke-linejoin="round"></path>
            <path d="M18.07,18.53 C18.072793,17.8537397 18.5553296,17.2746958 19.22,17.15 L19.22,16.23 C19.22,12.4192352 22.3092352,9.33 26.12,9.33 C29.9307648,9.33 33.02,12.4192352 33.02,16.23 L33.02,17.15 C33.7262085,17.2644845 34.2324813,17.8929998 34.1939352,18.6073886 C34.155389,19.3217773 33.5844269,19.8921685 32.87,19.93 C32.2034702,23.1297428 29.3834271,25.4228842 26.115,25.4228842 C22.8465729,25.4228842 20.0265298,23.1297428 19.36,19.93 C18.6323156,19.8678483 18.0725303,19.2603294 18.07,18.53 Z" id="Shape" stroke="#45413C" fill="#FFDA8F" fill-rule="nonzero" stroke-linecap="round" stroke-linejoin="round"></path>
            <circle id="Oval" fill="#FFBE3D" fill-rule="nonzero" cx="29.86" cy="19.39" r="1"></circle>
            <path d="M34.17,18.53 C34.1674697,19.2603294 33.6076844,19.8678483 32.88,19.93 C32.431217,22.0787446 30.9923188,23.8884929 29,24.81 C29.5556546,25.8802142 29.7251871,27.1093249 29.48,28.29 C31.5643736,29.0050644 33.3677453,30.3637211 34.63,32.17 C35.1220504,31.1373011 35.3652194,30.0036541 35.34,28.86 L35.34,16.23 C35.3574963,13.4031366 34.0559341,10.7297576 31.82,9 C29.5364751,7.19864361 26.4150108,6.88649719 23.82,8.2 C23.0981095,7.45204941 22.1092945,7.02056651 21.07,7 C18.7919246,7.00537091 16.9418983,8.84202356 16.92,11.12 L16.92,28.86 C16.92,32.86 18.92,34.24 22.17,36.03 C22.4567112,36.1927016 22.7994595,36.2245374 23.111232,36.1174254 C23.4230046,36.0103134 23.6738185,35.7745543 23.8,35.47 C26.2,29.47 20.93,30.3 23.26,24.81 C21.2599898,23.8934472 19.8130186,22.0828781 19.36,19.93 C18.6467091,19.8884234 18.079174,19.3163839 18.0432375,18.6027866 C18.0073009,17.8891893 18.5144949,17.2630268 19.22,17.15 C20.658905,16.2171519 21.5339703,14.6247584 21.55,12.91 C21.5112189,12.2770409 21.7366427,11.6563389 22.1725629,11.1957797 C22.6084831,10.7352206 23.2158663,10.4760439 23.85,10.48 C24.5730885,10.4810959 25.2192184,10.9317915 25.47,11.61 C25.5618201,11.9331346 25.8097497,12.1885772 26.13,12.29 C28.24,12.95 30.91,16.87 33.04,17.15 C33.6946141,17.2865495 34.1652534,17.8613125 34.17,18.53 Z" id="Shape" fill="#BD704A" fill-rule="nonzero"></path>
            <circle id="Oval" fill="#FFBE3D" fill-rule="nonzero" cx="22.38" cy="19.39" r="1"></circle>
            <path d="M27.84,21.45 C26.7962265,22.1490293 25.4337735,22.1490293 24.39,21.45" id="Shape" stroke="#45413C" stroke-linecap="round" stroke-linejoin="round"></path>
            <path d="M21.07,9.33 C22.1125181,9.32943218 23.1125446,9.7431122 23.8500001,10.48 C26.4450109,9.16649719 29.5664752,9.47864361 31.8500001,11.28 C34.0592727,13.0029157 35.3506213,15.6483357 35.3501299,18.45 L35.3500001,16.23 C35.3651085,13.4014039 34.0596923,10.7277045 31.8200001,9 C29.5364752,7.19864361 26.4150109,6.88649719 23.8200001,8.2 C23.0981095,7.45204941 22.1092945,7.02056651 21.07,7 C18.7919247,7.00537091 16.9418983,8.84202356 16.92,11.12 L16.92,13.42 C16.9581334,11.1537644 18.8034495,9.33512765 21.07,9.33 Z" id="Shape" fill="#D18660" fill-rule="nonzero"></path>
            <path d="M29.23,17.38 C28.8437017,17.0117458 28.2362983,17.0117458 27.85,17.38" id="Shape" stroke="#45413C" stroke-linecap="round" stroke-linejoin="round"></path>
            <path d="M24.4,17.38 C24.0124034,17.0053463 23.3975966,17.0053463 23.01,17.38" id="Shape" stroke="#45413C" stroke-linecap="round" stroke-linejoin="round"></path>
            <path d="M34.17,18.53 C34.1674697,19.2603294 33.6076844,19.8678483 32.88,19.93 C32.431217,22.0787446 30.9923188,23.8884929 29,24.81 C29.5556546,25.8802142 29.7251871,27.1093249 29.48,28.29 C31.5643736,29.0050644 33.3677453,30.3637211 34.63,32.17 C35.1220504,31.1373011 35.3652194,30.0036541 35.34,28.86 L35.34,16.23 C35.3574963,13.4031366 34.0559341,10.7297576 31.82,9 C29.5364751,7.19864361 26.4150108,6.88649719 23.82,8.2 C23.0981095,7.45204941 22.1092945,7.02056651 21.07,7 C18.7919246,7.00537091 16.9418983,8.84202356 16.92,11.12 L16.92,28.86 C16.92,32.86 18.92,34.24 22.17,36.03 C22.4567112,36.1927016 22.7994595,36.2245374 23.111232,36.1174254 C23.4230046,36.0103134 23.6738185,35.7745543 23.8,35.47 C26.2,29.47 20.93,30.3 23.26,24.81 C21.2599898,23.8934472 19.8130186,22.0828781 19.36,19.93 C18.6467091,19.8884234 18.079174,19.3163839 18.0432375,18.6027866 C18.0073009,17.8891893 18.5144949,17.2630268 19.22,17.15 C20.658905,16.2171519 21.5339703,14.6247584 21.55,12.91 C21.5112189,12.2770409 21.7366427,11.6563389 22.1725629,11.1957797 C22.6084831,10.7352206 23.2158663,10.4760439 23.85,10.48 C24.5730885,10.4810959 25.2192184,10.9317915 25.47,11.61 C25.5618201,11.9331346 25.8097497,12.1885772 26.13,12.29 C28.24,12.95 30.91,16.87 33.04,17.15 C33.6946141,17.2865495 34.1652534,17.8613125 34.17,18.53 Z" id="Shape" stroke="#45413C" stroke-linecap="round" stroke-linejoin="round"></path>
            <path d="M40.55,62.43 L38.34,62.43 C38.02703,62.4274884 37.7283551,62.2986155 37.5118025,62.0726476 C37.2952499,61.8466797 37.1791975,61.5427936 37.19,61.23 L37.67,49.73 C37.6967868,49.1144795 38.2038972,48.6294174 38.82,48.63 L40.07,48.63 C40.6843088,48.6296217 41.1884454,49.1160694 41.21,49.73 L41.69,61.23 C41.7035804,61.5418376 41.5898199,61.8458 41.3748383,62.0720964 C41.1598568,62.2983928 40.8621238,62.4275814 40.55,62.43 Z" id="Shape" stroke="#45413C" fill="#F7E5C6" fill-rule="nonzero" stroke-linecap="round" stroke-linejoin="round"></path>
            <path d="M39.44,48.63 L39.44,41.15" id="Shape" stroke="#45413C" stroke-linecap="round" stroke-linejoin="round"></path>
            <path d="M35.31,62.21 L33.15,61.8 C32.8416035,61.742619 32.5700312,61.5617484 32.3982124,61.2992998 C32.2263935,61.0368512 32.1692416,60.7156047 32.24,60.41 L34.84,49.2 C34.9794386,48.5964225 35.5719153,48.2117548 36.18,48.33 L37.4,48.56 C38.0072631,48.6669688 38.4166572,49.2410106 38.32,49.85 L36.66,61.24 C36.6162048,61.5508613 36.4472293,61.830306 36.1922844,62.0134886 C35.9373395,62.1966713 35.6185893,62.2676666 35.31,62.21 Z" id="Shape" stroke="#45413C" fill="#FFE500" fill-rule="nonzero" stroke-linecap="round" stroke-linejoin="round"></path>
            <path d="M36.79,48.44 L38.17,41.1" id="Shape" stroke="#45413C" stroke-linecap="round" stroke-linejoin="round"></path>
            <path d="M43.58,62.21 L45.74,61.8 C46.0483965,61.742619 46.3199688,61.5617484 46.4917876,61.2992998 C46.6636065,61.0368512 46.7207584,60.7156047 46.65,60.41 L44,49.2 C43.8651913,48.5978384 43.2757284,48.2122498 42.67,48.33 L41.45,48.56 C40.8447305,48.6718285 40.434824,49.2404084 40.52,49.85 L42.19,61.24 C42.2327207,61.559389 42.4074821,61.8462027 42.6717337,62.0306085 C42.9359852,62.2150142 43.2654824,62.2800932 43.58,62.21 Z" id="Shape" stroke="#45413C" fill="#00B8F0" fill-rule="nonzero" stroke-linecap="round" stroke-linejoin="round"></path>
            <path d="M42.1,48.44 L40.71,41.1" id="Shape" stroke="#45413C" stroke-linecap="round" stroke-linejoin="round"></path>
        </g>
    </g>
</svg>
