<svg width="88px" height="76px" viewBox="0 0 88 76" version="1.1" xmlns="http://www.w3.org/2000/svg" xmlns:xlink="http://www.w3.org/1999/xlink">
    <!-- Generator: Sketch 48.2 (47327) - http://www.bohemiancoding.com/sketch -->
    <desc>Created with Sketch.</desc>
    <defs></defs>
    <g id="Page-1" stroke="none" stroke-width="1" fill="none" fill-rule="evenodd">
        <g id="programmer-male">
            <path d="M84.5,40 C84.4984701,23.6646106 74.5640168,8.97150733 59.4050828,2.88449909 C44.2461489,-3.20250915 26.9090288,0.539804837 15.6106656,12.3377681 C4.31230241,24.1357314 1.32318178,41.6184602 8.06,56.5 L80.94,56.5 C83.2912625,51.3173067 84.5051574,45.6911087 84.5,40 Z" id="Shape" fill="#E8F4FA" fill-rule="nonzero"></path>
            <path d="M5,56.5 L83,56.5" id="Shape" stroke="#45413C" stroke-linecap="round" stroke-linejoin="round"></path>
            <path d="M0.5,56.5 L3,56.5" id="Shape" stroke="#45413C" stroke-linecap="round" stroke-linejoin="round"></path>
            <path d="M85,56.5 L87.5,56.5" id="Shape" stroke="#45413C" stroke-linecap="round" stroke-linejoin="round"></path>
            <rect id="Rectangle-path" stroke="#45413C" fill="#BDBEC0" fill-rule="nonzero" stroke-linecap="round" stroke-linejoin="round" x="59.17" y="19.5" width="17.5" height="34"></rect>
            <rect id="Rectangle-path" stroke="#45413C" fill="#C0DCEB" fill-rule="nonzero" stroke-linecap="round" stroke-linejoin="round" x="59.17" y="17.5" width="17.5" height="2"></rect>
            <path d="M57.17,56.5 L59.17,56.5 L59.17,17.5 C59.17,16.9477153 58.7222847,16.5 58.17,16.5 C57.6177153,16.5 57.17,16.9477153 57.17,17.5 L57.17,56.5 Z" id="Shape" stroke="#45413C" fill="#C0DCEB" fill-rule="nonzero" stroke-linecap="round" stroke-linejoin="round"></path>
            <path d="M76.67,56.5 L78.67,56.5 L78.67,17.5 C78.67,16.9477153 78.2222847,16.5 77.67,16.5 C77.1177153,16.5 76.67,16.9477153 76.67,17.5 L76.67,56.5 Z" id="Shape" stroke="#45413C" fill="#C0DCEB" fill-rule="nonzero" stroke-linecap="round" stroke-linejoin="round"></path>
            <rect id="Rectangle-path" stroke="#45413C" fill="#BDBEC0" fill-rule="nonzero" stroke-linecap="round" stroke-linejoin="round" x="37.67" y="19.5" width="17.5" height="34"></rect>
            <path d="M40.67,21.5 L52.17,21.5 C52.7222847,21.5 53.17,21.9477153 53.17,22.5 L53.17,24.5 L39.67,24.5 L39.67,22.5 C39.67,21.9477153 40.1177153,21.5 40.67,21.5 Z" id="Shape" stroke="#45413C" fill="#8CA4B8" fill-rule="nonzero" stroke-linecap="round" stroke-linejoin="round"></path>
            <path d="M47.17,21.5 L44.17,24.5 L53.17,24.5 L53.17,22.5 C53.17,21.9477153 52.7222847,21.5 52.17,21.5 L47.17,21.5 Z" id="Shape" stroke="#45413C" fill="#E8F4FA" fill-rule="nonzero" stroke-linecap="round" stroke-linejoin="round"></path>
            <path d="M40.67,37.5 L52.17,37.5 C52.7222847,37.5 53.17,37.9477153 53.17,38.5 L53.17,40.5 L39.67,40.5 L39.67,38.5 C39.67,37.9477153 40.1177153,37.5 40.67,37.5 Z" id="Shape" stroke="#45413C" fill="#8CA4B8" fill-rule="nonzero" stroke-linecap="round" stroke-linejoin="round"></path>
            <path d="M47.17,37.5 L44.17,40.5 L53.17,40.5 L53.17,38.5 C53.17,37.9477153 52.7222847,37.5 52.17,37.5 L47.17,37.5 Z" id="Shape" stroke="#45413C" fill="#E8F4FA" fill-rule="nonzero" stroke-linecap="round" stroke-linejoin="round"></path>
            <path d="M39.67,24.5 L53.17,24.5 L53.17,26.5 C53.17,27.0522847 52.7222847,27.5 52.17,27.5 L40.67,27.5 C40.1177153,27.5 39.67,27.0522847 39.67,26.5 L39.67,24.5 Z" id="Shape" stroke="#45413C" fill="#8CA4B8" fill-rule="nonzero" stroke-linecap="round" stroke-linejoin="round"></path>
            <path d="M47.17,24.5 L44.17,27.5 L52.17,27.5 C52.7222847,27.5 53.17,27.0522847 53.17,26.5 L53.17,24.5 L47.17,24.5 Z" id="Shape" stroke="#45413C" fill="#E8F4FA" fill-rule="nonzero" stroke-linecap="round" stroke-linejoin="round"></path>
            <path d="M62.17,21.5 L73.67,21.5 C74.2222847,21.5 74.67,21.9477153 74.67,22.5 L74.67,24.5 L61.17,24.5 L61.17,22.5 C61.17,21.9477153 61.6177153,21.5 62.17,21.5 Z" id="Shape" stroke="#45413C" fill="#8CA4B8" fill-rule="nonzero" stroke-linecap="round" stroke-linejoin="round"></path>
            <path d="M68.67,21.5 L65.67,24.5 L74.67,24.5 L74.67,22.5 C74.67,21.9477153 74.2222847,21.5 73.67,21.5 L68.67,21.5 Z" id="Shape" stroke="#45413C" fill="#E8F4FA" fill-rule="nonzero" stroke-linecap="round" stroke-linejoin="round"></path>
            <path d="M61.17,24.5 L74.67,24.5 L74.67,26.5 C74.67,27.0522847 74.2222847,27.5 73.67,27.5 L62.17,27.5 C61.6177153,27.5 61.17,27.0522847 61.17,26.5 L61.17,24.5 Z" id="Shape" stroke="#45413C" fill="#8CA4B8" fill-rule="nonzero" stroke-linecap="round" stroke-linejoin="round"></path>
            <path d="M68.67,24.5 L65.67,27.5 L73.67,27.5 C74.2222847,27.5 74.67,27.0522847 74.67,26.5 L74.67,24.5 L68.67,24.5 Z" id="Shape" stroke="#45413C" fill="#E8F4FA" fill-rule="nonzero" stroke-linecap="round" stroke-linejoin="round"></path>
            <path d="M62.17,29.5 L73.67,29.5 C74.2222847,29.5 74.67,29.9477153 74.67,30.5 L74.67,32.5 L61.17,32.5 L61.17,30.5 C61.17,29.9477153 61.6177153,29.5 62.17,29.5 Z" id="Shape" stroke="#45413C" fill="#8CA4B8" fill-rule="nonzero" stroke-linecap="round" stroke-linejoin="round"></path>
            <path d="M68.67,29.5 L65.67,32.5 L74.67,32.5 L74.67,30.5 C74.67,29.9477153 74.2222847,29.5 73.67,29.5 L68.67,29.5 Z" id="Shape" stroke="#45413C" fill="#E8F4FA" fill-rule="nonzero" stroke-linecap="round" stroke-linejoin="round"></path>
            <path d="M61.17,32.5 L74.67,32.5 L74.67,34.5 C74.67,35.0522847 74.2222847,35.5 73.67,35.5 L62.17,35.5 C61.6177153,35.5 61.17,35.0522847 61.17,34.5 L61.17,32.5 Z" id="Shape" stroke="#45413C" fill="#8CA4B8" fill-rule="nonzero" stroke-linecap="round" stroke-linejoin="round"></path>
            <path d="M68.67,32.5 L65.67,35.5 L73.67,35.5 C74.2222847,35.5 74.67,35.0522847 74.67,34.5 L74.67,32.5 L68.67,32.5 Z" id="Shape" stroke="#45413C" fill="#E8F4FA" fill-rule="nonzero" stroke-linecap="round" stroke-linejoin="round"></path>
            <path d="M40.67,45.5 L52.17,45.5 C52.7222847,45.5 53.17,45.9477153 53.17,46.5 L53.17,48.5 L39.67,48.5 L39.67,46.5 C39.67,45.9477153 40.1177153,45.5 40.67,45.5 Z" id="Shape" stroke="#45413C" fill="#8CA4B8" fill-rule="nonzero" stroke-linecap="round" stroke-linejoin="round"></path>
            <path d="M47.17,45.5 L44.17,48.5 L53.17,48.5 L53.17,46.5 C53.17,45.9477153 52.7222847,45.5 52.17,45.5 L47.17,45.5 Z" id="Shape" stroke="#45413C" fill="#E8F4FA" fill-rule="nonzero" stroke-linecap="round" stroke-linejoin="round"></path>
            <path d="M39.67,48.5 L53.17,48.5 L53.17,50.5 C53.17,51.0522847 52.7222847,51.5 52.17,51.5 L40.67,51.5 C40.1177153,51.5 39.67,51.0522847 39.67,50.5 L39.67,48.5 Z" id="Shape" stroke="#45413C" fill="#8CA4B8" fill-rule="nonzero" stroke-linecap="round" stroke-linejoin="round"></path>
            <path d="M47.17,48.5 L44.17,51.5 L52.17,51.5 C52.7222847,51.5 53.17,51.0522847 53.17,50.5 L53.17,48.5 L47.17,48.5 Z" id="Shape" stroke="#45413C" fill="#E8F4FA" fill-rule="nonzero" stroke-linecap="round" stroke-linejoin="round"></path>
            <path d="M40.67,29.5 L52.17,29.5 C52.7222847,29.5 53.17,29.9477153 53.17,30.5 L53.17,32.5 L39.67,32.5 L39.67,30.5 C39.67,29.9477153 40.1177153,29.5 40.67,29.5 Z" id="Shape" stroke="#45413C" fill="#00DBA8" fill-rule="nonzero" stroke-linecap="round" stroke-linejoin="round"></path>
            <path d="M47.17,29.5 L44.17,32.5 L53.17,32.5 L53.17,30.5 C53.17,29.9477153 52.7222847,29.5 52.17,29.5 L47.17,29.5 Z" id="Shape" stroke="#45413C" fill="#E8F4FA" fill-rule="nonzero" stroke-linecap="round" stroke-linejoin="round"></path>
            <path d="M39.67,32.5 L53.17,32.5 L53.17,34.5 C53.17,35.0522847 52.7222847,35.5 52.17,35.5 L40.67,35.5 C40.1177153,35.5 39.67,35.0522847 39.67,34.5 L39.67,32.5 Z" id="Shape" stroke="#45413C" fill="#00DBA8" fill-rule="nonzero" stroke-linecap="round" stroke-linejoin="round"></path>
            <path d="M47.17,32.5 L44.17,35.5 L52.17,35.5 C52.7222847,35.5 53.17,35.0522847 53.17,34.5 L53.17,32.5 L47.17,32.5 Z" id="Shape" stroke="#45413C" fill="#E8F4FA" fill-rule="nonzero" stroke-linecap="round" stroke-linejoin="round"></path>
            <path d="M62.17,37.5 L73.67,37.5 C74.2222847,37.5 74.67,37.9477153 74.67,38.5 L74.67,40.5 L61.17,40.5 L61.17,38.5 C61.17,37.9477153 61.6177153,37.5 62.17,37.5 Z" id="Shape" stroke="#45413C" fill="#00DBA8" fill-rule="nonzero" stroke-linecap="round" stroke-linejoin="round"></path>
            <path d="M68.67,37.5 L65.67,40.5 L74.67,40.5 L74.67,38.5 C74.67,37.9477153 74.2222847,37.5 73.67,37.5 L68.67,37.5 Z" id="Shape" stroke="#45413C" fill="#E8F4FA" fill-rule="nonzero" stroke-linecap="round" stroke-linejoin="round"></path>
            <path d="M61.17,40.5 L74.67,40.5 L74.67,42.5 C74.67,43.0522847 74.2222847,43.5 73.67,43.5 L62.17,43.5 C61.6177153,43.5 61.17,43.0522847 61.17,42.5 L61.17,40.5 Z" id="Shape" stroke="#45413C" fill="#00DBA8" fill-rule="nonzero" stroke-linecap="round" stroke-linejoin="round"></path>
            <path d="M68.67,40.5 L65.67,43.5 L73.67,43.5 C74.2222847,43.5 74.67,43.0522847 74.67,42.5 L74.67,40.5 L68.67,40.5 Z" id="Shape" stroke="#45413C" fill="#E8F4FA" fill-rule="nonzero" stroke-linecap="round" stroke-linejoin="round"></path>
            <path d="M62.17,45.5 L73.67,45.5 C74.2222847,45.5 74.67,45.9477153 74.67,46.5 L74.67,48.5 L61.17,48.5 L61.17,46.5 C61.17,45.9477153 61.6177153,45.5 62.17,45.5 Z" id="Shape" stroke="#45413C" fill="#00DBA8" fill-rule="nonzero" stroke-linecap="round" stroke-linejoin="round"></path>
            <path d="M68.67,45.5 L65.67,48.5 L74.67,48.5 L74.67,46.5 C74.67,45.9477153 74.2222847,45.5 73.67,45.5 L68.67,45.5 Z" id="Shape" stroke="#45413C" fill="#E8F4FA" fill-rule="nonzero" stroke-linecap="round" stroke-linejoin="round"></path>
            <path d="M61.17,48.5 L74.67,48.5 L74.67,50.5 C74.67,51.0522847 74.2222847,51.5 73.67,51.5 L62.17,51.5 C61.6177153,51.5 61.17,51.0522847 61.17,50.5 L61.17,48.5 Z" id="Shape" stroke="#45413C" fill="#00DBA8" fill-rule="nonzero" stroke-linecap="round" stroke-linejoin="round"></path>
            <path d="M68.67,48.5 L65.67,51.5 L73.67,51.5 C74.2222847,51.5 74.67,51.0522847 74.67,50.5 L74.67,48.5 L68.67,48.5 Z" id="Shape" stroke="#45413C" fill="#E8F4FA" fill-rule="nonzero" stroke-linecap="round" stroke-linejoin="round"></path>
            <path d="M39.67,40.5 L53.17,40.5 L53.17,42.5 C53.17,43.0522847 52.7222847,43.5 52.17,43.5 L40.67,43.5 C40.1177153,43.5 39.67,43.0522847 39.67,42.5 L39.67,40.5 Z" id="Shape" stroke="#45413C" fill="#00DBA8" fill-rule="nonzero" stroke-linecap="round" stroke-linejoin="round"></path>
            <path d="M47.17,40.5 L44.17,43.5 L52.17,43.5 C52.7222847,43.5 53.17,43.0522847 53.17,42.5 L53.17,40.5 L47.17,40.5 Z" id="Shape" stroke="#45413C" fill="#E8F4FA" fill-rule="nonzero" stroke-linecap="round" stroke-linejoin="round"></path>
            <rect id="Rectangle-path" stroke="#45413C" fill="#C0DCEB" fill-rule="nonzero" stroke-linecap="round" stroke-linejoin="round" x="37.67" y="17.5" width="17.5" height="2"></rect>
            <path d="M35.67,56.5 L37.67,56.5 L37.67,17.5 C37.67,16.9477153 37.2222847,16.5 36.67,16.5 C36.1177153,16.5 35.67,16.9477153 35.67,17.5 L35.67,56.5 Z" id="Shape" stroke="#45413C" fill="#C0DCEB" fill-rule="nonzero" stroke-linecap="round" stroke-linejoin="round"></path>
            <path d="M55.17,56.5 L57.17,56.5 L57.17,17.5 C57.17,16.9477153 56.7222847,16.5 56.17,16.5 C55.6177153,16.5 55.17,16.9477153 55.17,17.5 L55.17,56.5 Z" id="Shape" stroke="#45413C" fill="#C0DCEB" fill-rule="nonzero" stroke-linecap="round" stroke-linejoin="round"></path>
            <path d="M40.08,44.38 C40.8505986,44.3638247 41.5951049,44.659368 42.1448064,45.1996569 C42.694508,45.7399457 43.0028647,46.479237 43,47.25 L43,68 C43,70.3306416 44.8893584,72.22 47.22,72.22 L51,72.22" id="Shape" stroke="#45413C" stroke-linecap="round" stroke-linejoin="round"></path>
            <path d="M52.15,73.12 L55,73.1200001 L55,70.83 L52.15,70.83 C51.841504,70.8299533 51.5459247,70.9538553 51.3296736,71.1738673 C51.1134226,71.3938792 50.9946348,71.6915506 51,72 C51.0162676,72.6233816 51.5264062,73.1202122 52.15,73.12 Z" id="Shape" stroke="#45413C" fill="#E0E0E0" fill-rule="nonzero" stroke-linecap="round" stroke-linejoin="round"></path>
            <path d="M52.15,53.57 L52.15,60.1 C52.149995,60.809864 52.4326701,61.4905089 52.9355571,61.9915195 C53.4384441,62.49253 54.1201409,62.7726587 54.83,62.77 L57.33,62.77 C58.5517304,62.7699971 59.7232765,63.2560111 60.5862318,64.1208424 C61.4491872,64.9856738 61.9326559,66.1582724 61.93,67.38 C61.93,69.9205098 59.8705098,71.98 57.33,71.98 L55,71.98" id="Shape" stroke="#45413C" stroke-linecap="round" stroke-linejoin="round"></path>
            <path d="M48.7,53.57 L48.7,60 C48.7055087,61.5203992 49.9395908,62.75001 51.46,62.75 L57.33,62.75" id="Shape" stroke="#45413C" stroke-linecap="round" stroke-linejoin="round"></path>
            <path d="M23.4,12.18 C21.5709264,12.1773453 19.8158578,12.9020818 18.5215685,14.1944953 C17.2272793,15.4869088 16.4999981,17.2409245 16.5,19.07 L16.5,20 C15.8353296,20.1246958 15.352793,20.7037397 15.35,21.38 C15.3576952,22.1119904 15.9205843,22.7181787 16.65,22.78 C17.3811518,26.2298549 20.5959872,28.5732061 24.104067,28.213403 C27.6121468,27.8536 30.2843665,24.9064483 30.3,21.38 L30.3,19.07 C30.3000019,17.2409245 29.5727207,15.4869088 28.2784315,14.1944953 C26.9841422,12.9020818 25.2290736,12.1773453 23.4,12.18 Z" id="Shape" stroke="#45413C" fill="#FFCEBF" fill-rule="nonzero" stroke-linecap="round" stroke-linejoin="round"></path>
            <path d="M11.9,41.5 C11.7795147,37.5180567 13.8350548,33.7859253 17.2648382,31.7593579 C20.6946215,29.7327904 24.9553785,29.7327904 28.3851618,31.7593579 C31.8149452,33.7859253 33.8704853,37.5180567 33.75,41.5 L33.75,43.23 L30.88,43.23 L30.88,51.85 L15.88,51.85 L15.88,43.23 L11.88,43.23 L11.9,41.5 Z" id="Shape" stroke="#45413C" fill="#FFFFFF" fill-rule="nonzero" stroke-linecap="round" stroke-linejoin="round"></path>
            <circle id="Oval" fill="#45413C" fill-rule="nonzero" cx="22.54" cy="19.94" r="1"></circle>
            <circle id="Oval" fill="#45413C" fill-rule="nonzero" cx="27.14" cy="19.94" r="1"></circle>
            <circle id="Oval" fill="#FFB59E" fill-rule="nonzero" cx="20.24" cy="22.24" r="1"></circle>
            <path d="M22.83,24.3 C23.8737735,24.9990293 25.2362265,24.9990293 26.28,24.3" id="Shape" stroke="#45413C" stroke-linecap="round" stroke-linejoin="round"></path>
            <path d="M30.88,17.35 C30.88,13.2078644 27.5221356,9.85 23.38,9.85 C19.2378644,9.85 15.88,13.2078644 15.88,17.35 L15.88,19.65 C17.6794445,19.1887281 19.1594794,17.9121981 19.88,16.2 C23.18,18.37 27.43,17.93 30.88,17.35 Z" id="Shape" fill="#A86C4D" fill-rule="nonzero"></path>
            <path d="M23.4,12.75 C26.4505199,12.7511853 29.1955461,14.6022981 30.34,17.43 L30.88,17.35 C30.88,13.2078644 27.5221356,9.85 23.38,9.85 C19.2378644,9.85 15.88,13.2078644 15.88,17.35 L15.88,19.65 C16.179868,15.7292244 19.4679553,12.7122294 23.4,12.75 Z" id="Shape" fill="#DE926A" fill-rule="nonzero"></path>
            <path d="M30.88,17.35 C30.88,13.2078644 27.5221356,9.85 23.38,9.85 C19.2378644,9.85 15.88,13.2078644 15.88,17.35 L15.88,19.65 C17.6794445,19.1887281 19.1594794,17.9121981 19.88,16.2 C23.18,18.37 27.43,17.93 30.88,17.35 Z" id="Shape" stroke="#45413C" stroke-linecap="round" stroke-linejoin="round"></path>
            <path d="M18.8,15.05 C19.1099834,15.5174004 19.5198378,15.9101775 20,16.2" id="Shape" stroke="#45413C" stroke-linecap="round" stroke-linejoin="round"></path>
            <path d="M11.9,55 C11.9,56.1045695 12.7954305,57 13.9,57 C15.0045695,57 15.9,56.1045695 15.9,55 L15.9,43.23 L11.9,43.23 L11.9,55 Z" id="Shape" stroke="#45413C" fill="#FFCEBF" fill-rule="nonzero" stroke-linecap="round" stroke-linejoin="round"></path>
            <path d="M15.93,43.23 L15.93,39.77" id="Shape" stroke="#45413C" stroke-linecap="round" stroke-linejoin="round"></path>
            <path d="M30.88,43.23 L30.88,39.77" id="Shape" stroke="#45413C" stroke-linecap="round" stroke-linejoin="round"></path>
            <path d="M20.56,30.81 L23.4,34.6 L26.14,31.09 C25.0696935,30.7486602 23.9534135,30.573293 22.83,30.57 C22.0671908,30.573515 21.3066791,30.6539215 20.56,30.81 Z" id="Shape" stroke="#45413C" fill="#FFCEBF" fill-rule="nonzero" stroke-linecap="round" stroke-linejoin="round"></path>
            <path d="M23.4,34.6 L25.52,34.95 C25.8223238,34.9824484 26.1229882,34.8755842 26.3370161,34.6596106 C26.551044,34.4436369 26.655183,34.1420177 26.62,33.84 L26.14,31.09 L23.4,34.6 Z" id="Shape" stroke="#45413C" fill="#00DFEB" fill-rule="nonzero" stroke-linecap="round" stroke-linejoin="round"></path>
            <path d="M20.56,30.81 L20.13,33.88 C20.0908764,34.1855702 20.1947769,34.4921176 20.4116325,34.7109268 C20.628488,34.929736 20.9340912,35.0363815 21.24,35 L23.4,34.64 L20.56,30.81 Z" id="Shape" stroke="#45413C" fill="#00DFEB" fill-rule="nonzero" stroke-linecap="round" stroke-linejoin="round"></path>
            <path d="M23.4,34.6 L23.4,51.85" id="Shape" stroke="#45413C" stroke-linecap="round" stroke-linejoin="round"></path>
            <rect id="Rectangle-path" fill="#FFFFFF" fill-rule="nonzero" x="26.85" y="38.63" width="13.23" height="8.63" rx="1"></rect>
            <rect id="Rectangle-path" fill="#F0F0F0" fill-rule="nonzero" x="26.85" y="41.5" width="13.23" height="5.75" rx="1.15"></rect>
            <rect id="Rectangle-path" stroke="#45413C" stroke-linecap="round" stroke-linejoin="round" x="26.85" y="38.63" width="13.23" height="8.63" rx="1"></rect>
            <circle id="Oval" stroke="#45413C" fill="#FFE500" fill-rule="nonzero" stroke-linecap="round" stroke-linejoin="round" cx="33.47" cy="43.8" r="1.15"></circle>
            <path d="M33.47,41.5 L34.04,40.93" id="Shape" stroke="#45413C" stroke-linecap="round" stroke-linejoin="round"></path>
            <path d="M31.69,46.68 L34.69,46.68 C35.1373506,46.68 35.5,47.0426494 35.5,47.49 L35.5,48.35 C35.5,49.0127417 34.9627417,49.55 34.3,49.55 L32.1,49.55 C31.7817402,49.55 31.4765155,49.4235718 31.2514719,49.1985281 C31.0264282,48.9734845 30.9,48.6682598 30.9,48.35 L30.9,47.49 C30.899866,47.0503449 31.2504789,46.6908557 31.69,46.68 Z" id="Shape" stroke="#45413C" fill="#FFCEBF" fill-rule="nonzero" stroke-linecap="round" stroke-linejoin="round"></path>
            <path d="M30.3,69.67 C30.4930322,69.6547408 30.6869678,69.6547408 30.88,69.67 L30.88,51.85 L15.88,51.85 L15.88,69.67 L20.48,69.67 C20.7122707,69.6707328 20.9437234,69.6975679 21.17,69.75 L21.57,58.75 C21.6399652,57.8158921 22.4182756,57.0936974 23.355,57.0936974 C24.2917244,57.0936974 25.0700348,57.8158921 25.14,58.75 L25.65,69.67 L30.3,69.67 Z" id="Shape" fill="#80DDFF" fill-rule="nonzero"></path>
            <rect id="Rectangle-path" fill="#4ACFFF" fill-rule="nonzero" x="15.93" y="51.85" width="14.95" height="2.88"></rect>
            <path d="M30.3,69.67 C30.4930322,69.6547408 30.6869678,69.6547408 30.88,69.67 L30.88,51.85 L15.88,51.85 L15.88,69.67 L20.48,69.67 C20.7122707,69.6707328 20.9437234,69.6975679 21.17,69.75 L21.57,58.75 C21.6399652,57.8158921 22.4182756,57.0936974 23.355,57.0936974 C24.2917244,57.0936974 25.0700348,57.8158921 25.14,58.75 L25.65,69.67 L30.3,69.67 Z" id="Shape" stroke="#45413C" stroke-linecap="round" stroke-linejoin="round"></path>
            <path d="M33.75,73.12 C33.75,71.2146176 32.2053824,69.67 30.3,69.67 L25.7,69.67 L25.7,72 C25.7054891,72.6312188 26.2187574,73.1400239 26.85,73.14 L33.75,73.12 Z" id="Shape" stroke="#45413C" fill="#947746" fill-rule="nonzero" stroke-linecap="round" stroke-linejoin="round"></path>
            <path d="M24,73.12 C23.9945076,71.2168973 22.4531027,69.6754924 20.55,69.67 L15.95,69.67 L15.95,72 C15.9499883,72.3040874 16.0714668,72.5955767 16.287426,72.809658 C16.5033852,73.0237392 16.7959243,73.1426674 17.1,73.14 L24,73.12 Z" id="Shape" stroke="#45413C" fill="#947746" fill-rule="nonzero" stroke-linecap="round" stroke-linejoin="round"></path>
            <ellipse id="Oval" fill="#020202" fill-rule="nonzero" opacity="0.15" cx="25.13" cy="74.27" rx="11.5" ry="1.73"></ellipse>
        </g>
    </g>
</svg>
