<svg width="88px" height="68px" viewBox="0 0 88 68" version="1.1" xmlns="http://www.w3.org/2000/svg" xmlns:xlink="http://www.w3.org/1999/xlink">
    <!-- Generator: Sketch 48.2 (47327) - http://www.bohemiancoding.com/sketch -->
    <desc>Created with Sketch.</desc>
    <defs></defs>
    <g id="Page-1" stroke="none" stroke-width="1" fill="none" fill-rule="evenodd">
        <g id="lab-scientist">
            <path d="M84,40 C83.9984701,23.6646106 74.0640168,8.97150733 58.9050828,2.88449909 C43.7461489,-3.20250915 26.4090288,0.539804837 15.1106656,12.3377681 C3.81230241,24.1357314 0.823181775,41.6184602 7.56,56.5 L80.44,56.5 C82.7912625,51.3173067 84.0051574,45.6911087 84,40 Z" id="Shape" fill="#E8F4FA" fill-rule="nonzero"></path>
            <path d="M5,56.5 L83,56.5" id="Shape" stroke="#45413C" stroke-linecap="round" stroke-linejoin="round"></path>
            <path d="M0.5,56.5 L3,56.5" id="Shape" stroke="#45413C" stroke-linecap="round" stroke-linejoin="round"></path>
            <path d="M85,56.5 L87.5,56.5" id="Shape" stroke="#45413C" stroke-linecap="round" stroke-linejoin="round"></path>
            <path d="M78,56 L74.92,56 C73.3073285,56 72,54.6926715 72,53.08 L72,49 C72,40.4395864 65.0604136,33.5 56.5,33.5 C47.9395864,33.5 41,40.4395864 41,49 L41,56.5 L66.68,56.5 C68.062518,59.8303022 71.3141342,62.0006771 74.92,62 L78,62.0000002 L78,56 Z" id="Shape" fill="#F0F0F0" fill-rule="nonzero"></path>
            <path d="M56.5,33.5 C47.9395864,33.5 41,40.4395864 41,49 L41,53.5 C41,44.9395864 47.9395864,38 56.5,38 C65.0604136,38 72,44.9395864 72,53.5 L72,49 C72,40.4395864 65.0604136,33.5 56.5,33.5 Z" id="Shape" fill="#FFFFFF" fill-rule="nonzero"></path>
            <path d="M78,56 L74.92,56 C73.3073285,56 72,54.6926715 72,53.08 L72,49 C72,40.4395864 65.0604136,33.5 56.5,33.5 C47.9395864,33.5 41,40.4395864 41,49 L41,56.5 L66.68,56.5 C68.062518,59.8303022 71.3141342,62.0006771 74.92,62 L78,62.0000002 L78,56 Z" id="Shape" stroke="#45413C" stroke-linecap="round" stroke-linejoin="round"></path>
            <path d="M66,39 C66,37.58 62.5,32.5 60,32.5 L53,32.5 C50.5,32.5 47,37.58 47,39 L50,40 L48.5,42.5 L56.5,54 L64.5,42.5 L63,40 L66,39 Z" id="Shape" stroke="#45413C" fill="#FFFFFF" fill-rule="nonzero" stroke-linecap="round" stroke-linejoin="round"></path>
            <path d="M60.66,35.37 L60,32.5 L53,32.5 L52.34,35.37 C51.7907365,37.7423401 51.9084089,40.220382 52.68,42.53 L56.5,54 L60.32,42.53 C61.0915911,40.220382 61.2092635,37.7423401 60.66,35.37 Z" id="Shape" stroke="#45413C" fill="#B8ECFF" fill-rule="nonzero" stroke-linecap="round" stroke-linejoin="round"></path>
            <path d="M56.5,54 L56.5,56.5" id="Shape" stroke="#45413C" stroke-linecap="round" stroke-linejoin="round"></path>
            <path d="M56.5,39.5 L60.5,42 C61.1208663,39.8406179 61.1793856,37.5583629 60.67,35.37 L60,32.5 C59.47,35.18 58.6,37.68 56.5,39.5 Z" id="Shape" stroke="#45413C" fill="#B8ECFF" fill-rule="nonzero" stroke-linecap="round" stroke-linejoin="round"></path>
            <path d="M53,30.5 L53,32.5 C53.53,35.18 54.4,37.68 56.5,39.5 C58.6,37.68 59.5,35.18 60,32.5 L60,30.5 L53,30.5 Z" id="Shape" stroke="#45413C" fill="#FFCEBF" fill-rule="nonzero" stroke-linecap="round" stroke-linejoin="round"></path>
            <path d="M59.63,34.09 C59.77,33.57 59.89,33.04 60,32.5 L60,30.5 L53,30.5 L53,34 C54.1358218,34.3385568 55.3147947,34.51035 56.5,34.51 C57.5569468,34.5036468 58.6087672,34.362508 59.63,34.09 Z" id="Shape" fill="#FFB59E" fill-rule="nonzero"></path>
            <path d="M53,30.5 L53,32.5 C53.53,35.18 54.4,37.68 56.5,39.5 C58.6,37.68 59.5,35.18 60,32.5 L60,30.5 L53,30.5 Z" id="Shape" stroke="#45413C" stroke-linecap="round" stroke-linejoin="round"></path>
            <path d="M66.5,20 L66.5,17.5 C66.5,11.9771525 62.0228475,7.5 56.5,7.5 C50.9771525,7.5 46.5,11.9771525 46.5,17.5 L46.5,20 C45.3954305,20 44.5,20.8954305 44.5,22 C44.5,23.1045695 45.3954305,24 46.5,24 L46.62,24 C47.3809202,28.8674023 51.5734794,32.4554612 56.5,32.4554612 C61.4265206,32.4554612 65.6190798,28.8674023 66.38,24 L66.5,24 C67.6045695,24 68.5,23.1045695 68.5,22 C68.5,20.8954305 67.6045695,20 66.5,20 Z" id="Shape" stroke="#45413C" fill="#FFCEBF" fill-rule="nonzero" stroke-linecap="round" stroke-linejoin="round"></path>
            <path d="M53.48,26.8 C55.1659986,28.3849324 57.7940014,28.3849324 59.48,26.8" id="Shape" stroke="#45413C" stroke-linecap="round" stroke-linejoin="round"></path>
            <circle id="Oval" fill="#FFB59E" fill-rule="nonzero" cx="50.75" cy="24.25" r="1.25"></circle>
            <circle id="Oval" fill="#FFB59E" fill-rule="nonzero" cx="62.25" cy="24.25" r="1.25"></circle>
            <path d="M47,47.5 L47,56.5" id="Shape" stroke="#45413C" stroke-linecap="round" stroke-linejoin="round"></path>
            <path d="M63.5,6.5 C63.5,5.63 61.96,4.5 60,4.5 L53.5,4.5 C48,4.5 44,9 44,14.5 C43.8972759,16.5362253 44.39823,18.5574359 45.44,20.31 C45.7572342,20.1092258 46.1245742,20.0017962 46.5,20 C47.0776275,20.0057631 47.6245522,20.2609947 48,20.7 C48.2419127,18.8628627 48.2721104,17.0040258 48.09,15.16 C49.2558763,15.5175274 50.4706935,15.6896265 51.69,15.67 C56.69,15.67 62.63,13.33 62.63,10.62 C62.4046311,14.0879598 63.3482267,17.5313797 65.31,20.4 C65.6534529,20.1423991 66.0706825,20.0021538 66.5,20 C66.9792452,20.0055179 67.440574,20.1829521 67.8,20.5 L67.88,20.5 C68.68,21.35 71.42,8.26 63.5,6.5 Z" id="Shape" fill="#614B44" fill-rule="nonzero"></path>
            <path d="M53.5,8 L60,8 C62,8 63.5,9.13 63.5,10 C67.18,10.82 68.56,14.09 68.9,17.28 C69.28,13.49 68.61,7.64 63.5,6.5 C63.5,5.63 61.96,4.5 60,4.5 L53.5,4.5 C48,4.5 44,9 44,14.5 C43.9945166,15.1683178 44.0312565,15.8363147 44.11,16.5 C44.6278121,11.6934901 48.6658293,8.03820305 53.5,8 Z" id="Shape" fill="#947063" fill-rule="nonzero"></path>
            <path d="M56.5,39.5 L60.5,42 C61.1208663,39.8406179 61.1793856,37.5583629 60.67,35.37 L60,32.5 C59.47,35.18 58.6,37.68 56.5,39.5 Z" id="Shape" stroke="#45413C" fill="#B8ECFF" fill-rule="nonzero" stroke-linecap="round" stroke-linejoin="round"></path>
            <path d="M56.5,39.5 L52.5,42 C51.8791337,39.8406179 51.8206144,37.5583629 52.33,35.37 L53,32.5 C53.53,35.18 54.4,37.68 56.5,39.5 Z" id="Shape" stroke="#45413C" fill="#B8ECFF" fill-rule="nonzero" stroke-linecap="round" stroke-linejoin="round"></path>
            <path d="M56.5,39.5 L52.5,42 C51.8791337,39.8406179 51.8206144,37.5583629 52.33,35.37 L53,32.5 C53.53,35.18 54.4,37.68 56.5,39.5 Z" id="Shape" stroke="#45413C" fill="#B8ECFF" fill-rule="nonzero" stroke-linecap="round" stroke-linejoin="round"></path>
            <polygon id="Shape" stroke="#45413C" fill="#FF6242" fill-rule="nonzero" stroke-linecap="round" stroke-linejoin="round" points="56.5 39.5 54.69 40.63 55.5 42.5 57.5 42.5 58.31 40.63"></polygon>
            <path d="M57.5,42.5 L55.5,42.5 C55.0378993,44.4699395 54.7600358,46.4785915 54.67,48.5 L56.5,54 L58.33,48.5 C58.2399642,46.4785915 57.9621007,44.4699395 57.5,42.5 Z" id="Shape" stroke="#45413C" fill="#FF6242" fill-rule="nonzero" stroke-linecap="round" stroke-linejoin="round"></path>
            <path d="M63.5,6.5 C63.5,5.63 61.96,4.5 60,4.5 L53.5,4.5 C48,4.5 44,9 44,14.5 C43.8972759,16.5362253 44.39823,18.5574359 45.44,20.31 C45.7572342,20.1092258 46.1245742,20.0017962 46.5,20 C47.0776275,20.0057631 47.6245522,20.2609947 48,20.7 C48.2419127,18.8628627 48.2721104,17.0040258 48.09,15.16 C49.2558763,15.5175274 50.4706935,15.6896265 51.69,15.67 C56.69,15.67 62.63,13.33 62.63,10.62 C62.4046311,14.0879598 63.3482267,17.5313797 65.31,20.4 C65.6534529,20.1423991 66.0706825,20.0021538 66.5,20 C66.9792452,20.0055179 67.440574,20.1829521 67.8,20.5 L67.88,20.5 C68.68,21.35 71.42,8.26 63.5,6.5 Z" id="Shape" stroke="#45413C" stroke-linejoin="round"></path>
            <path d="M56.5,18 L46.5,18 L46.5,22 C46.5,23.5 50,24.5 52,24.5 C53.4304494,24.5353951 54.7281971,23.6662246 55.24,22.33 C55.4554414,21.8253091 55.9512488,21.4978662 56.5,21.4978662 C57.0487512,21.4978662 57.5445586,21.8253091 57.76,22.33 C58.2718029,23.6662246 59.5695506,24.5353951 61,24.5 C63,24.5 66.5,23.5 66.5,22 L66.5,18 L56.5,18 Z" id="Shape" fill="#FFFFFF" fill-rule="nonzero"></path>
            <path d="M62,21 C61.7441775,20.3984301 61.153706,20.0078871 60.5,20.0078871 C59.846294,20.0078871 59.2558225,20.3984301 59,21" id="Shape" stroke="#45413C" stroke-linecap="round" stroke-linejoin="round"></path>
            <path d="M54,21 C53.7441775,20.3984301 53.153706,20.0078871 52.5,20.0078871 C51.846294,20.0078871 51.2558225,20.3984301 51,21" id="Shape" stroke="#45413C" stroke-linecap="round" stroke-linejoin="round"></path>
            <path d="M56.5,18 L46.5,18 L46.5,22 C46.5,23.5 50,24.5 52,24.5 C53.4304494,24.5353951 54.7281971,23.6662246 55.24,22.33 C55.4554414,21.8253091 55.9512488,21.4978662 56.5,21.4978662 C57.0487512,21.4978662 57.5445586,21.8253091 57.76,22.33 C58.2718029,23.6662246 59.5695506,24.5353951 61,24.5 C63,24.5 66.5,23.5 66.5,22 L66.5,18 L56.5,18 Z" id="Shape" stroke="#45413C" stroke-linecap="round" stroke-linejoin="round"></path>
            <path d="M68.81,18 L66.5,18 L66.5,20 L68.35,20 C68.570509,19.3505864 68.7246299,18.6804955 68.81,18 Z" id="Shape" stroke="#45413C" fill="#FFFFFF" fill-rule="nonzero" stroke-linecap="round" stroke-linejoin="round"></path>
            <path d="M44.19,18 L46.5,18 L46.5,20 L44.65,20 C44.429491,19.3505864 44.2753701,18.6804955 44.19,18 Z" id="Shape" stroke="#45413C" fill="#FFFFFF" fill-rule="nonzero" stroke-linecap="round" stroke-linejoin="round"></path>
            <circle id="Oval" stroke="#45413C" fill="#FF6242" fill-rule="nonzero" stroke-linecap="round" stroke-linejoin="round" cx="79" cy="47.5" r="1.5"></circle>
            <circle id="Oval" stroke="#45413C" fill="#FF6242" fill-rule="nonzero" stroke-linecap="round" stroke-linejoin="round" cx="83.5" cy="46.5" r="1"></circle>
            <circle id="Oval" stroke="#45413C" fill="#FF6242" fill-rule="nonzero" stroke-linecap="round" stroke-linejoin="round" cx="81" cy="40" r="1"></circle>
            <path d="M24.5,57.5 C24.5,58.6045695 23.6045695,59.5 22.5,59.5 C21.3954305,59.5 20.5,58.6045695 20.5,57.5 L20.5,42 C20.5,41.4477153 20.9477153,41 21.5,41 L23.5,41 C24.0522847,41 24.5,41.4477153 24.5,42 L24.5,57.5 Z" id="Shape" stroke="#45413C" fill="#A6FBFF" fill-rule="nonzero" stroke-linecap="round" stroke-linejoin="round"></path>
            <ellipse id="Oval" fill="#020202" fill-rule="nonzero" opacity="0.15" cx="29.5" cy="63" rx="15" ry="1.5"></ellipse>
            <path d="M16.5,47.5 L17,47.5 C17.5522847,47.5 18,47.9477153 18,48.5 L18,62 L16.5,62 C15.9477153,62 15.5,61.5522847 15.5,61 L15.5,48.5 C15.5,47.9477153 15.9477153,47.5 16.5,47.5 Z" id="Shape" stroke="#45413C" fill="#DEBB7E" fill-rule="nonzero" stroke-linecap="round" stroke-linejoin="round"></path>
            <path d="M42,47.5 L42.5,47.5 C43.0522847,47.5 43.5,47.9477153 43.5,48.5 L43.5,61 C43.5,61.5522847 43.0522847,62 42.5,62 L41,62 L41,48.5 C41,47.9477153 41.4477153,47.5 42,47.5 Z" id="Shape" stroke="#45413C" fill="#DEBB7E" fill-rule="nonzero" stroke-linecap="round" stroke-linejoin="round"></path>
            <rect id="Rectangle-path" stroke="#45413C" fill="#DEBB7E" fill-rule="nonzero" stroke-linecap="round" stroke-linejoin="round" x="18" y="59.5" width="23" height="2.5"></rect>
            <path d="M24.5,57.5 C24.5,58.6045695 23.6045695,59.5 22.5,59.5 C21.3954305,59.5 20.5,58.6045695 20.5,57.5 L20.5,45 L24.5,45 L24.5,57.5 Z" id="Shape" stroke="#45413C" fill="#9CEB60" fill-rule="nonzero" stroke-linecap="round" stroke-linejoin="round"></path>
            <path d="M31.5,57.5 C31.5,58.6045695 30.6045695,59.5 29.5,59.5 C28.3954305,59.5 27.5,58.6045695 27.5,57.5 L27.5,42 C27.5,41.4477153 27.9477153,41 28.5,41 L30.5,41 C31.0522847,41 31.5,41.4477153 31.5,42 L31.5,57.5 Z" id="Shape" stroke="#45413C" fill="#A6FBFF" fill-rule="nonzero" stroke-linecap="round" stroke-linejoin="round"></path>
            <path d="M31.5,57.5 C31.5,58.6045695 30.6045695,59.5 29.5,59.5 C28.3954305,59.5 27.5,58.6045695 27.5,57.5 L27.5,45 L31.5,45 L31.5,57.5 Z" id="Shape" stroke="#45413C" fill="#FF6196" fill-rule="nonzero" stroke-linecap="round" stroke-linejoin="round"></path>
            <path d="M38.5,57.5 C38.5,58.6045695 37.6045695,59.5 36.5,59.5 C35.3954305,59.5 34.5,58.6045695 34.5,57.5 L34.5,42 C34.5,41.4477153 34.9477153,41 35.5,41 L37.5,41 C38.0522847,41 38.5,41.4477153 38.5,42 L38.5,57.5 Z" id="Shape" stroke="#45413C" fill="#A6FBFF" fill-rule="nonzero" stroke-linecap="round" stroke-linejoin="round"></path>
            <path d="M38.5,57.5 C38.5,58.6045695 37.6045695,59.5 36.5,59.5 C35.3954305,59.5 34.5,58.6045695 34.5,57.5 L34.5,45 L38.5,45 L38.5,57.5 Z" id="Shape" stroke="#45413C" fill="#FF6242" fill-rule="nonzero" stroke-linecap="round" stroke-linejoin="round"></path>
            <rect id="Rectangle-path" stroke="#45413C" fill="#DEBB7E" fill-rule="nonzero" stroke-linecap="round" stroke-linejoin="round" x="18" y="50" width="23" height="2"></rect>
            <path d="M66,47.5 L66,53.08 C65.9973514,54.2538409 66.2285144,55.4164547 66.68,56.5" id="Shape" stroke="#45413C" stroke-linecap="round" stroke-linejoin="round"></path>
            <path d="M78.57,58.29 L81,54.53 C81.146953,54.3075339 81.198982,54.0355951 81.1445287,53.7745947 C81.0900754,53.5135944 80.9336491,53.2851462 80.71,53.14 L79.03,52.05 C78.5685275,51.7506878 77.9519607,51.8802562 77.65,52.34 L75.22,56.1 L68.86,60.61 C68.3071411,60.9815235 67.9755268,61.6039049 67.9755268,62.27 C67.9755268,62.9360951 68.3071411,63.5584765 68.86,63.93 L73.86,67.21 C74.4123359,67.5487636 75.0945611,67.5989568 75.690529,67.3446772 C76.2864968,67.0903976 76.7223504,66.5631574 76.86,65.93 L78.57,58.29 Z" id="Shape" fill="#4AEFF7" fill-rule="nonzero"></path>
            <path d="M70.36,62.11 L76.72,57.6 L79.98,52.6 L79.06,52.01 C78.838326,51.8660501 78.5686777,51.8157158 78.31,51.87 C78.0514365,51.9244688 77.824941,52.0790609 77.68,52.3 L75.22,56.1 L68.86,60.61 C68.3071411,60.9815235 67.9755268,61.6039049 67.9755268,62.27 C67.9755268,62.9360951 68.3071411,63.5584765 68.86,63.93 L69.57,64.39 C69.2935751,63.5388476 69.6162229,62.6076614 70.36,62.11 Z" id="Shape" fill="#A6FBFF" fill-rule="nonzero"></path>
            <path d="M68.15,61.5 C67.7884563,62.3874727 68.1072201,63.4066779 68.91,63.93 L73.91,67.21 C74.4623359,67.5487636 75.1445611,67.5989568 75.740529,67.3446772 C76.3364968,67.0903976 76.7723504,66.5631574 76.91,65.93 L77.83,61.5 L68.15,61.5 Z" id="Shape" fill="#FF6242" fill-rule="nonzero"></path>
            <path d="M68.15,61.5 C67.7884563,62.3874727 68.1072201,63.4066779 68.91,63.93 L69.62,64.39 C69.3334456,63.5499934 69.6347606,62.6216173 70.36,62.11 L71.22,61.5 L68.15,61.5 Z" id="Shape" fill="#FF866E" fill-rule="nonzero"></path>
            <path d="M78.57,58.29 L81,54.53 C81.146953,54.3075339 81.198982,54.0355951 81.1445287,53.7745947 C81.0900754,53.5135944 80.9336491,53.2851462 80.71,53.14 L79.03,52.05 C78.5685275,51.7506878 77.9519607,51.8802562 77.65,52.34 L75.22,56.1 L68.86,60.61 C68.3071411,60.9815235 67.9755268,61.6039049 67.9755268,62.27 C67.9755268,62.9360951 68.3071411,63.5584765 68.86,63.93 L73.86,67.21 C74.4123359,67.5487636 75.0945611,67.5989568 75.690529,67.3446772 C76.2864968,67.0903976 76.7223504,66.5631574 76.86,65.93 L78.57,58.29 Z" id="Shape" stroke="#45413C" stroke-linecap="round" stroke-linejoin="round"></path>
            <path d="M78.11,63.11 L75.88,62.11 C75.5134016,61.9464267 75.227666,61.6427338 75.0867125,61.2668578 C74.945759,60.8909819 74.9613508,60.4742912 75.13,60.11 L76.37,57.37 C76.5335733,57.0034016 76.8372662,56.717666 77.2131422,56.5767125 C77.5890181,56.435759 78.0057088,56.4513508 78.37,56.62 L80.6,57.62 C81.5041595,58.0323622 81.9684077,59.0460419 81.69,60 C81.4280293,60.8454325 81.0618833,61.6549844 80.6,62.41 C80.0528644,63.2208573 78.9995005,63.5169837 78.11,63.11 Z" id="Shape" fill="#00DBA8" fill-rule="nonzero"></path>
            <path d="M76.7,58.23 L80.36,59.89 C80.7647191,60.0663991 81.1446117,60.2950071 81.49,60.57 C81.56,60.37 81.63,60.17 81.69,59.98 C81.9431831,59.0334019 81.4732675,58.042769 80.58,57.64 L78.35,56.64 C77.9857088,56.4713508 77.5690181,56.455759 77.1931422,56.5967125 C76.8172662,56.737666 76.5135733,57.0234016 76.35,57.39 L76.06,58.02 C76.2782086,58.0741617 76.4921228,58.1443523 76.7,58.23 Z" id="Shape" fill="#00F5BC" fill-rule="nonzero"></path>
            <path d="M78.11,63.11 L75.88,62.11 C75.5134016,61.9464267 75.227666,61.6427338 75.0867125,61.2668578 C74.945759,60.8909819 74.9613508,60.4742912 75.13,60.11 L76.37,57.37 C76.5335733,57.0034016 76.8372662,56.717666 77.2131422,56.5767125 C77.5890181,56.435759 78.0057088,56.4513508 78.37,56.62 L80.6,57.62 C81.5041595,58.0323622 81.9684077,59.0460419 81.69,60 C81.4280293,60.8454325 81.0618833,61.6549844 80.6,62.41 C80.0528644,63.2208573 78.9995005,63.5169837 78.11,63.11 Z" id="Shape" stroke="#45413C" stroke-linecap="round" stroke-linejoin="round"></path>
        </g>
    </g>
</svg>
