<svg width="99px" height="74px" viewBox="0 0 99 74" version="1.1" xmlns="http://www.w3.org/2000/svg" xmlns:xlink="http://www.w3.org/1999/xlink">
    <!-- Generator: Sketch 48.2 (47327) - http://www.bohemiancoding.com/sketch -->
    <desc>Created with Sketch.</desc>
    <defs></defs>
    <g id="Page-1" stroke="none" stroke-width="1" fill="none" fill-rule="evenodd">
        <g id="monitor-cash-credit-card" transform="translate(0.000000, -1.000000)">
            <g id="_Group_" transform="translate(5.000000, 0.000000)">
                <path d="M83.87,41 C83.8774829,24.6589869 73.9443877,9.95652833 58.7812436,3.8649087 C43.6180996,-2.22671092 26.2742474,1.51754606 14.9745882,13.3220566 C3.67492905,25.1265671 0.691848436,42.617419 7.44,57.5 L80.31,57.5 C82.6612625,52.3173067 83.8751574,46.6911087 83.87,41 Z" id="Shape" fill="#E8F4FA" fill-rule="nonzero"></path>
                <path d="M4.87,57.5 L82.87,57.5" id="Shape" stroke="#45413C" stroke-linecap="round" stroke-linejoin="round"></path>
                <path d="M0.37,57.5 L2.87,57.5" id="Shape" stroke="#45413C" stroke-linecap="round" stroke-linejoin="round"></path>
                <path d="M84.87,57.5 L87.37,57.5" id="Shape" stroke="#45413C" stroke-linecap="round" stroke-linejoin="round"></path>
            </g>
            <ellipse id="Oval" fill="#020202" fill-rule="nonzero" opacity="0.15" cx="49.11" cy="72.52" rx="15.75" ry="1.57"></ellipse>
            <path d="M68.63,58.66 L68.63,38.5 C68.619016,37.1160592 67.4939843,35.9999564 66.11,36 L32.11,36 C30.7182424,36 29.59,37.1282424 29.59,38.52 L29.59,58.66 L68.63,58.66 Z" id="Shape" fill="#00B8F0" fill-rule="nonzero"></path>
            <path d="M34.62,58.66 L57.3,36 L32.1,36 C30.7082424,36 29.58,37.1282424 29.58,38.52 L29.58,58.66 L34.62,58.66 Z" id="Shape" fill="#4ACFFF" fill-rule="nonzero"></path>
            <path d="M68.63,58.66 L68.63,63.66 C68.63,65.0517576 67.5017576,66.18 66.11,66.18 L32.11,66.18 C30.7182424,66.18 29.59,65.0517576 29.59,63.66 L29.59,58.66 L68.63,58.66 Z" id="Shape" stroke="#45413C" fill="#FFFFFF" fill-rule="nonzero" stroke-linecap="round" stroke-linejoin="round"></path>
            <path d="M50.37,62.44 C50.37,63.1358788 49.8058788,63.7 49.11,63.7 C48.4141212,63.7 47.85,63.1358788 47.85,62.44 C47.85,61.7441212 48.4141212,61.18 49.11,61.18 C49.8058788,61.18 50.37,61.7441212 50.37,62.44 Z" id="Shape" stroke="#45413C" fill="#525252" fill-rule="nonzero" stroke-linecap="round" stroke-linejoin="round"></path>
            <polygon id="Shape" stroke="#45413C" fill="#DAEDF7" fill-rule="nonzero" stroke-linecap="round" stroke-linejoin="round" points="55.41 71.26 42.8 71.26 43.44 66.22 54.78 66.22"></polygon>
            <path d="M39.03,71.26 L59.18,71.26" id="Shape" stroke="#45413C" stroke-linecap="round" stroke-linejoin="round"></path>
            <path d="M68.63,58.66 L68.63,38.5 C68.619016,37.1160592 67.4939843,35.9999564 66.11,36 L32.11,36 C30.7182424,36 29.59,37.1282424 29.59,38.52 L29.59,58.66 L68.63,58.66 Z" id="Shape" stroke="#45413C" stroke-linecap="round" stroke-linejoin="round"></path>
            <path d="M56.67,47.32 C56.67,51.4952727 53.2852727,54.88 49.11,54.88 C44.9347273,54.88 41.55,51.4952727 41.55,47.32 C41.55,43.1447273 44.9347273,39.76 49.11,39.76 C53.2829887,39.7655089 56.6644911,43.1470113 56.67,47.32 Z" id="Shape" fill="#FFFFFF" fill-rule="nonzero"></path>
            <path d="M52.64,40.64 C50.2980712,39.3968019 47.47565,39.4732017 45.2044054,40.8412733 C42.9331608,42.209345 41.5460126,44.6685558 41.55,47.32 C41.550937,48.5496269 41.8494325,49.7607637 42.42,50.85 L52.64,40.64 Z" id="Shape" fill="#F0FFE5" fill-rule="nonzero"></path>
            <path d="M56.67,47.32 C56.67,51.4952727 53.2852727,54.88 49.11,54.88 C44.9347273,54.88 41.55,51.4952727 41.55,47.32 C41.55,43.1447273 44.9347273,39.76 49.11,39.76 C53.2829887,39.7655089 56.6644911,43.1470113 56.67,47.32 Z" id="Shape" stroke="#45413C" stroke-linecap="round" stroke-linejoin="round"></path>
            <path d="M47.85,51.73 C47.346578,51.7292449 46.8642598,51.5276791 46.51,51.17 L44,48.65 C43.4058214,47.8966956 43.4703291,46.8177202 44.1500286,46.1405759 C44.8297281,45.4634316 45.9089389,45.4029883 46.66,46 L47.85,47.18 L50.92,44.11 C51.3889213,43.5955207 52.1026906,43.3804519 52.7777861,43.5502228 C53.4528816,43.7199936 53.9800064,44.2471184 54.1497772,44.9222139 C54.3195481,45.5973094 54.1044793,46.3110787 53.59,46.78 L49.18,51.19 C48.8255398,51.5388269 48.347306,51.732997 47.85,51.73 Z" id="Shape" fill="#6DD627" fill-rule="nonzero"></path>
            <path d="M44.3,49 L47,46.3 L46.66,46 C45.9089389,45.4029883 44.8297281,45.4634316 44.1500286,46.1405759 C43.4703291,46.8177202 43.4058214,47.8966956 44,48.65 L44.3,49 Z" id="Shape" fill="#9CEB60" fill-rule="nonzero"></path>
            <path d="M47.85,51.73 C47.346578,51.7292449 46.8642598,51.5276791 46.51,51.17 L44,48.65 C43.4058214,47.8966956 43.4703291,46.8177202 44.1500286,46.1405759 C44.8297281,45.4634316 45.9089389,45.4029883 46.66,46 L47.85,47.18 L50.92,44.11 C51.3889213,43.5955207 52.1026906,43.3804519 52.7777861,43.5502228 C53.4528816,43.7199936 53.9800064,44.2471184 54.1497772,44.9222139 C54.3195481,45.5973094 54.1044793,46.3110787 53.59,46.78 L49.18,51.19 C48.8255398,51.5388269 48.347306,51.732997 47.85,51.73 Z" id="Shape" stroke="#45413C" stroke-linecap="round" stroke-linejoin="round"></path>
            <rect id="Rectangle-path" fill="#6DD627" fill-rule="nonzero" transform="translate(14.438313, 27.156857) rotate(-15.830000) translate(-14.438313, -27.156857) " x="1.83831295" y="19.5968573" width="25.2" height="15.12" rx="1.05"></rect>
            <path d="M25.87,21.3 L1.63,28.17 L0.54,24.33 C0.437389365,24.0584561 0.457837853,23.755725 0.596033584,23.5004468 C0.734229315,23.2451685 0.976532385,23.0625391 1.26,23 L23.49,16.7 C24.0469377,16.5522804 24.6198759,16.8765012 24.78,17.43 L25.87,21.3 Z" id="Shape" fill="#9CEB60" fill-rule="nonzero"></path>
            <path d="M24.82,26.83 L23.45,22 C22.8068368,22.1850555 22.1164773,22.1066685 21.5311765,21.7821267 C20.9458757,21.4575849 20.5137132,20.9135479 20.33,20.27 L5.79,24.37 C6.16825027,25.7092829 5.38925011,27.1016337 4.05,27.48 L5.42,32.33 C6.76177942,31.9512538 8.15708416,32.7294046 8.54,34.07 L23.08,29.94 C22.7017497,28.6007171 23.4807499,27.2083663 24.82,26.83 Z" id="Shape" fill="#C8FFA1" fill-rule="nonzero"></path>
            <path d="M20.33,20.25 L5.79,24.37 C6.16825027,25.7092829 5.38925011,27.1016337 4.05,27.48 L23.45,22 C22.8041392,22.1843294 22.1114167,22.1032036 21.5256224,21.7746331 C20.9398282,21.4460626 20.5094373,20.897237 20.33,20.25 Z" id="Shape" fill="#E4FFD1" fill-rule="nonzero"></path>
            <path d="M16.86,26.47 C17.1371165,27.4508705 16.7960719,28.5020884 15.9958999,29.1334563 C15.1957279,29.7648241 14.0940152,29.8519998 13.2045056,29.354332 C12.3149959,28.8566642 11.8128703,27.8721642 11.9322766,26.8599179 C12.051683,25.8476715 12.7691055,25.0070316 13.75,24.73 C15.0892829,24.3517497 16.4816337,25.1307499 16.86,26.47 Z" id="Shape" fill="#9CEB60" fill-rule="nonzero"></path>
            <path d="M16.86,26.47 C17.1371165,27.4508705 16.7960719,28.5020884 15.9958999,29.1334563 C15.1957279,29.7648241 14.0940152,29.8519998 13.2045056,29.354332 C12.3149959,28.8566642 11.8128703,27.8721642 11.9322766,26.8599179 C12.051683,25.8476715 12.7691055,25.0070316 13.75,24.73 C15.0892829,24.3517497 16.4816337,25.1307499 16.86,26.47 Z" id="Shape" stroke="#45413C" stroke-linecap="round" stroke-linejoin="round"></path>
            <path d="M24.82,26.83 L23.45,22 C22.8068368,22.1850555 22.1164773,22.1066685 21.5311765,21.7821267 C20.9458757,21.4575849 20.5137132,20.9135479 20.33,20.27 L5.79,24.37 C6.16825027,25.7092829 5.38925011,27.1016337 4.05,27.48 L5.42,32.33 C6.76177942,31.9512538 8.15708416,32.7294046 8.54,34.07 L23.08,29.94 C22.7017497,28.6007171 23.4807499,27.2083663 24.82,26.83 Z" id="Shape" stroke="#45413C" stroke-linecap="round" stroke-linejoin="round"></path>
            <rect id="Rectangle-path" stroke="#45413C" stroke-linecap="round" stroke-linejoin="round" transform="translate(14.438313, 27.156857) rotate(-15.830000) translate(-14.438313, -27.156857) " x="1.83831295" y="19.5968573" width="25.2" height="15.12" rx="1.05"></rect>
            <path d="M91.82,37.29 L74.05,32.2 C73.5140175,32.0465512 73.0610514,31.6862689 72.7909352,31.198559 C72.5208189,30.7108491 72.455725,30.1357452 72.61,29.6 L75.61,19.11 C75.7612282,18.5747656 76.1195595,18.1218854 76.6056673,17.8516169 C77.0917751,17.5813485 77.6655605,17.5159862 78.2,17.67 L96,22.75 C97.1125132,23.0742141 97.755383,24.2349511 97.44,25.35 L94.44,35.85 C94.286812,36.3905367 93.9234178,36.847151 93.4310591,37.1177603 C92.9387005,37.3883697 92.3584388,37.4504059 91.82,37.29 Z" id="Shape" fill="#DAEDF7" fill-rule="nonzero"></path>
            <rect id="Rectangle-path" fill="#525252" fill-rule="nonzero" transform="translate(86.064904, 23.838766) rotate(15.980000) translate(-86.064904, -23.838766) " x="74.7249037" y="22.5787662" width="22.68" height="2.52"></rect>
            <path d="M75.15,29.89 L81.21,31.63" id="Shape" stroke="#45413C" stroke-linecap="round" stroke-linejoin="round"></path>
            <rect id="Rectangle-path" fill="#E8F4FA" fill-rule="nonzero" transform="translate(84.673403, 28.688682) rotate(15.980000) translate(-84.673403, -28.688682) " x="75.8534026" y="27.4286823" width="17.64" height="2.52"></rect>
            <path d="M91.82,37.29 L74.05,32.2 C73.5140175,32.0465512 73.0610514,31.6862689 72.7909352,31.198559 C72.5208189,30.7108491 72.455725,30.1357452 72.61,29.6 L75.61,19.11 C75.7612282,18.5747656 76.1195595,18.1218854 76.6056673,17.8516169 C77.0917751,17.5813485 77.6655605,17.5159862 78.2,17.67 L96,22.75 C97.1125132,23.0742141 97.755383,24.2349511 97.44,25.35 L94.44,35.85 C94.286812,36.3905367 93.9234178,36.847151 93.4310591,37.1177603 C92.9387005,37.3883697 92.3584388,37.4504059 91.82,37.29 Z" id="Shape" stroke="#45413C" stroke-linecap="round" stroke-linejoin="round"></path>
            <rect id="Rectangle-path" stroke="#45413C" stroke-linecap="round" stroke-linejoin="round" transform="translate(86.064904, 23.838766) rotate(15.980000) translate(-86.064904, -23.838766) " x="74.7249037" y="22.5787662" width="22.68" height="2.52"></rect>
            <rect id="Rectangle-path" stroke="#45413C" stroke-linecap="round" stroke-linejoin="round" transform="translate(84.673403, 28.688682) rotate(15.980000) translate(-84.673403, -28.688682) " x="75.8534026" y="27.4286823" width="17.64" height="2.52"></rect>
            <circle id="Oval" fill="#FFE500" fill-rule="nonzero" cx="49.11" cy="17.44" r="8.4"></circle>
            <path d="M49.11,9 C45.7123288,8.99975484 42.6491054,11.046352 41.3488398,14.1853771 C40.0485741,17.3244023 40.7673611,20.9376063 43.17,23.34 L55.05,11.5 C53.4817751,9.90911872 51.3438634,9.0093242 49.11,9 Z" id="Shape" fill="#FFF48C" fill-rule="nonzero"></path>
            <circle id="Oval" stroke="#45413C" cx="49.11" cy="17.44" r="8.4"></circle>
            <path d="M49.11,21.64 L49.11,22.69" id="Shape" stroke="#45413C" stroke-linecap="round" stroke-linejoin="round"></path>
            <path d="M49.11,12.19 L49.11,13.24" id="Shape" stroke="#45413C" stroke-linecap="round" stroke-linejoin="round"></path>
            <path d="M47,19.54 C47,20.699798 47.940202,21.64 49.1,21.64 C50.259798,21.64 51.2,20.699798 51.2,19.54 C51.2,18.380202 50.259798,17.44 49.1,17.44 C47.940202,17.44 47,16.499798 47,15.34 C47,14.180202 47.940202,13.24 49.1,13.24 C50.259798,13.24 51.2,14.180202 51.2,15.34" id="Shape" stroke="#45413C" stroke-linecap="round" stroke-linejoin="round"></path>
        </g>
    </g>
</svg>
