<svg width="40px" height="54px" viewBox="0 0 40 54" version="1.1" xmlns="http://www.w3.org/2000/svg" xmlns:xlink="http://www.w3.org/1999/xlink">
    <!-- Generator: Sketch 48.2 (47327) - http://www.bohemiancoding.com/sketch -->
    <desc>Created with Sketch.</desc>
    <defs></defs>
    <g id="Page-1" stroke="none" stroke-width="1" fill="none" fill-rule="evenodd">
        <g id="robot-hand" transform="translate(1.000000, 1.000000)">
            <path d="M23.8,23 L24.55,18.51 C24.7823112,17.6544108 24.4975867,16.7417322 23.82,16.17 C22.18,15.17 4.99,14.64 5.82,20.31 L7.11,28.87 C7.30817132,30.202914 8.45243492,31.1897882 9.8,31.19 L11.6,31.19" id="Shape" stroke="#4550E5" stroke-linecap="round" stroke-linejoin="round"></path>
            <path d="M18.29,31.16 L20.13,31.16 C21.4598758,31.1595292 22.5959184,30.2008613 22.82,28.89 L23.02,27.63" id="Shape" stroke="#4550E5" stroke-linecap="round" stroke-linejoin="round"></path>
            <path d="M21.08,36.6 C21.08,35.0977855 19.8622145,33.88 18.36,33.88 L11.56,33.88 C10.8368801,33.8773415 10.1424656,34.162738 9.63020183,34.6731254 C9.11793802,35.1835128 8.82999511,35.8768752 8.83,36.6 L21.08,36.6 Z" id="Shape" stroke="#4550E5" stroke-linecap="round" stroke-linejoin="round"></path>
            <path d="M24.22,20.39 C22.0575749,20.7961189 20.3565052,22.4714039 19.9174074,24.6273742 C19.4783096,26.7833445 20.3886608,28.9904872 22.22,30.21 C22.5748828,29.7985035 22.7978653,29.2898245 22.86,28.75" id="Shape" stroke="#4550E5" stroke-linecap="round" stroke-linejoin="round"></path>
            <path d="M18.36,30.48 C18.36,32.3577681 16.8377681,33.88 14.96,33.88 C13.0822319,33.88 11.56,32.3577681 11.56,30.48 C11.56,28.6022319 13.0822319,27.08 14.96,27.08 C16.8377681,27.08 18.36,28.6022319 18.36,30.48 Z" id="Shape" stroke="#4550E5" stroke-linecap="round" stroke-linejoin="round"></path>
            <rect id="Rectangle-path" stroke="#4550E5" stroke-linecap="round" stroke-linejoin="round" x="19.72" y="5.32" width="4.08" height="5.44"></rect>
            <path d="M23.8,5.32 L19.72,5.32 L19.72,3.32 C19.72,2.19333911 20.6333391,1.28 21.76,1.28 C22.8866609,1.28 23.8,2.19333911 23.8,3.32 L23.8,5.32 Z" id="Shape" stroke="#4550E5" stroke-linecap="round" stroke-linejoin="round"></path>
            <rect id="Rectangle-path" stroke="#4550E5" stroke-width="1.00498756" stroke-linecap="round" stroke-linejoin="round" transform="translate(15.045000, 6.794000) rotate(-5.710593) translate(-15.045000, -6.794000) " x="12.9948254" y="4.06043383" width="4.10034925" height="5.46713234"></rect>
            <path d="M16.53,3.87 L12.46,4.26 L12.27,2.26 C12.1985469,1.53475084 12.5194373,0.826473195 13.1117949,0.401968396 C13.7041525,-0.0225364033 14.4779842,-0.0987759738 15.1417949,0.201968393 C15.8056057,0.502712761 16.2585469,1.13475084 16.33,1.86 L16.53,3.87 Z" id="Shape" stroke="#4550E5" stroke-linecap="round" stroke-linejoin="round"></path>
            <polygon id="Shape" stroke="#4550E5" stroke-linecap="round" stroke-linejoin="round" points="6.5 14.97 2.94 16.97 1.32 14 4.88 12"></polygon>
            <path d="M4.88,12 L1.32,14 L0.32,12.23 C-0.037265616,11.5940672 -0.0281265668,10.8158422 0.343974556,10.1884747 C0.716075679,9.56110728 1.39460786,9.17990942 2.12397459,9.18847473 C2.85334131,9.19704003 3.52273442,9.59406723 3.88,10.23 L4.88,12 Z" id="Shape" stroke="#4550E5" stroke-linecap="round" stroke-linejoin="round"></path>
            <rect id="Rectangle-path" stroke="#4550E5" stroke-linecap="round" stroke-linejoin="round" transform="translate(8.614016, 9.000720) rotate(-14.740000) translate(-8.614016, -9.000720) " x="6.57401573" y="6.71571977" width="4.08" height="4.57"></rect>
            <path d="M10,6.3 L6,7.3 L5.49,5.3 C5.31136718,4.59618678 5.52178354,3.85053707 6.04198727,3.34392992 C6.562191,2.83732276 7.31315077,2.64672383 8.0119873,2.84392991 C8.71082383,3.04113599 9.25136722,3.59618677 9.43,4.3 L10,6.3 Z" id="Shape" stroke="#4550E5" stroke-linecap="round" stroke-linejoin="round"></path>
            <path d="M23.8,16.13 L23.8,10.76 L19.72,10.76 L19.72,15.54 C21.1026587,15.5194283 22.4798114,15.7185754 23.8,16.13 Z" id="Shape" stroke="#4550E5" stroke-linecap="round" stroke-linejoin="round"></path>
            <path d="M9.51,19.6 C9.13444637,19.6 8.83,19.9044464 8.83,20.28 C8.83,20.6555536 9.13444637,20.96 9.51,20.96 C9.88555363,20.96 10.19,20.6555536 10.19,20.28 C10.19,19.9044464 9.88555363,19.6 9.51,19.6 Z" id="Shape" fill="#4550E5" fill-rule="nonzero"></path>
            <path d="M20.4,17.56 C20.0244464,17.56 19.72,17.8644464 19.72,18.24 C19.72,18.6155536 20.0244464,18.92 20.4,18.92 C20.7755536,18.92 21.08,18.6155536 21.08,18.24 C21.08,17.8644464 20.7755536,17.56 20.4,17.56 Z" id="Shape" fill="#4550E5" fill-rule="nonzero"></path>
            <path d="M9.51,25 C9.13444637,25 8.83,25.3044464 8.83,25.68 C8.83,26.0555536 9.13444637,26.36 9.51,26.36 C9.88555363,26.36 10.19,26.0555536 10.19,25.68 C10.19,25.3044464 9.88555363,25 9.51,25 Z" id="Shape" fill="#4550E5" fill-rule="nonzero"></path>
            <path d="M25.84,22.32 C24.934156,22.306376 24.0614143,22.6602126 23.4208135,23.3008135 C22.7802126,23.9414143 22.426376,24.814156 22.44,25.72 C22.44,27.5977681 23.9622319,29.12 25.84,29.12 C27.58,29.12 29.97,27.12 32.59,24.62 L29.26,21.28 C28.21401,21.8824381 27.0442948,22.238141 25.84,22.32 Z" id="Shape" stroke="#4550E5" stroke-linecap="round" stroke-linejoin="round"></path>
            <path d="M37.46,20.15 C37.8259569,19.8456607 38.0013827,19.3689602 37.92,18.9 C37.8343023,18.4458344 37.5206083,18.0678898 37.09,17.9 C35.7290131,17.3524612 34.1788475,17.5777316 33.03,18.49 C32.82,18.71 32.6,18.91 32.39,19.11 L35.39,22.11 C36.05,21.38 36.76,20.75 37.46,20.15 Z" id="Shape" stroke="#4550E5" stroke-linecap="round" stroke-linejoin="round"></path>
            <path d="M32.39,19.06 C31.4440345,19.9285067 30.3924214,20.6743793 29.26,21.28 L32.59,24.62 L35.35,22 L32.39,19.06 Z" id="Shape" stroke="#4550E5" stroke-linecap="round" stroke-linejoin="round"></path>
            <path d="M17.84,15.51 L17.06,9.28 L13,9.68 L13.55,15.75 C14.9745419,15.5916901 16.4066894,15.51157 17.84,15.51 Z" id="Shape" stroke="#4550E5" stroke-linecap="round" stroke-linejoin="round"></path>
            <path d="M12.67,15.86 L11.15,10.72 L7.21,11.72 L8.77,16.72 C10.0356558,16.2952343 11.3430781,16.0069309 12.67,15.86 Z" id="Shape" stroke="#4550E5" stroke-linecap="round" stroke-linejoin="round"></path>
            <path d="M5.84,20.28 C5.64,18.94 6.46,17.95 7.84,17.22 L6.5,15 L2.94,17 L6.18,22.57 L5.84,20.28 Z" id="Shape" stroke="#4550E5" stroke-linecap="round" stroke-linejoin="round"></path>
            <path d="M23.36,39.05 C23.2215155,37.6617465 22.0551396,36.6033683 20.66,36.6 L9.26,36.6 C7.8610315,36.598234 6.68886719,37.6579397 6.55,39.05 L5.55,49.41 C5.48761873,49.8866476 5.77321192,50.3402368 6.23,50.49 C11.8987248,52.5101938 18.0912752,52.5101938 23.76,50.49 C24.2167881,50.3402368 24.5023813,49.8866476 24.44,49.41 L23.36,39.05 Z" id="Shape" stroke="#4550E5" stroke-linecap="round" stroke-linejoin="round"></path>
            <path d="M15,30 C15.137011,29.9999737 15.2682703,30.0550762 15.3642066,30.1528936 C15.4601428,30.250711 15.5126865,30.3830154 15.51,30.52 C15.5099609,30.731222 15.3821576,30.9214348 15.1866165,31.0012997 C14.9910753,31.0811645 14.7666516,31.0348118 14.6187521,30.8840123 C14.4708526,30.7332129 14.428866,30.5079315 14.5125123,30.3139778 C14.5961587,30.1200241 14.788817,29.995938 15,30 Z" id="Shape" stroke="#4550E5" stroke-linecap="round" stroke-linejoin="round"></path>
        </g>
    </g>
</svg>
