<svg width="88px" height="64px" viewBox="0 0 88 64" version="1.1" xmlns="http://www.w3.org/2000/svg" xmlns:xlink="http://www.w3.org/1999/xlink">
    <!-- Generator: Sketch 48.2 (47327) - http://www.bohemiancoding.com/sketch -->
    <desc>Created with Sketch.</desc>
    <defs></defs>
    <g id="Page-1" stroke="none" stroke-width="1" fill="none" fill-rule="evenodd">
        <g id="lucky-cat-money">
            <path d="M84,40.1 C83.9984701,23.7646106 74.0640168,9.07150733 58.9050828,2.98449909 C43.7461489,-3.10250915 26.4090288,0.639804837 15.1106656,12.4377681 C3.81230241,24.2357314 0.823181775,41.7184602 7.56,56.6 L80.43,56.6 C82.7844095,51.4179718 84.0017071,45.7918062 84,40.1 Z" id="Shape" fill="#F0F2FF" fill-rule="nonzero"></path>
            <path d="M5,56.6 L83,56.6" id="Shape" stroke="#4550E5" stroke-linecap="round" stroke-linejoin="round"></path>
            <path d="M0.5,56.6 L3,56.6" id="Shape" stroke="#4550E5" stroke-linecap="round" stroke-linejoin="round"></path>
            <path d="M85,56.6 L87.5,56.6" id="Shape" stroke="#4550E5" stroke-linecap="round" stroke-linejoin="round"></path>
            <ellipse id="Oval" fill="#F0F2FF" fill-rule="nonzero" cx="32.54" cy="62.25" rx="9.07" ry="1.65"></ellipse>
            <ellipse id="Oval" fill="#F0F2FF" fill-rule="nonzero" cx="59.25" cy="61.15" rx="9.08" ry="1.65"></ellipse>
            <path d="M27.9,49.05 L27.9,34.75 C24.2572041,34.7555069 21.3055069,37.7072041 21.3,41.35 L21.3,49.05 L27.9,49.05 Z" id="Shape" fill="#FFFFFF" fill-rule="nonzero"></path>
            <path d="M27.9,49.05 L27.9,34.75 C24.2572041,34.7555069 21.3055069,37.7072041 21.3,41.35 L21.3,49.05 L27.9,49.05 Z" id="Shape" stroke="#4550E5" stroke-linecap="round" stroke-linejoin="round"></path>
            <path d="M29,54.55 L24.05,54.55 C22.5312169,54.55 21.3,53.3187831 21.3,51.8 L21.3,49.05 L29,49.05 L29,54.55 Z" id="Shape" fill="#FFFFFF" fill-rule="nonzero"></path>
            <path d="M29,54.55 L24.05,54.55 C22.5312169,54.55 21.3,53.3187831 21.3,51.8 L21.3,49.05 L29,49.05 L29,54.55 Z" id="Shape" stroke="#4550E5" stroke-linecap="round" stroke-linejoin="round"></path>
            <path d="M60.35,27.05 L57.6,41.3500076 L59.25,41.35 C61.0012428,41.3526594 62.6815242,40.6581583 63.9198413,39.4198413 C65.1581583,38.1815242 65.8526594,36.5012428 65.85,34.75 L65.8500076,27.05 L60.35,27.05 Z" id="Shape" fill="#FFFFFF" fill-rule="nonzero"></path>
            <path d="M60.35,27.05 L57.6,41.3500076 L59.25,41.35 C61.0012428,41.3526594 62.6815242,40.6581583 63.9198413,39.4198413 C65.1581583,38.1815242 65.8526594,36.5012428 65.85,34.75 L65.8500076,27.05 L60.35,27.05 Z" id="Shape" stroke="#4550E5" stroke-linecap="round" stroke-linejoin="round"></path>
            <path d="M63.1,21.55 L60.35,21.55 C58.8312169,21.55 57.6,22.7812169 57.6,24.3 C57.6,25.8187831 58.8312169,27.05 60.35,27.05 L65.85,27.05 L65.85,24.3 C65.85,22.7812169 64.6187831,21.55 63.1,21.55 Z" id="Shape" stroke="#4550E5" fill="#FFFFFF" fill-rule="nonzero" stroke-linecap="round" stroke-linejoin="round"></path>
            <path d="M59.42,37.23 C57.75,32.36 55.56,32.39 54.71,28.89 L53.87,24.75 C52.81,18.12 47.37,17.75 42.75,17.75 C38.13,17.75 32.75,18.17 31.64,24.75 L30.79,28.89 C29.94,32.39 27.79,32.36 26.08,37.23 C23.62,44.36 24.75,58.4 36.4,58.4 L49.1,58.4 C60.75,58.4 61.88,44.36 59.42,37.23 Z" id="Shape" fill="#FFFFFF" fill-rule="nonzero"></path>
            <path d="M59.42,37.23 C57.75,32.36 55.56,32.39 54.71,28.89 L53.87,24.75 C52.81,18.12 47.37,17.75 42.75,17.75 C38.13,17.75 32.75,18.17 31.64,24.75 L30.79,28.89 C29.94,32.39 27.79,32.36 26.08,37.23 C23.62,44.36 24.75,58.4 36.4,58.4 L49.1,58.4 C60.75,58.4 61.88,44.36 59.42,37.23 Z" id="Shape" stroke="#4550E5" stroke-linecap="round" stroke-linejoin="round"></path>
            <path d="M53.4,51.68 C53.2088363,51.2135762 52.7975349,50.8733016 52.303557,50.7728996 C51.8095791,50.6724976 51.298077,50.8252105 50.94,51.18 C48.7688283,53.2196805 46.0130216,54.5276396 43.06,54.92 C42.5839452,54.9672459 42.1579107,55.2358538 41.9100457,55.6450277 C41.6621808,56.0542016 41.6214111,56.5561911 41.8,57 L43,59.89 C43.2604665,60.5368875 43.9300358,60.9212699 44.62,60.82 C47.8027781,60.2582048 50.8236925,59.005464 53.47,57.15 C54.4531183,56.4272326 54.812815,55.1248823 54.34,54 L53.4,51.68 Z" id="Shape" stroke="#4550E5" fill="#D6DAFF" fill-rule="nonzero" stroke-linejoin="round"></path>
            <path d="M49.4,56.4 C49.4040526,56.8579306 49.1313213,57.2730287 48.7094063,57.4510864 C48.2874913,57.6291441 47.7998272,57.5349501 47.4745727,57.212574 C47.1493182,56.8901979 47.0507932,56.4033902 47.2250936,55.9799092 C47.399394,55.5564282 47.8120515,55.2800179 48.27,55.28 C48.8879815,55.2853264 49.3891808,55.7820903 49.4,56.4 Z" id="Shape" fill="#FFFFFF" fill-rule="nonzero"></path>
            <path d="M31.64,24.75 C32.51,19.28 36.36,18.04 40.28,17.75 C39,16.31 35.66,13.02 32.93,14.13 C30.2,15.24 30.85,22.28 31.4,25.85 L31.64,24.75 Z" id="Shape" fill="#FFFFFF" fill-rule="nonzero"></path>
            <path d="M31.64,24.75 C32.51,19.28 36.36,18.04 40.28,17.75 C39,16.31 35.66,13.02 32.93,14.13 C30.2,15.24 30.85,22.28 31.4,25.85 L31.64,24.75 Z" id="Shape" stroke="#4550E5" stroke-linecap="round" stroke-linejoin="round"></path>
            <path d="M53.87,24.75 C52.99,19.28 49.14,18.04 45.22,17.75 C46.5,16.31 49.84,13.02 52.57,14.13 C55.3,15.24 54.65,22.28 54.1,25.85 L53.87,24.75 Z" id="Shape" fill="#FFFFFF" fill-rule="nonzero"></path>
            <path d="M53.87,24.75 C52.99,19.28 49.14,18.04 45.22,17.75 C46.5,16.31 49.84,13.02 52.57,14.13 C55.3,15.24 54.65,22.28 54.1,25.85 L53.87,24.75 Z" id="Shape" stroke="#4550E5" stroke-linecap="round" stroke-linejoin="round"></path>
            <polygon id="Shape" stroke="#4550E5" stroke-linecap="round" stroke-linejoin="round" points="42.75 26.73 41.43 25.41 44.07 25.41"></polygon>
            <path d="M34.83,25.41 L38.13,26.07" id="Shape" stroke="#4550E5" stroke-linecap="round" stroke-linejoin="round"></path>
            <path d="M34.83,29.37 L38.13,28.71" id="Shape" stroke="#4550E5" stroke-linecap="round" stroke-linejoin="round"></path>
            <path d="M40.11,23.43 C39.4653902,22.2035278 38.195547,21.4339258 36.81,21.43" id="Shape" stroke="#4550E5" stroke-linecap="round" stroke-linejoin="round"></path>
            <path d="M50.67,25.41 L47.37,26.07" id="Shape" stroke="#4550E5" stroke-linecap="round" stroke-linejoin="round"></path>
            <path d="M50.67,29.37 L47.37,28.71" id="Shape" stroke="#4550E5" stroke-linecap="round" stroke-linejoin="round"></path>
            <path d="M45.39,23.43 C46.0346098,22.2035278 47.304453,21.4339258 48.69,21.43" id="Shape" stroke="#4550E5" stroke-linecap="round" stroke-linejoin="round"></path>
            <path d="M29.91,31 C29.34,31.91 28.63,32.6 27.91,33.61 C29.83,34.41 34.43,35.83 42.76,35.83 C51.09,35.83 55.69,34.41 57.61,33.61 C56.88,32.61 56.17,31.91 55.61,31 C51.4242529,32.1165307 47.1009096,32.6316955 42.77,32.53 C38.4324123,32.6335988 34.1022,32.118418 29.91,31 Z" id="Shape" fill="#D6DAFF" fill-rule="nonzero"></path>
            <path d="M29.91,31 C29.34,31.91 28.63,32.6 27.91,33.61 C29.83,34.41 34.43,35.83 42.76,35.83 C51.09,35.83 55.69,34.41 57.61,33.61 C56.88,32.61 56.17,31.91 55.61,31 C51.4242529,32.1165307 47.1009096,32.6316955 42.77,32.53 C38.4324123,32.6335988 34.1022,32.118418 29.91,31 Z" id="Shape" stroke="#4550E5" stroke-linecap="round" stroke-linejoin="round"></path>
            <circle id="Oval" fill="#D6DAFF" fill-rule="nonzero" cx="42.75" cy="39.7" r="3.85"></circle>
            <circle id="Oval" stroke="#4550E5" cx="42.75" cy="39.7" r="3.85"></circle>
            <path d="M37.8,39.7 L47.7,39.7" id="Shape" stroke="#4550E5" stroke-linecap="round" stroke-linejoin="round"></path>
            <path d="M31.48,50.15 L27.63,50.15 C27.110765,50.1056793 26.6108463,50.3576312 26.3375816,50.8013606 C26.0643169,51.24509 26.0643169,51.80491 26.3375816,52.2486394 C26.6108463,52.6923688 27.110765,52.9443207 27.63,52.9 L31.48,52.9 C32.1940606,52.8390494 32.7426331,52.2416572 32.7426331,51.525 C32.7426331,50.8083428 32.1940606,50.2109506 31.48,50.15 Z" id="Shape" fill="#FFFFFF" fill-rule="nonzero"></path>
            <path d="M31.48,50.15 L27.63,50.15 C27.110765,50.1056793 26.6108463,50.3576312 26.3375816,50.8013606 C26.0643169,51.24509 26.0643169,51.80491 26.3375816,52.2486394 C26.6108463,52.6923688 27.110765,52.9443207 27.63,52.9 L31.48,52.9 C32.1940606,52.8390494 32.7426331,52.2416572 32.7426331,51.525 C32.7426331,50.8083428 32.1940606,50.2109506 31.48,50.15 Z" id="Shape" stroke="#4550E5"></path>
            <path d="M29.28,52.9 L25.43,52.9 C24.910765,52.8556793 24.4108463,53.1076312 24.1375816,53.5513606 C23.8643169,53.99509 23.8643169,54.55491 24.1375816,54.9986394 C24.4108463,55.4423688 24.910765,55.6943207 25.43,55.65 L29.28,55.65 C29.9940606,55.5890494 30.5426331,54.9916572 30.5426331,54.275 C30.5426331,53.5583428 29.9940606,52.9609506 29.28,52.9 Z" id="Shape" fill="#FFFFFF" fill-rule="nonzero"></path>
            <path d="M29.28,52.9 L25.43,52.9 C24.910765,52.8556793 24.4108463,53.1076312 24.1375816,53.5513606 C23.8643169,53.99509 23.8643169,54.55491 24.1375816,54.9986394 C24.4108463,55.4423688 24.910765,55.6943207 25.43,55.65 L29.28,55.65 C29.9940606,55.5890494 30.5426331,54.9916572 30.5426331,54.275 C30.5426331,53.5583428 29.9940606,52.9609506 29.28,52.9 Z" id="Shape" stroke="#4550E5"></path>
            <path d="M31.48,55.65 L27.63,55.65 C27.110765,55.6056793 26.6108463,55.8576312 26.3375816,56.3013606 C26.0643169,56.74509 26.0643169,57.30491 26.3375816,57.7486394 C26.6108463,58.1923688 27.110765,58.4443207 27.63,58.4 L31.48,58.4 C32.1940606,58.3390494 32.7426331,57.7416572 32.7426331,57.025 C32.7426331,56.3083428 32.1940606,55.7109506 31.48,55.65 Z" id="Shape" fill="#FFFFFF" fill-rule="nonzero"></path>
            <path d="M31.48,55.65 L27.63,55.65 C27.110765,55.6056793 26.6108463,55.8576312 26.3375816,56.3013606 C26.0643169,56.74509 26.0643169,57.30491 26.3375816,57.7486394 C26.6108463,58.1923688 27.110765,58.4443207 27.63,58.4 L31.48,58.4 C32.1940606,58.3390494 32.7426331,57.7416572 32.7426331,57.025 C32.7426331,56.3083428 32.1940606,55.7109506 31.48,55.65 Z" id="Shape" stroke="#4550E5"></path>
            <path d="M31.48,58.4 L27.63,58.4 C27.110765,58.3556793 26.6108463,58.6076312 26.3375816,59.0513606 C26.0643169,59.49509 26.0643169,60.05491 26.3375816,60.4986394 C26.6108463,60.9423688 27.110765,61.1943207 27.63,61.15 L31.48,61.15 C32.1940606,61.0890494 32.7426331,60.4916572 32.7426331,59.775 C32.7426331,59.0583428 32.1940606,58.4609506 31.48,58.4 Z" id="Shape" fill="#FFFFFF" fill-rule="nonzero"></path>
            <path d="M31.48,58.4 L27.63,58.4 C27.110765,58.3556793 26.6108463,58.6076312 26.3375816,59.0513606 C26.0643169,59.49509 26.0643169,60.05491 26.3375816,60.4986394 C26.6108463,60.9423688 27.110765,61.1943207 27.63,61.15 L31.48,61.15 C32.1940606,61.0890494 32.7426331,60.4916572 32.7426331,59.775 C32.7426331,59.0583428 32.1940606,58.4609506 31.48,58.4 Z" id="Shape" stroke="#4550E5"></path>
            <path d="M38.08,55.65 L34.23,55.65 C33.710765,55.6056793 33.2108463,55.8576312 32.9375816,56.3013606 C32.6643169,56.74509 32.6643169,57.30491 32.9375816,57.7486394 C33.2108463,58.1923688 33.710765,58.4443207 34.23,58.4 L38.08,58.4 C38.7940606,58.3390494 39.3426331,57.7416572 39.3426331,57.025 C39.3426331,56.3083428 38.7940606,55.7109506 38.08,55.65 Z" id="Shape" fill="#FFFFFF" fill-rule="nonzero"></path>
            <path d="M38.08,55.65 L34.23,55.65 C33.710765,55.6056793 33.2108463,55.8576312 32.9375816,56.3013606 C32.6643169,56.74509 32.6643169,57.30491 32.9375816,57.7486394 C33.2108463,58.1923688 33.710765,58.4443207 34.23,58.4 L38.08,58.4 C38.7940606,58.3390494 39.3426331,57.7416572 39.3426331,57.025 C39.3426331,56.3083428 38.7940606,55.7109506 38.08,55.65 Z" id="Shape" stroke="#4550E5"></path>
            <path d="M38.08,58.4 L34.23,58.4 C33.710765,58.3556793 33.2108463,58.6076312 32.9375816,59.0513606 C32.6643169,59.49509 32.6643169,60.05491 32.9375816,60.4986394 C33.2108463,60.9423688 33.710765,61.1943207 34.23,61.15 L38.08,61.15 C38.7940606,61.0890494 39.3426331,60.4916572 39.3426331,59.775 C39.3426331,59.0583428 38.7940606,58.4609506 38.08,58.4 Z" id="Shape" fill="#FFFFFF" fill-rule="nonzero"></path>
            <path d="M38.08,58.4 L34.23,58.4 C33.710765,58.3556793 33.2108463,58.6076312 32.9375816,59.0513606 C32.6643169,59.49509 32.6643169,60.05491 32.9375816,60.4986394 C33.2108463,60.9423688 33.710765,61.1943207 34.23,61.15 L38.08,61.15 C38.7940606,61.0890494 39.3426331,60.4916572 39.3426331,59.775 C39.3426331,59.0583428 38.7940606,58.4609506 38.08,58.4 Z" id="Shape" stroke="#4550E5"></path>
            <path d="M57.88,54.55 L54,54.55 C53.480765,54.5056793 52.9808463,54.7576312 52.7075816,55.2013606 C52.4343169,55.64509 52.4343169,56.20491 52.7075816,56.6486394 C52.9808463,57.0923688 53.480765,57.3443207 54,57.3 L57.85,57.3 C58.5640606,57.2390494 59.1126331,56.6416572 59.1126331,55.925 C59.1126331,55.2083428 58.5640606,54.6109506 57.85,54.55 L57.88,54.55 Z" id="Shape" fill="#FFFFFF" fill-rule="nonzero"></path>
            <path d="M57.88,54.55 L54,54.55 C53.480765,54.5056793 52.9808463,54.7576312 52.7075816,55.2013606 C52.4343169,55.64509 52.4343169,56.20491 52.7075816,56.6486394 C52.9808463,57.0923688 53.480765,57.3443207 54,57.3 L57.85,57.3 C58.5640606,57.2390494 59.1126331,56.6416572 59.1126331,55.925 C59.1126331,55.2083428 58.5640606,54.6109506 57.85,54.55 L57.88,54.55 Z" id="Shape" stroke="#4550E5"></path>
            <path d="M57.88,57.3 L54,57.3 C53.480765,57.2556793 52.9808463,57.5076312 52.7075816,57.9513606 C52.4343169,58.39509 52.4343169,58.95491 52.7075816,59.3986394 C52.9808463,59.8423688 53.480765,60.0943207 54,60.05 L57.85,60.05 C58.5640606,59.9890494 59.1126331,59.3916572 59.1126331,58.675 C59.1126331,57.9583428 58.5640606,57.3609506 57.85,57.3 L57.88,57.3 Z" id="Shape" fill="#FFFFFF" fill-rule="nonzero"></path>
            <path d="M57.88,57.3 L54,57.3 C53.480765,57.2556793 52.9808463,57.5076312 52.7075816,57.9513606 C52.4343169,58.39509 52.4343169,58.95491 52.7075816,59.3986394 C52.9808463,59.8423688 53.480765,60.0943207 54,60.05 L57.85,60.05 C58.5640606,59.9890494 59.1126331,59.3916572 59.1126331,58.675 C59.1126331,57.9583428 58.5640606,57.3609506 57.85,57.3 L57.88,57.3 Z" id="Shape" stroke="#4550E5"></path>
            <path d="M64.48,54.55 L60.63,54.55 C60.110765,54.5056793 59.6108463,54.7576312 59.3375816,55.2013606 C59.0643169,55.64509 59.0643169,56.20491 59.3375816,56.6486394 C59.6108463,57.0923688 60.110765,57.3443207 60.63,57.3 L64.48,57.3 C65.1940606,57.2390494 65.7426331,56.6416572 65.7426331,55.925 C65.7426331,55.2083428 65.1940606,54.6109506 64.48,54.55 Z" id="Shape" fill="#FFFFFF" fill-rule="nonzero"></path>
            <path d="M64.48,54.55 L60.63,54.55 C60.110765,54.5056793 59.6108463,54.7576312 59.3375816,55.2013606 C59.0643169,55.64509 59.0643169,56.20491 59.3375816,56.6486394 C59.6108463,57.0923688 60.110765,57.3443207 60.63,57.3 L64.48,57.3 C65.1940606,57.2390494 65.7426331,56.6416572 65.7426331,55.925 C65.7426331,55.2083428 65.1940606,54.6109506 64.48,54.55 Z" id="Shape" stroke="#4550E5"></path>
            <path d="M67.78,51.8 L63.93,51.8 C63.410765,51.7556793 62.9108463,52.0076312 62.6375816,52.4513606 C62.3643169,52.89509 62.3643169,53.45491 62.6375816,53.8986394 C62.9108463,54.3423688 63.410765,54.5943207 63.93,54.55 L67.78,54.55 C68.4940606,54.4890494 69.0426331,53.8916572 69.0426331,53.175 C69.0426331,52.4583428 68.4940606,51.8609506 67.78,51.8 Z" id="Shape" fill="#FFFFFF" fill-rule="nonzero"></path>
            <path d="M67.78,51.8 L63.93,51.8 C63.410765,51.7556793 62.9108463,52.0076312 62.6375816,52.4513606 C62.3643169,52.89509 62.3643169,53.45491 62.6375816,53.8986394 C62.9108463,54.3423688 63.410765,54.5943207 63.93,54.55 L67.78,54.55 C68.4940606,54.4890494 69.0426331,53.8916572 69.0426331,53.175 C69.0426331,52.4583428 68.4940606,51.8609506 67.78,51.8 Z" id="Shape" stroke="#4550E5"></path>
            <path d="M64.84,49.05 L61,49.05 C60.480765,49.0056793 59.9808463,49.2576312 59.7075816,49.7013606 C59.4343169,50.14509 59.4343169,50.70491 59.7075816,51.1486394 C59.9808463,51.5923688 60.480765,51.8443207 61,51.8 L64.85,51.8 C65.5640606,51.7390494 66.1126331,51.1416572 66.1126331,50.425 C66.1126331,49.7083428 65.5640606,49.1109506 64.85,49.05 L64.84,49.05 Z" id="Shape" fill="#FFFFFF" fill-rule="nonzero"></path>
            <path d="M64.84,49.05 L61,49.05 C60.480765,49.0056793 59.9808463,49.2576312 59.7075816,49.7013606 C59.4343169,50.14509 59.4343169,50.70491 59.7075816,51.1486394 C59.9808463,51.5923688 60.480765,51.8443207 61,51.8 L64.85,51.8 C65.5640606,51.7390494 66.1126331,51.1416572 66.1126331,50.425 C66.1126331,49.7083428 65.5640606,49.1109506 64.85,49.05 L64.84,49.05 Z" id="Shape" stroke="#4550E5"></path>
            <path d="M64.48,57.3 L60.63,57.3 C60.110765,57.2556793 59.6108463,57.5076312 59.3375816,57.9513606 C59.0643169,58.39509 59.0643169,58.95491 59.3375816,59.3986394 C59.6108463,59.8423688 60.110765,60.0943207 60.63,60.05 L64.48,60.05 C65.1940606,59.9890494 65.7426331,59.3916572 65.7426331,58.675 C65.7426331,57.9583428 65.1940606,57.3609506 64.48,57.3 Z" id="Shape" fill="#FFFFFF" fill-rule="nonzero"></path>
            <path d="M64.48,57.3 L60.63,57.3 C60.110765,57.2556793 59.6108463,57.5076312 59.3375816,57.9513606 C59.0643169,58.39509 59.0643169,58.95491 59.3375816,59.3986394 C59.6108463,59.8423688 60.110765,60.0943207 60.63,60.05 L64.48,60.05 C65.1940606,59.9890494 65.7426331,59.3916572 65.7426331,58.675 C65.7426331,57.9583428 65.1940606,57.3609506 64.48,57.3 Z" id="Shape" stroke="#4550E5"></path>
            <path d="M78.79,39 C79.0063456,37.9985772 79.7885772,37.2163456 80.79,37 L84.79,36.08 C84.9368665,36.0433013 85.0399283,35.9113822 85.04,35.76 C85.0478506,35.6060019 84.9413216,35.4696448 84.79,35.44 L80.79,34.52 C79.7910822,34.2990724 79.0109276,33.5189178 78.79,32.52 L77.87,28.52 C77.8330599,28.3733807 77.7012012,28.2706226 77.55,28.2706226 C77.3987988,28.2706226 77.2669401,28.3733807 77.23,28.52 L76.31,32.52 C76.0890724,33.5189178 75.3089178,34.2990724 74.31,34.52 L70.31,35.44 C70.1586784,35.4696448 70.0521494,35.6060019 70.06,35.76 C70.0600717,35.9113822 70.1631335,36.0433013 70.31,36.08 L74.31,37 C75.3101653,37.2186492 76.0913508,37.9998347 76.31,39 L77.23,43 C77.2669401,43.1466193 77.3987988,43.2493774 77.55,43.2493774 C77.7012012,43.2493774 77.8330599,43.1466193 77.87,43 L78.79,39 Z" id="Shape" stroke="#4550E5" fill="#FFFFFF" fill-rule="nonzero" stroke-linecap="round" stroke-linejoin="round"></path>
            <path d="M11.78,50.62 L14.88,49.62 C14.9958526,49.5754368 15.0722967,49.4641278 15.0722967,49.34 C15.0722967,49.2158722 14.9958526,49.1045632 14.88,49.06 L12.33,48.21 C11.9797582,48.0949367 11.7050633,47.8202418 11.59,47.47 L10.74,44.92 C10.7005728,44.7991823 10.5870742,44.7181118 10.46,44.72 C10.3366125,44.7224254 10.2282762,44.8026744 10.19,44.92 L9.34,47.47 C9.2249367,47.8202418 8.95024185,48.0949367 8.6,48.21 L6,49 C5.88414741,49.0445632 5.8077033,49.1558722 5.8077033,49.28 C5.8077033,49.4041278 5.88414741,49.5154368 6,49.56 L8.56,50.41 C8.91024185,50.5250633 9.1849367,50.7997582 9.3,51.15 L10.15,53.7 C10.1882762,53.8173256 10.2966125,53.8975746 10.42,53.9 C10.5470742,53.9018882 10.6605728,53.8208177 10.7,53.7 L11.78,50.62 Z" id="Shape" stroke="#4550E5" fill="#FFFFFF" fill-rule="nonzero" stroke-linecap="round" stroke-linejoin="round"></path>
        </g>
    </g>
</svg>
