<svg width="56px" height="68px" viewBox="0 0 56 68" version="1.1" xmlns="http://www.w3.org/2000/svg" xmlns:xlink="http://www.w3.org/1999/xlink">
    <!-- Generator: Sketch 48.2 (47327) - http://www.bohemiancoding.com/sketch -->
    <desc>Created with Sketch.</desc>
    <defs></defs>
    <g id="Page-1" stroke="none" stroke-width="1" fill="none" fill-rule="evenodd" stroke-linecap="round" stroke-linejoin="round">
        <g id="ipod" transform="translate(0.000000, 1.000000)" stroke="#4550E5">
            <path d="M40.69,63.63 C40.69,64.789798 39.749798,65.73 38.59,65.73 L16.33,65.73 C15.170202,65.73 14.23,64.789798 14.23,63.63 L14.23,26.25 C14.23,25.090202 15.170202,24.15 16.33,24.15 L38.59,24.15 C39.1469546,24.15 39.6810978,24.3712494 40.0749242,24.7650758 C40.4687506,25.1589022 40.69,25.6930454 40.69,26.25 L40.69,63.63 Z" id="Shape"></path>
            <path d="M35.65,53.76 C35.65,58.2832121 31.9832121,61.95 27.46,61.95 C22.9367879,61.95 19.27,58.2832121 19.27,53.76 C19.27,49.2367879 22.9367879,45.57 27.46,45.57 C31.9832121,45.57 35.65,49.2367879 35.65,53.76 Z" id="Shape"></path>
            <circle id="Oval" cx="27.46" cy="53.76" r="3.15"></circle>
            <path d="M36.91,40.74 C36.91,41.2922847 36.4622847,41.74 35.91,41.74 L19.06,41.74 C18.7862314,41.7537058 18.5188386,41.6544311 18.320344,41.4653888 C18.1218495,41.2763464 18.0096571,41.0141113 18.01,40.74 L18.01,29 C18.0096571,28.7258887 18.1218495,28.4636536 18.320344,28.2746112 C18.5188386,28.0855689 18.7862314,27.9862942 19.06,28 L35.86,28 C36.4122847,28 36.86,28.4477153 36.86,29 L36.91,40.74 Z" id="Shape"></path>
            <path d="M26.52,31.73 C26.3219833,31.615675 26.0780167,31.615675 25.88,31.73 C25.6899941,31.8488155 25.5732586,32.0559269 25.57,32.28 L25.57,37.62 C25.5735022,37.8465796 25.6947537,38.0549806 25.89,38.17 C26.0880167,38.284325 26.3319833,38.284325 26.53,38.17 L31,35.41 C31.1905304,35.2929076 31.3047062,35.0835851 31.3,34.86 C31.2995927,34.6404142 31.1811953,34.4379928 30.99,34.33 L26.52,31.73 Z" id="Shape"></path>
            <path d="M24.71,15 C24.71,16.2978692 23.6578692,17.35 22.36,17.35 C21.0621308,17.35 20.01,16.2978692 20.01,15 C20.01,13.7021308 21.0621308,12.65 22.36,12.65 C23.6578692,12.65 24.71,13.7021308 24.71,15 Z" id="Shape"></path>
            <path d="M36.47,12.61 C36.47,13.9078692 35.4178692,14.96 34.12,14.96 C32.8221308,14.96 31.77,13.9078692 31.77,12.61 C31.77,11.3121308 32.8221308,10.26 34.12,10.26 C35.4178692,10.26 36.47,11.3121308 36.47,12.61 Z" id="Shape"></path>
            <path d="M24.71,15 L24.71,5.23 C24.7140033,4.71362666 25.0302684,4.25108902 25.51,4.06 L34.75,0.36 C35.137973,0.210784859 35.5742443,0.259259444 35.92,0.49 C36.2524395,0.716437013 36.4567914,1.08798599 36.47,1.49 L36.47,12.61" id="Shape"></path>
            <path d="M2.89,29.76 C3.9945695,29.76 4.89,30.6554305 4.89,31.76 C4.89,32.8645695 3.9945695,33.76 2.89,33.76 C1.7854305,33.76 0.89,32.8645695 0.89,31.76 C0.89,30.6554305 1.7854305,29.76 2.89,29.76 Z" id="Shape"></path>
            <polyline id="Shape" points="4.86 31.72 4.86 22.86 7.81 24.83"></polyline>
            <path d="M50,31.8 C50,32.4958788 49.4358788,33.06 48.74,33.06 C48.0441212,33.06 47.48,32.4958788 47.48,31.8 C47.48,31.1041212 48.0441212,30.54 48.74,30.54 C49.0749904,30.5373092 49.3970422,30.6691946 49.6339238,30.9060762 C49.8708054,31.1429578 50.0026908,31.4650096 50,31.8 Z" id="Shape"></path>
            <polyline id="Shape" points="50.04 31.8 50.04 26.13 51.93 27.39"></polyline>
            <path d="M51.3,40.94 L51.3,39.99" id="Shape"></path>
            <path d="M53.3,41.77 L53.97,41.1" id="Shape"></path>
            <path d="M54.14,43.77 L55.08,43.77" id="Shape"></path>
            <path d="M53.3,45.78 L53.97,46.45" id="Shape"></path>
            <path d="M51.3,46.61 L51.3,47.55" id="Shape"></path>
            <path d="M49.3,45.78 L48.63,46.45" id="Shape"></path>
            <path d="M48.46,43.77 L47.52,43.77" id="Shape"></path>
            <path d="M49.3,41.77 L48.63,41.1" id="Shape"></path>
            <path d="M45,17.31 L45,14.79" id="Shape"></path>
            <path d="M43.74,16.05 L46.26,16.05" id="Shape"></path>
            <path d="M10.35,17.31 L10.35,12.27" id="Shape"></path>
            <path d="M7.83,14.79 L12.87,14.79" id="Shape"></path>
            <path d="M2.26,44.4 L2.26,41.88" id="Shape"></path>
            <path d="M1,43.14 L3.52,43.14" id="Shape"></path>
        </g>
    </g>
</svg>
