<svg xmlns="http://www.w3.org/2000/svg" width="88" height="74">
  <g fill="none" fill-rule="evenodd">
    <path fill="#F0F2FF" fill-rule="nonzero" d="M84 40.25c-.0015-16.3354-9.936-31.0285-25.095-37.1155-15.1589-6.087-32.496-2.3447-43.7943 9.4533C3.8123 24.3858.8232 41.8685 7.56 56.75h72.88A39.85 39.85 0 0 0 84 40.25z"/>
    <path stroke="#4550E5" stroke-linecap="round" stroke-linejoin="round" d="M5 56.75h78m-82.5 0H3m82 0h2.5"/>
    <path fill="#FFF" fill-rule="nonzero" stroke="#4550E5" stroke-linecap="round" stroke-linejoin="round" d="M41 19.75h35c1.1046 0 2 .8954 2 2v19.5H39v-19.5c0-1.1046.8954-2 2-2z"/>
    <path fill="#D6DAFF" fill-rule="nonzero" stroke="#4550E5" stroke-linecap="round" stroke-linejoin="round" d="M80.32 42.5c.0112.6755-.5246 1.2336-1.2 1.25H38.2c-.6904 0-1.25-.5596-1.25-1.25s.5596-1.25 1.25-1.25h40.92c.6754.0164 1.2112.5745 1.2 1.25z"/>
    <path fill="#4550E5" fill-rule="nonzero" d="M49.79 27.81h-.64a.7.7 0 0 1-.74-.75.72.72 0 0 1 .74-.74h1.54a.7.7 0 0 1 .72.77v6.16a.81.81 0 0 1-1.62 0v-5.44zm4.96 1.26a.65.65 0 1 1 1.3 0v1.57h1.57a.65.65 0 1 1 0 1.3h-1.57v1.57a.65.65 0 1 1-1.3 0v-1.57h-1.57a.65.65 0 1 1 0-1.3h1.57v-1.57zm5.54-1.26h-.64a.7.7 0 0 1-.73-.75.72.72 0 0 1 .73-.74h1.54a.7.7 0 0 1 .73.77v6.16a.82.82 0 1 1-1.63 0v-5.44zm7.83 1.62a.65.65 0 1 1 0 1.3h-4.44a.65.65 0 1 1 0-1.3h4.44zm0 2.42a.65.65 0 0 1 0 1.3h-4.44a.65.65 0 0 1 0-1.3h4.44z"/>
    <rect width="27" height="3.01" x="46.5" y="46.25" fill="#FFF" fill-rule="nonzero" stroke="#4550E5" stroke-linecap="round" stroke-linejoin="round" rx="1"/>
    <path fill="#FFF" fill-rule="nonzero" d="M47.5 49.26h25v7.49h-25z"/>
    <path stroke="#4550E5" stroke-linecap="round" stroke-linejoin="round" d="M47.5 49.26h25v7.49h-25z"/>
    <path fill="#FFF" fill-rule="nonzero" stroke="#4550E5" stroke-linecap="round" stroke-linejoin="round" d="M70 38.25h2.5v8H70zm-2.5 0H70v8h-2.5z"/>
    <path fill="#D6DAFF" fill-rule="nonzero" stroke="#4550E5" stroke-linecap="round" stroke-linejoin="round" d="M65.2867 38.1146l2.2071.9679-3.1407 7.1616-2.2071-.968z"/>
    <path fill="#FFF" fill-rule="nonzero" d="M43.75 47.25l-.72.86a2.27 2.27 0 0 1-4-1.47v-3.89c0-4.9706-4.0294-9-9-9s-9 4.0294-9 9v12h3.5v-3h11v-5.11a5.8 5.8 0 0 0 5.77 5.91 5.89 5.89 0 0 0 4.53-2.13l.79-.94-2.87-2.23z"/>
    <path stroke="#4550E5" stroke-linecap="round" stroke-linejoin="round" d="M43.75 47.25l-.72.86a2.27 2.27 0 0 1-4-1.47v-3.89c0-4.9706-4.0294-9-9-9s-9 4.0294-9 9v12h3.5v-3h11v-5.11a5.8 5.8 0 0 0 5.77 5.91 5.89 5.89 0 0 0 4.53-2.13l.79-.94-2.87-2.23z"/>
    <ellipse cx="30" cy="72.25" fill="#F0F2FF" fill-rule="nonzero" rx="10" ry="1.5"/>
    <path fill="#D6DAFF" fill-rule="nonzero" stroke="#4550E5" stroke-linejoin="round" d="M30 71.05c0 .6627-.5373 1.2-1.2 1.2h-2.67a1.21 1.21 0 0 1-1.13-1.5l1-3.5h4v3.8z"/>
    <path fill="#FFF" fill-rule="nonzero" stroke="#4550E5" stroke-linecap="round" stroke-linejoin="round" d="M24.5 56.5c0 .9665-.7835 1.75-1.75 1.75S21 57.4665 21 56.5v-1.75h3.5v1.75zM28 69.58c-1.14 0-2-.67-2-2.33h4c0 1.66-.85 2.33-2 2.33z"/>
    <path fill="#D6DAFF" fill-rule="nonzero" stroke="#4550E5" stroke-linejoin="round" d="M30 71.05a1.2 1.2 0 0 0 1.2 1.2h2.67a1.21 1.21 0 0 0 1.13-1.5l-1-3.5h-4v3.8z"/>
    <path fill="#FFF" fill-rule="nonzero" stroke="#4550E5" stroke-linecap="round" stroke-linejoin="round" d="M32 69.58c1.14 0 2-.67 2-2.33h-4c0 1.66.85 2.33 2 2.33z"/>
    <path stroke="#4550E5" stroke-linecap="round" stroke-linejoin="round" d="M30 37.36v14.39m-5.5 2v-7c0-1.86-1.23-2.43-1.23-4.48m12.23 8.98v-4.52c0-1.86 1.23-2.43 1.23-4.48"/>
    <path fill="#FFF" fill-rule="nonzero" stroke="#4550E5" stroke-linecap="round" stroke-linejoin="round" d="M47.62 48.19l-1 1.3-2.84-2.24 1-1.3c.619-.7835 1.7555-.9177 2.54-.3.7835.619.9177 1.7555.3 2.54z"/>
    <path stroke="#4550E5" stroke-linecap="round" stroke-linejoin="round" d="M46.39 47.38l9.6-10.41"/>
    <path fill="#D6DAFF" fill-rule="nonzero" stroke="#4550E5" stroke-linejoin="round" d="M24.5 51.75l1.5 15.5h8l1.5-15.5z"/>
    <path stroke="#4550E5" stroke-linejoin="round" d="M24.5 51.75l1.5 15.5h8l1.5-15.5z"/>
    <path stroke="#4550E5" stroke-linecap="round" stroke-linejoin="round" d="M30 67.25V55.8"/>
    <path fill="#FFF" fill-rule="nonzero" stroke="#4550E5" stroke-linecap="round" stroke-linejoin="round" d="M37 25.75a1.23 1.23 0 0 0-1-1.2v-.8c0-3.3137-2.6863-6-6-6s-6 2.6863-6 6v.8a1.23 1.23 0 0 0-1 1.2A1.25 1.25 0 0 0 24.13 27c.587 2.7735 3.035 4.7578 5.87 4.7578S35.283 29.7735 35.87 27A1.25 1.25 0 0 0 37 25.75z"/>
    <circle cx="26.75" cy="26.5" r="1" fill="#D6DAFF" fill-rule="nonzero"/>
    <circle cx="33.25" cy="26.5" r="1" fill="#D6DAFF" fill-rule="nonzero"/>
    <path stroke="#4550E5" stroke-linecap="round" stroke-linejoin="round" d="M32.7 24.75a.85.85 0 0 0-1.2 0m-4.2 0a.85.85 0 0 1 1.2 0m3 3.5a2.5 2.5 0 0 1-3 0"/>
    <path fill="#FFF" fill-rule="nonzero" d="M38.2 25.35c-1.26-3.79-3.63-9-8.2-9.16-4.57.13-6.94 5.37-8.2 9.16-.9548 2.9017.423 6.0575 3.2 7.33L27.79 34a8.33 8.33 0 0 0-3 1.48c.67 2 1.07 4.72 5.24 4.8 4.17-.08 4.57-2.8 5.24-4.8a8.33 8.33 0 0 0-3-1.48L35 32.68c2.777-1.2725 4.1548-4.4283 3.2-7.33zM30 31.82c-3.3-.08-4.76-2.64-5.56-4.21-1-1.9 2.22-7 5.56-7.21 3.34.18 6.53 5.31 5.56 7.21-.8 1.57-2.26 4.13-5.56 4.21z"/>
    <path stroke="#4550E5" stroke-linecap="round" stroke-linejoin="round" d="M30 31.82c-3.3-.08-4.76-2.64-5.56-4.21-1-1.9 2.22-7 5.56-7.21 3.34.18 6.53 5.31 5.56 7.21-.8 1.57-2.26 4.13-5.56 4.21zm-2.31 4.82a4.75 4.75 0 0 0 4.62 0"/>
    <path stroke="#4550E5" stroke-linecap="round" stroke-linejoin="round" d="M38.2 25.35c-1.26-3.79-3.63-9-8.2-9.16-4.57.13-6.94 5.37-8.2 9.16-.9548 2.9017.423 6.0575 3.2 7.33L27.79 34a8.33 8.33 0 0 0-3 1.48c.67 2 1.07 4.72 5.24 4.8 4.17-.08 4.57-2.8 5.24-4.8a8.33 8.33 0 0 0-3-1.48L35 32.68c2.777-1.2725 4.1548-4.4283 3.2-7.33z"/>
  </g>
</svg>
