<svg width="88px" height="74px" viewBox="0 0 88 74" version="1.1" xmlns="http://www.w3.org/2000/svg" xmlns:xlink="http://www.w3.org/1999/xlink">
    <!-- Generator: Sketch 48.2 (47327) - http://www.bohemiancoding.com/sketch -->
    <desc>Created with Sketch.</desc>
    <defs></defs>
    <g id="Page-1" stroke="none" stroke-width="1" fill="none" fill-rule="evenodd">
        <g id="success-goal-businessman">
            <path d="M84,40.36 C83.9984701,24.0246106 74.0640168,9.33150733 58.9050828,3.24449909 C43.7461489,-2.84250915 26.4090288,0.899804837 15.1106656,12.6977681 C3.81230241,24.4957314 0.823181775,41.9784602 7.56,56.86 L80.44,56.86 C82.7903766,51.677014 84.0042295,46.0510101 84,40.36 Z" id="Shape" fill="#F0F2FF" fill-rule="nonzero"></path>
            <path d="M5,56.86 L83,56.86" id="Shape" stroke="#4550E5" stroke-linecap="round" stroke-linejoin="round"></path>
            <path d="M0.5,56.86 L3,56.86" id="Shape" stroke="#4550E5" stroke-linecap="round" stroke-linejoin="round"></path>
            <path d="M85,56.86 L87.5,56.86" id="Shape" stroke="#4550E5" stroke-linecap="round" stroke-linejoin="round"></path>
            <ellipse id="Oval" fill="#F0F2FF" fill-rule="nonzero" cx="29.45" cy="71.92" rx="11.5" ry="1.72"></ellipse>
            <path d="M38.7,54.09 C38.7,55.2332294 37.7732294,56.16 36.63,56.16 C35.4867706,56.16 34.56,55.2332294 34.56,54.09 L34.56,51.33 L38.7,51.33 L38.7,54.09 Z" id="Shape" stroke="#4550E5" fill="#FFFFFF" fill-rule="nonzero" stroke-linecap="round" stroke-linejoin="round"></path>
            <path d="M33.33,67.89 C34.2297595,67.8801898 35.1207116,68.0679383 35.94,68.44 L35.94,48.57 L20.76,48.57 L20.76,67.89 L23.76,67.89 C24.6477072,67.8832139 25.5268567,68.0638144 26.34,68.42 L26.87,56.16 C26.87,55.36471 27.51471,54.72 28.31,54.72 C29.10529,54.72 29.75,55.36471 29.75,56.16 L30.26,67.89 L33.33,67.89 Z" id="Shape" fill="#FFFFFF" fill-rule="nonzero"></path>
            <path d="M33.33,67.89 C34.2297595,67.8801898 35.1207116,68.0679383 35.94,68.44 L35.94,48.57 L20.76,48.57 L20.76,67.89 L23.76,67.89 C24.6477072,67.8832139 25.5268567,68.0638144 26.34,68.42 L26.87,56.16 C26.87,55.36471 27.51471,54.72 28.31,54.72 C29.10529,54.72 29.75,55.36471 29.75,56.16 L30.26,67.89 L33.33,67.89 Z" id="Shape" stroke="#4550E5" stroke-linecap="round" stroke-linejoin="round"></path>
            <path d="M37.88,71.34 C37.88,68.87 35.46,67.89 33.33,67.89 L30.3299557,67.89 L30.33,70.19 C30.3273054,70.4958171 30.4476003,70.7898923 30.663854,71.006146 C30.8801077,71.2223997 31.1741829,71.3426946 31.48,71.34 L37.88,71.34 Z" id="Shape" stroke="#4550E5" fill="#D6DAFF" fill-rule="nonzero" stroke-linecap="round" stroke-linejoin="round"></path>
            <path d="M28.35,71.34 C28.35,68.87 25.94,67.89 23.8,67.89 L20.8,67.89 L20.8,70.19 C20.8,70.8251275 21.3148725,71.34 21.95,71.34 L28.35,71.34 Z" id="Shape" stroke="#4550E5" fill="#D6DAFF" fill-rule="nonzero" stroke-linecap="round" stroke-linejoin="round"></path>
            <path d="M28.36,9.7 C24.5492352,9.7 21.46,12.7892352 21.46,16.6 L21.46,18 C19.46,18 19.63,21.45 21.81,21.45 C22.8208837,24.7028805 26.0598953,26.7263359 29.4265913,26.2081901 C32.7932874,25.6900443 35.2739874,22.7863062 35.26,19.38 L35.26,16.6 C35.26,14.7700062 34.5330378,13.0149642 33.2390368,11.7209632 C31.9450358,10.4269622 30.1899938,9.7 28.36,9.7 Z" id="Shape" stroke="#4550E5" fill="#FFFFFF" fill-rule="nonzero" stroke-linecap="round" stroke-linejoin="round"></path>
            <path d="M27.15,17.29 C26.7972128,17.2900233 26.479365,17.5030903 26.3453125,17.8294164 C26.21126,18.1557425 26.2875448,18.5307164 26.5384408,18.7787285 C26.7893367,19.0267406 27.1651675,19.0986855 27.4899221,18.9608696 C27.8146767,18.8230536 28.024055,18.5027638 28.02,18.15 C28.0145217,17.6734221 27.6266094,17.2899685 27.15,17.29 Z" id="Shape" fill="#4550E5" fill-rule="nonzero"></path>
            <path d="M32.33,17.29 C31.9763304,17.2859577 31.6554148,17.4964302 31.5181973,17.8224208 C31.3809799,18.1484114 31.4547754,18.5250276 31.7048739,18.7751261 C31.9549724,19.0252246 32.3315886,19.0990201 32.6575792,18.9618027 C32.9835698,18.8245852 33.1940423,18.5036696 33.19,18.15 C33.19,17.6750351 32.8049649,17.29 32.33,17.29 Z" id="Shape" fill="#4550E5" fill-rule="nonzero"></path>
            <path d="M26.29,20.91 C26.29,21.2910765 25.9810765,21.6 25.6,21.6 C25.2189235,21.6 24.91,21.2910765 24.91,20.91 C24.91,20.5289235 25.2189235,20.22 25.6,20.22 C25.9810765,20.22 26.29,20.5289235 26.29,20.91 Z" id="Shape" fill="#D6DAFF" fill-rule="nonzero"></path>
            <path d="M28,22.06 C28.8359711,22.7882123 30.0437085,22.9009345 31,22.34 C31.1427655,22.2559263 31.2797388,22.1623835 31.41,22.06" id="Shape" stroke="#4550E5" stroke-linecap="round" stroke-linejoin="round"></path>
            <path d="M24.57,13.82 C27.57,16.76 32.81,16.27 35.95,15.21 C35.95,11.0181587 32.5518413,7.62 28.36,7.62 C24.1681587,7.62 20.77,11.0181587 20.77,15.21 L20.77,17.61 C20.77,17.61 24.57,16.66 24.57,13.81" id="Shape" stroke="#4550E5" fill="#FFFFFF" fill-rule="nonzero" stroke-linecap="round" stroke-linejoin="round"></path>
            <path d="M24.57,13.82 C27.57,16.76 32.81,16.27 35.95,15.21 C35.95,11.0181587 32.5518413,7.62 28.36,7.62 C24.1681587,7.62 20.77,11.0181587 20.77,15.21 L20.77,17.61 C20.77,17.61 24.57,16.66 24.57,13.81" id="Shape" stroke="#4550E5" stroke-linecap="round" stroke-linejoin="round"></path>
            <path d="M24.57,13.82 C24.22,13.48 24.17,13.54 23.88,13.1" id="Shape" stroke="#4550E5" stroke-linecap="round" stroke-linejoin="round"></path>
            <rect id="Rectangle-path" stroke="#4550E5" fill="#FFFFFF" fill-rule="nonzero" x="11.1" y="58.23" width="15.18" height="11.04" rx="1.38"></rect>
            <path d="M14.55,58.23 L14.55,69.22" id="Shape" stroke="#4550E5"></path>
            <path d="M22.83,58.28 L22.83,69.27" id="Shape" stroke="#4550E5"></path>
            <path d="M15.93,58.16 L15.93,56.47 C15.93,55.5366388 16.6866388,54.78 17.62,54.78 L19.76,54.78 C20.2082159,54.78 20.638074,54.9580531 20.9550105,55.2749895 C21.2719469,55.591926 21.45,56.0217841 21.45,56.47 L21.45,58.16" id="Shape" stroke="#4550E5"></path>
            <rect id="Rectangle-path" stroke="#4550E5" x="11.1" y="58.23" width="15.18" height="11.04" rx="1.38"></rect>
            <path d="M20.76,54.09 C20.76,55.2332294 19.8332294,56.16 18.69,56.16 C17.5467706,56.16 16.62,55.2332294 16.62,54.09 L16.62,51.33 L20.76,51.33 L20.76,54.09 Z" id="Shape" stroke="#4550E5" fill="#FFFFFF" fill-rule="nonzero" stroke-linecap="round" stroke-linejoin="round"></path>
            <path d="M39.39,40.29 C39.3899999,33.8117 34.1383,28.5600002 27.66,28.5600002 C21.1817,28.5600002 15.9300001,33.8117 15.93,40.29 L15.93,50.18 C15.93,50.8151275 16.4448725,51.33 17.08,51.33 L20.76,51.33 L20.76,56.51 L24.48,56.51 C26.0349625,56.5104666 27.4872467,55.7336635 28.35,54.44 C29.2127533,55.7336635 30.6650375,56.5104666 32.22,56.51 L35.94,56.51 L35.94,51.33 L38.24,51.33 C38.5458171,51.3326946 38.8398923,51.2123997 39.056146,50.996146 C39.2723997,50.7798923 39.3926946,50.4858171 39.39,50.18 L39.39,40.29 Z" id="Shape" fill="#FFFFFF" fill-rule="nonzero"></path>
            <path d="M39.39,40.29 C39.3899999,33.8117 34.1383,28.5600002 27.66,28.5600002 C21.1817,28.5600002 15.9300001,33.8117 15.93,40.29 L15.93,50.18 C15.93,50.8151275 16.4448725,51.33 17.08,51.33 L20.76,51.33 L20.76,56.51 L24.48,56.51 C26.0349625,56.5104666 27.4872467,55.7336635 28.35,54.44 C29.2127533,55.7336635 30.6650375,56.5104666 32.22,56.51 L35.94,56.51 L35.94,51.33 L38.24,51.33 C38.5458171,51.3326946 38.8398923,51.2123997 39.056146,50.996146 C39.2723997,50.7798923 39.3926946,50.4858171 39.39,50.18 L39.39,40.29 Z" id="Shape" stroke="#4550E5" stroke-linecap="round" stroke-linejoin="round"></path>
            <path d="M35.94,51.33 L35.94,39.6" id="Shape" stroke="#4550E5" stroke-linecap="round" stroke-linejoin="round"></path>
            <path d="M20.76,51.33 L20.76,39.6" id="Shape" stroke="#4550E5" stroke-linecap="round" stroke-linejoin="round"></path>
            <path d="M28.35,46.5 L33.15,29.92 C31.4573117,29.0283096 29.5731918,28.5615695 27.66,28.56 C26.2016415,28.5591079 24.7562608,28.8339338 23.4,29.37 L28.35,46.5 Z" id="Shape" stroke="#4550E5" fill="#FFFFFF" fill-rule="nonzero" stroke-linecap="round" stroke-linejoin="round"></path>
            <path d="M33.15,29.92 L28.35,46.5 L33.87,38.91 L33.87,35.46 L36.61,32.72 C35.6433721,31.5770156 34.4694384,30.6270115 33.15,29.92 Z" id="Shape" stroke="#4550E5" fill="#FFFFFF" fill-rule="nonzero" stroke-linecap="round" stroke-linejoin="round"></path>
            <polygon id="Shape" stroke="#4550E5" fill="#D6DAFF" fill-rule="nonzero" stroke-linecap="round" stroke-linejoin="round" points="28.35 28.58 26.3 39.41 28.35 46.5 30.4 39.41"></polygon>
            <path d="M28.35,54.09 L28.35,46.5" id="Shape" stroke="#4550E5" stroke-linecap="round" stroke-linejoin="round"></path>
            <polyline id="Shape" stroke="#4550E5" stroke-linecap="round" stroke-linejoin="round" points="32.04 33.73 28.36 28.58 24.66 33.73"></polyline>
            <path d="M28.35,46.5 L23.35,29.36 C21.8495147,29.9605726 20.4881365,30.8624857 19.35,32.01 L22.83,35.46 L22.83,38.91 L28.35,46.5 Z" id="Shape" stroke="#4550E5" fill="#FFFFFF" fill-rule="nonzero" stroke-linecap="round" stroke-linejoin="round"></path>
            <path d="M60.65,22.65 C59.654944,22.6546835 58.7650751,23.270441 58.41,24.2 L46,56.85 L75.8,56.85 L63.19,24.19 C62.8452899,23.2758185 61.9768945,22.6651661 61,22.65 L60.65,22.65 Z" id="Shape" fill="#D6DAFF" fill-rule="nonzero"></path>
            <path d="M60.65,22.65 C59.654944,22.6546835 58.7650751,23.270441 58.41,24.2 L46,56.85 L75.8,56.85 L63.19,24.19 C62.8452899,23.2758185 61.9768945,22.6651661 61,22.65 L60.65,22.65 Z" id="Shape" stroke="#4550E5" stroke-linejoin="round"></path>
            <path d="M60.8,22.65 L60.8,13.06" id="Shape" stroke="#4550E5" stroke-linecap="round" stroke-linejoin="round"></path>
            <path d="M60.8,2.06 C60.8,1.50771525 61.2477153,1.06 61.8,1.06 L76.25,1.06 C76.4871159,1.05889652 76.7026401,1.19754126 76.7999451,1.4137747 C76.8972502,1.63000813 76.8580816,1.88326462 76.7,2.06 L72.8,6.39 C72.4624578,6.76908443 72.4624578,7.34091557 72.8,7.72 L76.7,12.05 C76.8492334,12.2292531 76.8831863,12.4779129 76.7874716,12.6906122 C76.691757,12.9033115 76.4831322,13.0428113 76.25,13.05 L60.8,13.05 L60.8,2.06 Z" id="Shape" fill="#D6DAFF" fill-rule="nonzero"></path>
            <path d="M60.8,2.06 C60.8,1.50771525 61.2477153,1.06 61.8,1.06 L76.25,1.06 C76.4871159,1.05889652 76.7026401,1.19754126 76.7999451,1.4137747 C76.8972502,1.63000813 76.8580816,1.88326462 76.7,2.06 L72.8,6.39 C72.4624578,6.76908443 72.4624578,7.34091557 72.8,7.72 L76.7,12.05 C76.8492334,12.2292531 76.8831863,12.4779129 76.7874716,12.6906122 C76.691757,12.9033115 76.4831322,13.0428113 76.25,13.05 L60.8,13.05 L60.8,2.06 Z" id="Shape" stroke="#4550E5" stroke-linejoin="round"></path>
            <path d="M49,39.2 C48.7954393,38.7970777 48.3818755,38.5432311 47.93,38.5432311 C47.4781245,38.5432311 47.0645607,38.7970777 46.86,39.2 L38,56.85 L57.8,56.85 L49,39.2 Z" id="Shape" stroke="#4550E5" fill="#D6DAFF" fill-rule="nonzero" stroke-linejoin="round"></path>
            <path d="M44.72,43.41 L47,46.1 C47.227915,46.3724266 47.5648078,46.5298874 47.92,46.53 C48.2745843,46.5271777 48.6103961,46.3702222 48.84,46.1 L51.1,43.41 L49,39.2 C48.7954393,38.7970777 48.3818755,38.5432311 47.93,38.5432311 C47.4781245,38.5432311 47.0645607,38.7970777 46.86,39.2 L44.72,43.41 Z" id="Shape" stroke="#4550E5" fill="#FFFFFF" fill-rule="nonzero" stroke-linejoin="round"></path>
            <path d="M56.41,37.53 C56.6028086,37.8443755 56.9284634,38.0536584 57.2945256,38.0984426 C57.6605878,38.1432268 58.0270905,38.0186228 58.29,37.76 L60,36.1 C60.2251622,35.8740546 60.5310182,35.7470537 60.85,35.7470537 C61.1689818,35.7470537 61.4748378,35.8740546 61.7,36.1 L63.36,37.76 C63.6225528,38.0214699 63.9911732,38.1469822 64.358731,38.1000599 C64.7262889,38.0531376 65.0515553,37.8390441 65.24,37.52 L67.1,34.3 L63.19,24.19 C62.8452899,23.2758185 61.9768945,22.6651661 61,22.65 L60.7,22.65 C59.704944,22.6546835 58.8150751,23.270441 58.46,24.2 L54.53,34.36 L56.41,37.53 Z" id="Shape" fill="#FFFFFF" fill-rule="nonzero"></path>
            <path d="M56.41,37.53 C56.6028086,37.8443755 56.9284634,38.0536584 57.2945256,38.0984426 C57.6605878,38.1432268 58.0270905,38.0186228 58.29,37.76 L60,36.1 C60.2251622,35.8740546 60.5310182,35.7470537 60.85,35.7470537 C61.1689818,35.7470537 61.4748378,35.8740546 61.7,36.1 L63.36,37.76 C63.6225528,38.0214699 63.9911732,38.1469822 64.358731,38.1000599 C64.7262889,38.0531376 65.0515553,37.8390441 65.24,37.52 L67.1,34.3 L63.19,24.19 C62.8452899,23.2758185 61.9768945,22.6651661 61,22.65 L60.7,22.65 C59.704944,22.6546835 58.8150751,23.270441 58.46,24.2 L54.53,34.36 L56.41,37.53 Z" id="Shape" stroke="#4550E5" stroke-linejoin="round"></path>
        </g>
    </g>
</svg>
