<svg width="56px" height="64px" viewBox="0 0 56 64" version="1.1" xmlns="http://www.w3.org/2000/svg" xmlns:xlink="http://www.w3.org/1999/xlink">
    <!-- Generator: Sketch 48.2 (47327) - http://www.bohemiancoding.com/sketch -->
    <desc>Created with Sketch.</desc>
    <defs></defs>
    <g id="Page-1" stroke="none" stroke-width="1" fill="none" fill-rule="evenodd">
        <g id="hacker">
            <path d="M36.13,23.38 C37.8978638,25.060005 40.6721362,25.060005 42.44,23.38" id="Shape" stroke="#4550E5" stroke-linecap="round" stroke-linejoin="round"></path>
            <path d="M29.85,23.45 C31.5598798,26.9917057 35.1087424,29.277958 39.0405058,29.3707181 C42.9722693,29.4634782 46.6250002,27.3471295 48.5,23.89" id="Shape" stroke="#4550E5" stroke-linecap="round" stroke-linejoin="round"></path>
            <path d="M36.65,16.77 L34.04,15.2" id="Shape" stroke="#4550E5" stroke-linecap="round" stroke-linejoin="round"></path>
            <path d="M35.09,18.3 C35.1176142,18.3 35.14,18.3223858 35.14,18.35 C35.14,18.3776142 35.1176142,18.4 35.09,18.4 L35.09,18.3 Z M35.09,17.4 C34.5443783,17.4006825 34.1000186,17.8386062 34.0913763,18.3841599 C34.082734,18.9297136 34.5129997,19.3814925 35.058326,19.399457 C35.6036523,19.4174216 36.0627185,18.9949396 36.09,18.45 C36.1037058,18.1762314 36.0044311,17.9088386 35.8153888,17.710344 C35.6263464,17.5118495 35.3641113,17.3996571 35.09,17.4 Z" id="Shape" fill="#4550E5" fill-rule="nonzero"></path>
            <path d="M41.92,16.77 L44.54,15.2" id="Shape" stroke="#4550E5" stroke-linecap="round" stroke-linejoin="round"></path>
            <path d="M43.49,18.3 C43.5176142,18.3 43.54,18.3223858 43.54,18.35 C43.54,18.3776142 43.5176142,18.4 43.49,18.4 L43.49,18.3 Z M43.4899979,17.4 C42.951744,17.4276583 42.532241,17.8769075 42.541464,18.4157927 C42.5506871,18.9546778 42.9853178,19.3893085 43.5242029,19.3985315 C44.063088,19.4077546 44.5123372,18.9882516 44.5399956,18.4499977 C44.5545212,18.1673177 44.4485692,17.8917236 44.2484206,17.691575 C44.048272,17.4914263 43.7726778,17.3854744 43.4899979,17.4 Z" id="Shape" fill="#4550E5" fill-rule="nonzero"></path>
            <path d="M42.36,56.68 L38.42,56.68 C36.680303,56.68 35.27,58.090303 35.27,59.83" id="Shape" stroke="#4550E5" stroke-linecap="round" stroke-linejoin="round"></path>
            <path d="M38.42,63 L42.36,63" id="Shape" stroke="#4550E5" stroke-linecap="round" stroke-linejoin="round"></path>
            <path d="M47.63,32.77 C47.2114088,34.169299 46.5843707,35.4975411 45.77,36.71 C44.7755416,38.2234649 43.5776507,39.5929638 42.21,40.78 C40.97,41.85 39.21,43.78 39.21,46.17 C39.21,43.8 37.47,41.87 36.21,40.8 C34.8199785,39.5946113 33.6049324,38.2011789 32.6,36.66 C31.8143065,35.4849427 31.2045317,34.2013835 30.79,32.85 C30.79,32.85 30.79,32.79 30.79,32.77" id="Shape" stroke="#4550E5" stroke-linecap="round" stroke-linejoin="round"></path>
            <path d="M42.89,29.22 L42.89,33.05 C40.8574506,35.0726259 37.5725494,35.0726259 35.54,33.05 L35.54,29.22" id="Shape" stroke="#4550E5" stroke-linecap="round" stroke-linejoin="round"></path>
            <path d="M49.19,45.12 L49.19,53.61 C49.1844898,55.3016076 47.8116166,56.670009 46.12,56.67" id="Shape" stroke="#4550E5" stroke-linecap="round" stroke-linejoin="round"></path>
            <path d="M39.21,46.09 L39.21,54.57" id="Shape" stroke="#4550E5" stroke-linecap="round" stroke-linejoin="round"></path>
            <path d="M31.87,35.38 L31.74,35.14 C31.365916,34.4042862 31.0548045,33.638216 30.81,32.85 C30.81,32.85 30.81,32.79 30.81,32.77 C30.04,30.19 29.81,26.84 29.81,21.14 C29.81,17.3 31.91,12.57 39.26,12.57 C46.61,12.57 48.71,17.82 48.71,21.14 C48.71,26.84 48.45,30.14 47.71,32.77 C47.61,33.12 47.49,33.46 47.37,33.77" id="Shape" stroke="#4550E5" stroke-linecap="round" stroke-linejoin="round"></path>
            <path d="M33.81,38.28 L33.65,38.07" id="Shape" stroke="#4550E5" stroke-linecap="round" stroke-linejoin="round"></path>
            <path d="M43.44,39.61 L43.23,39.85 C45.8069347,38.6063887 47.9904897,36.6754478 49.54,34.27 L49.6,34.17 C51.0416973,31.7904449 51.8058765,29.0622216 51.81,26.28 L51.81,13.62 C51.8158379,10.2381006 50.4619172,6.99582133 48.0527498,4.62238707 C45.6435824,2.2489528 42.3814346,0.943629887 39,1 C32.0318573,1.26493254 26.5399979,7.02717403 26.61,14 L26.61,24.9 C26.5443753,28.1205376 27.3309244,31.3012321 28.89,34.12 C30.3281332,36.5326195 32.456367,38.4588279 35,39.65 L35,39.57" id="Shape" stroke="#4550E5" stroke-linecap="round" stroke-linejoin="round"></path>
            <path d="M46.2,36 L45.87,36.52 C45.84235,36.5798234 45.8088538,36.636767 45.77,36.69" id="Shape" stroke="#4550E5" stroke-linecap="round" stroke-linejoin="round"></path>
            <path d="M30.21,59.82 L32.68,59.82 L26.8,41.82 C26.632374,41.3095225 26.1572849,40.9632712 25.62,40.96 L24.06,40.96 L30.21,59.82 Z" id="Shape" stroke="#4550E5" stroke-linecap="round" stroke-linejoin="round"></path>
            <path d="M6.21,59.82 L30.21,59.82 L24.06,40.92 L1.75,40.92 C1.35612658,40.921115 0.986208327,41.1092879 0.753370519,41.4269734 C0.520532711,41.7446589 0.452471206,42.1540685 0.57,42.53 L6.21,59.82 Z" id="Shape" stroke="#4550E5" stroke-linecap="round" stroke-linejoin="round"></path>
            <path d="M6.28981456,59.82 L31.49,59.82 L31.49,63 L8.72,63 C8.07029226,63.0000495 7.44762201,62.7399184 6.99103633,62.2776958 C6.53445066,61.8154733 6.28197891,61.1896582 6.29,60.54 L6.28981456,59.82 Z" id="Shape" stroke="#4550E5" stroke-linecap="round" stroke-linejoin="round"></path>
            <path d="M31.49,59.82 L43.56,59.82 L43.56,60.51 C43.5680203,61.1676149 43.3123874,61.8010602 42.8501758,62.2689086 C42.3879642,62.736757 41.7576638,63.0000489 41.1,63 L31.49,63 L31.49,59.82 Z" id="Shape" stroke="#4550E5" stroke-linecap="round" stroke-linejoin="round"></path>
            <path d="M6.21,59.82 L30.21,59.82 L24.06,40.92 L1.75,40.92 C1.35612658,40.921115 0.986208327,41.1092879 0.753370519,41.4269734 C0.520532711,41.7446589 0.452471206,42.1540685 0.57,42.53 L6.21,59.82 Z" id="Shape" stroke="#4550E5" stroke-linecap="round" stroke-linejoin="round"></path>
            <path d="M18.27,49.15 C18.41,48.63 19.05,48.63 19.41,49.15 C20.17,50.26 20.56,50.81 21.33,51.92 L23.25,54.68 C23.61,55.19 23.43,55.84 22.92,55.84 L17.51,55.84 C17.2466361,55.7938142 17.0127375,55.6440814 16.8605404,55.4242412 C16.7083434,55.204401 16.6505258,54.932766 16.7,54.67 C17.02,53.57 17.17,53.01 17.49,51.91 C17.81,50.81 18,50.25 18.27,49.15 Z" id="Shape" stroke="#4550E5" stroke-linecap="round" stroke-linejoin="round"></path>
            <path d="M19.24,51.13 C19.37,51.76 19.44,52.07 19.57,52.7" id="Shape" stroke="#4550E5" stroke-linecap="round" stroke-linejoin="round"></path>
            <path d="M19.79,53.74 C19.54,53.74 19.39,53.98 19.45,54.27 C19.4971743,54.5464211 19.7213699,54.7583879 20,54.79 C20.25,54.79 20.4,54.56 20.34,54.27 C20.2937361,53.9913067 20.0702151,53.7759137 19.79,53.74 Z" id="Shape" fill="#4550E5" fill-rule="nonzero"></path>
            <path d="M13,49.19 C13.44,51.36 12.31,53.12 10.47,53.12 C8.63,53.12 6.79,51.35 6.36,49.12 C5.93,46.89 7.06,45.19 8.89,45.2 C10.72,45.21 12.58,47 13,49.19 Z" id="Shape" stroke="#4550E5" stroke-linecap="round" stroke-linejoin="round"></path>
            <path d="M8.29,47.63 C8.04,47.63 7.89,47.86 7.95,48.15 C7.99312707,48.4303313 8.21826414,48.6472816 8.5,48.68 C8.74,48.68 8.89,48.44 8.84,48.15 C8.79282574,47.8735789 8.56863005,47.6616121 8.29,47.63 Z" id="Shape" fill="#4550E5" fill-rule="nonzero"></path>
            <path d="M8.92,50.49 C9.12816438,51.0006501 9.60134364,51.3545728 10.15,51.41 C10.3860883,51.4021762 10.609382,51.3008185 10.7706913,51.1282549 C10.9320007,50.9556914 11.018092,50.7260792 11.01,50.49" id="Shape" stroke="#4550E5" stroke-linecap="round" stroke-linejoin="round"></path>
            <path d="M7.14,46.27 L12.76,47.87" id="Shape" stroke="#4550E5" stroke-linecap="round" stroke-linejoin="round"></path>
            <path d="M10.16,47.08 C9.8,47.08 9.57,47.42 9.66,47.85 C9.66,48.07 9.72,48.18 9.77,48.4 C9.83443556,48.8122757 10.1655871,49.1311623 10.58,49.18 L11,49.18 C11.36,49.18 11.58,48.83 11.5,48.4 C11.5,48.19 11.43,48.08 11.39,47.86 C11.3224299,47.4493628 10.9928939,47.1320318 10.58,47.08 L10.16,47.08 Z" id="Shape" fill="#4550E5" fill-rule="nonzero"></path>
            <path d="M47.63,32.77 C46.1637917,31.8765028 44.563322,31.2248347 42.89,30.84" id="Shape" stroke="#4550E5" stroke-linecap="round" stroke-linejoin="round"></path>
            <path d="M42.36,63 C46.21,63 47.28,63.14 49.19,62.48 C52.6120203,61.3558121 55.0702511,58.3474058 55.49,54.77 L55.49,46.77 C55.5155598,41.8992349 53.3535342,37.2741887 49.6,34.17" id="Shape" stroke="#4550E5" stroke-linecap="round" stroke-linejoin="round"></path>
            <path d="M49,54.57 C48.6038785,55.8297893 47.4305407,56.6823876 46.11,56.67 L42.36,56.67" id="Shape" stroke="#4550E5" stroke-linecap="round" stroke-linejoin="round"></path>
            <path d="M28.89,34.11 C27.4509884,35.2849028 26.2291515,36.7030459 25.28,38.3" id="Shape" stroke="#4550E5" stroke-linecap="round" stroke-linejoin="round"></path>
            <path d="M35.54,30.84 C33.8636856,31.2253095 32.2599967,31.8769137 30.79,32.77" id="Shape" stroke="#4550E5" stroke-linecap="round" stroke-linejoin="round"></path>
            <path d="M42.36,59.82 L42.36,56.68" id="Shape" stroke="#4550E5" stroke-linecap="round" stroke-linejoin="round"></path>
            <polyline id="Shape" stroke="#4550E5" stroke-linecap="round" stroke-linejoin="round" points="49.02 54.57 39.21 54.57 33.73 54.57"></polyline>
        </g>
    </g>
</svg>
