<svg width="88px" height="69px" viewBox="0 0 88 69" version="1.1" xmlns="http://www.w3.org/2000/svg" xmlns:xlink="http://www.w3.org/1999/xlink">
    <!-- Generator: Sketch 48.2 (47327) - http://www.bohemiancoding.com/sketch -->
    <desc>Created with Sketch.</desc>
    <defs></defs>
    <g id="Page-1" stroke="none" stroke-width="1" fill="none" fill-rule="evenodd">
        <g id="monitor-window" transform="translate(0.000000, -1.000000)">
            <path d="M84.5,40.93 C84.4984701,24.5946106 74.5640168,9.90150733 59.4050828,3.81449909 C44.2461489,-2.27250915 26.9090288,1.46980484 15.6106656,13.2677681 C4.31230241,25.0657314 1.32318178,42.5484602 8.06,57.43 L80.94,57.43 C83.2903766,52.247014 84.5042295,46.6210101 84.5,40.93 Z" id="Shape" fill="#F0F2FF" fill-rule="nonzero"></path>
            <path d="M5,57.43 L83,57.43" id="Shape" stroke="#4550E5" stroke-linecap="round" stroke-linejoin="round"></path>
            <path d="M0.5,57.43 L3,57.43" id="Shape" stroke="#4550E5" stroke-linecap="round" stroke-linejoin="round"></path>
            <path d="M85,57.43 L87.5,57.43" id="Shape" stroke="#4550E5" stroke-linecap="round" stroke-linejoin="round"></path>
            <rect id="Rectangle-path" fill="#D6DAFF" fill-rule="nonzero" x="17.65" y="26.29" width="48.3" height="34.5" rx="3.6"></rect>
            <path d="M46.86,26.29 L21.79,26.29 C19.5035411,26.29 17.65,28.1435411 17.65,30.43 L17.65,55.5 L46.86,26.29 Z" id="Shape" fill="#FFFFFF" fill-rule="nonzero"></path>
            <rect id="Rectangle-path" stroke="#4550E5" stroke-linecap="round" stroke-linejoin="round" x="17.65" y="26.29" width="48.3" height="34.5" rx="3.6"></rect>
            <path d="M61.81,60.79 C62.9166338,60.8033661 63.9825497,60.3730966 64.7697981,59.5952425 C65.5570465,58.8173885 66.0000807,57.7567145 66,56.65 L66,55.27 L17.65,55.27 L17.65,56.65 C17.65,58.9364589 19.5035411,60.79 21.79,60.79 L61.81,60.79 Z" id="Shape" stroke="#4550E5" fill="#FFFFFF" fill-rule="nonzero" stroke-linecap="round" stroke-linejoin="round"></path>
            <polygon id="Shape" fill="#FFFFFF" fill-rule="nonzero" points="45.94 66.31 37.66 66.31 38.35 60.79 45.25 60.79"></polygon>
            <polygon id="Shape" stroke="#4550E5" stroke-linecap="round" stroke-linejoin="round" points="45.94 66.31 37.66 66.31 38.35 60.79 45.25 60.79"></polygon>
            <path d="M50.77,69.07 L32.83,69.07 C32.83,67.5456941 34.0656941,66.31 35.59,66.31 L48,66.31 C49.525932,66.3099901 50.7644912,67.5440779 50.77,69.07 Z" id="Shape" stroke="#4550E5" fill="#FFFFFF" fill-rule="nonzero" stroke-linecap="round" stroke-linejoin="round"></path>
            <path d="M28.69,21.46 L68.69,21.46 L68.69,45.28 C68.69,46.6054834 67.6154834,47.68 66.29,47.68 L31.09,47.68 C29.7645166,47.68 28.69,46.6054834 28.69,45.28 L28.69,21.46 Z" id="Shape" stroke="#4550E5" fill="#FFFFFF" fill-rule="nonzero" stroke-linecap="round" stroke-linejoin="round"></path>
            <path d="M31.09,13.18 L66.31,13.18 C67.6354834,13.18 68.71,14.2545166 68.71,15.58 L68.71,21.46 L28.71,21.46 L28.71,15.58 C28.7099542,14.262288 29.7723337,13.1909809 31.09,13.18 Z" id="Shape" stroke="#4550E5" fill="#FFFFFF" fill-rule="nonzero" stroke-linecap="round" stroke-linejoin="round"></path>
            <circle id="Oval" stroke="#4550E5" fill="#D6DAFF" fill-rule="nonzero" stroke-linecap="round" stroke-linejoin="round" cx="32.83" cy="17.32" r="1.38"></circle>
            <circle id="Oval" stroke="#4550E5" fill="#D6DAFF" fill-rule="nonzero" stroke-linecap="round" stroke-linejoin="round" cx="38.35" cy="17.32" r="1.38"></circle>
            <circle id="Oval" stroke="#4550E5" fill="#D6DAFF" fill-rule="nonzero" stroke-linecap="round" stroke-linejoin="round" cx="43.87" cy="17.32" r="1.38"></circle>
            <rect id="Rectangle-path" stroke="#4550E5" fill="#D6DAFF" fill-rule="nonzero" stroke-linecap="round" stroke-linejoin="round" x="41.11" y="29.74" width="5.52" height="5.52" rx="1"></rect>
            <rect id="Rectangle-path" stroke="#4550E5" fill="#D6DAFF" fill-rule="nonzero" stroke-linecap="round" stroke-linejoin="round" x="50.08" y="29.74" width="5.52" height="5.52" rx="1"></rect>
            <rect id="Rectangle-path" stroke="#4550E5" fill="#D6DAFF" fill-rule="nonzero" stroke-linecap="round" stroke-linejoin="round" x="59.05" y="29.74" width="5.52" height="5.52" rx="1"></rect>
            <rect id="Rectangle-path" stroke="#4550E5" fill="#D6DAFF" fill-rule="nonzero" stroke-linecap="round" stroke-linejoin="round" x="41.11" y="38.02" width="5.52" height="5.52" rx="1"></rect>
            <rect id="Rectangle-path" stroke="#4550E5" fill="#D6DAFF" fill-rule="nonzero" stroke-linecap="round" stroke-linejoin="round" x="50.08" y="38.02" width="5.52" height="5.52" rx="1"></rect>
            <rect id="Rectangle-path" stroke="#4550E5" fill="#D6DAFF" fill-rule="nonzero" stroke-linecap="round" stroke-linejoin="round" x="59.05" y="38.02" width="5.52" height="5.52" rx="1"></rect>
            <rect id="Rectangle-path" stroke="#4550E5" fill="#D6DAFF" fill-rule="nonzero" stroke-linecap="round" stroke-linejoin="round" x="32.83" y="24.22" width="5.52" height="2.76" rx="1"></rect>
            <rect id="Rectangle-path" stroke="#4550E5" fill="#D6DAFF" fill-rule="nonzero" stroke-linejoin="round" x="41.11" y="24.22" width="23.46" height="2.76" rx="1"></rect>
            <path d="M32.83,29.74 L38.35,29.74" id="Shape" stroke="#4550E5" stroke-linecap="round" stroke-linejoin="round"></path>
            <path d="M32.83,32.5 L38.35,32.5" id="Shape" stroke="#4550E5" stroke-linecap="round" stroke-linejoin="round"></path>
            <path d="M32.83,35.26 L38.35,35.26" id="Shape" stroke="#4550E5" stroke-linecap="round" stroke-linejoin="round"></path>
            <path d="M32.83,38.02 L38.35,38.02" id="Shape" stroke="#4550E5" stroke-linecap="round" stroke-linejoin="round"></path>
            <path d="M32.83,40.78 L38.35,40.78" id="Shape" stroke="#4550E5" stroke-linecap="round" stroke-linejoin="round"></path>
            <path d="M32.83,43.54 L36.28,43.54" id="Shape" stroke="#4550E5" stroke-linecap="round" stroke-linejoin="round"></path>
            <path d="M77.68,58.65 C77.48,59.38 77.08,59.4 76.79,58.65 L72.26,47.84 C71.97,47.14 72.26,46.84 73.01,47.1 L83.87,51.62 C84.57,51.92 84.54,52.32 83.81,52.52 L80.33,53.52 C79.5306186,53.7871203 78.9018317,54.4122085 78.63,55.21 L77.68,58.65 Z" id="Shape" stroke="#4550E5" fill="#FFFFFF" fill-rule="nonzero" stroke-linejoin="round"></path>
            <circle id="Oval" stroke="#4550E5" stroke-linecap="round" stroke-linejoin="round" cx="41.8" cy="58.03" r="1"></circle>
        </g>
    </g>
</svg>
