<svg width="80px" height="80px" viewBox="0 0 80 80" version="1.1" xmlns="http://www.w3.org/2000/svg" xmlns:xlink="http://www.w3.org/1999/xlink">
    <!-- Generator: Sketch 48.2 (47327) - http://www.bohemiancoding.com/sketch -->
    <desc>Created with Sketch.</desc>
    <defs></defs>
    <g id="Page-1" stroke="none" stroke-width="1" fill="none" fill-rule="evenodd">
        <g id="color-palette">
            <circle id="Oval" fill="#F0F2FF" fill-rule="nonzero" cx="40" cy="40" r="40"></circle>
            <path d="M62.07,41.53 L35.9,41.53 L35.9,56.2 C35.9,57.3045695 35.0045695,58.2 33.9,58.2 L62.07,58.2 C63.1745695,58.2 64.07,57.3045695 64.07,56.2 L64.07,43.54 C64.0726609,43.0078365 63.8631224,42.4965559 63.4877609,42.1193175 C63.1123993,41.7420792 62.6021701,41.5299933 62.07,41.53 Z" id="Shape" fill="#FFFFFF" fill-rule="nonzero"></path>
            <path d="M62.07,41.53 L35.9,41.53 L35.9,56.2 C35.9,57.3045695 35.0045695,58.2 33.9,58.2 L62.07,58.2 C63.1745695,58.2 64.07,57.3045695 64.07,56.2 L64.07,43.54 C64.0726609,43.0078365 63.8631224,42.4965559 63.4877609,42.1193175 C63.1123993,41.7420792 62.6021701,41.5299933 62.07,41.53 Z" id="Shape" stroke="#4550E5" stroke-linejoin="round"></path>
            <rect id="Rectangle-path" fill="#D6DAFF" fill-rule="nonzero" x="49.7" y="44.98" width="10.35" height="9.77" rx="1.15"></rect>
            <rect id="Rectangle-path" stroke="#4550E5" stroke-linejoin="round" x="49.7" y="44.98" width="10.35" height="9.77" rx="1.15"></rect>
            <path d="M35.9,45 L35.9,54.78 L44.53,54.78 C45.1628635,54.7745674 45.6745674,54.2628635 45.68,53.63 L45.68,46.13 C45.6638512,45.5049599 45.1552272,45.0051815 44.53,45 L35.9,45 Z" id="Shape" fill="#D6DAFF" fill-rule="nonzero"></path>
            <path d="M35.9,45 L35.9,54.78 L44.53,54.78 C45.1628635,54.7745674 45.6745674,54.2628635 45.68,53.63 L45.68,46.13 C45.6638512,45.5049599 45.1552272,45.0051815 44.53,45 L35.9,45 Z" id="Shape" stroke="#4550E5" stroke-linejoin="round"></path>
            <path d="M61.84,40.13 C62.3011822,39.8644167 62.637497,39.4259787 62.7745051,38.9117294 C62.9115131,38.3974802 62.8379147,37.8498318 62.57,37.39 L56.22,26.39 C55.9544167,25.9288178 55.5159787,25.592503 55.0017294,25.4554949 C54.4874802,25.3184869 53.9398318,25.3920853 53.48,25.66 L35.9,35.89 L35.9,55.16 L61.84,40.13 Z" id="Shape" fill="#FFFFFF" fill-rule="nonzero"></path>
            <path d="M61.84,40.13 C62.3011822,39.8644167 62.637497,39.4259787 62.7745051,38.9117294 C62.9115131,38.3974802 62.8379147,37.8498318 62.57,37.39 L56.22,26.39 C55.9544167,25.9288178 55.5159787,25.592503 55.0017294,25.4554949 C54.4874802,25.3184869 53.9398318,25.3920853 53.48,25.66 L35.9,35.89 L35.9,55.16 L61.84,40.13 Z" id="Shape" stroke="#4550E5" stroke-linejoin="round"></path>
            <rect id="Rectangle-path" fill="#D6DAFF" fill-rule="nonzero" transform="translate(51.435872, 36.525183) rotate(-30.100000) translate(-51.435872, -36.525183) " x="46.2608721" y="31.6351835" width="10.35" height="9.78" rx="1.15"></rect>
            <rect id="Rectangle-path" stroke="#4550E5" stroke-linejoin="round" transform="translate(51.435872, 36.525183) rotate(-30.100000) translate(-51.435872, -36.525183) " x="46.2608721" y="31.6351835" width="10.35" height="9.78" rx="1.15"></rect>
            <path d="M40,37.49 L35.9,39.88 L35.9,48.72 L36.39,49.56 C36.5390973,49.8381802 36.7959721,50.0428559 37.1004245,50.1260603 C37.4048769,50.2092647 37.7301448,50.1636839 38,50 L45,46 C45.2657796,45.8492669 45.459926,45.598151 45.5388882,45.3029828 C45.6178504,45.0078147 45.5750183,44.6933033 45.42,44.43 L41.6,37.91 C41.4473584,37.6380131 41.1907896,37.43969 40.8891184,37.3605013 C40.5874472,37.2813126 40.2665498,37.3280508 40,37.49 Z" id="Shape" fill="#D6DAFF" fill-rule="nonzero"></path>
            <path d="M40,37.49 L35.9,39.88 L35.9,48.72 L36.39,49.56 C36.5390973,49.8381802 36.7959721,50.0428559 37.1004245,50.1260603 C37.4048769,50.2092647 37.7301448,50.1636839 38,50 L45,46 C45.2657796,45.8492669 45.459926,45.598151 45.5388882,45.3029828 C45.6178504,45.0078147 45.5750183,44.6933033 45.42,44.43 L41.6,37.91 C41.4473584,37.6380131 41.1907896,37.43969 40.8891184,37.3605013 C40.5874472,37.2813126 40.2665498,37.3280508 40,37.49 Z" id="Shape" stroke="#4550E5" stroke-linejoin="round"></path>
            <path d="M52.28,24.19 C52.5479147,23.7301682 52.6215131,23.1825198 52.4845051,22.6682706 C52.347497,22.1540213 52.0111822,21.7155833 51.55,21.45 L40.55,15.11 C40.0901682,14.8420853 39.5425198,14.7684869 39.0282706,14.9054949 C38.5140213,15.042503 38.0755833,15.3788178 37.81,15.84 L35.9,19.19 L35.9,52.5 L52.28,24.19 Z" id="Shape" fill="#FFFFFF" fill-rule="nonzero"></path>
            <polygon id="Shape" fill="#FFFFFF" fill-rule="nonzero" points="35.9 52.39 35.9 52.5 36.67 51.16"></polygon>
            <path d="M52.28,24.19 C52.5479147,23.7301682 52.6215131,23.1825198 52.4845051,22.6682706 C52.347497,22.1540213 52.0111822,21.7155833 51.55,21.45 L40.55,15.11 C40.0901682,14.8420853 39.5425198,14.7684869 39.0282706,14.9054949 C38.5140213,15.042503 38.0755833,15.3788178 37.81,15.84 L35.9,19.19 L35.9,52.5 L52.28,24.19 Z" id="Shape" stroke="#4550E5" stroke-linejoin="round"></path>
            <path d="M35.9,26.08 L35.9,29 L42.1,32.58 C42.3633033,32.7350183 42.6778147,32.7778504 42.9729828,32.6988882 C43.268151,32.619926 43.5192669,32.4257796 43.67,32.16 L47.67,25.16 C47.8250183,24.8966967 47.8678504,24.5821853 47.7888882,24.2870172 C47.709926,23.991849 47.5157796,23.7407331 47.25,23.59 L40.78,19.84 C40.2304139,19.5229125 39.527856,19.710858 39.21,20.26 L35.9,26.08 Z" id="Shape" fill="#D6DAFF" fill-rule="nonzero"></path>
            <path d="M35.9,45.61 L40.51,37.61 C40.8212654,37.0596597 40.6344742,36.3614163 40.09,36.04 L35.9,33.66 L35.9,45.61 Z" id="Shape" fill="#D6DAFF" fill-rule="nonzero"></path>
            <path d="M35.9,45.61 L40.51,37.61 C40.8212654,37.0596597 40.6344742,36.3614163 40.09,36.04 L35.9,33.66 L35.9,45.61 Z" id="Shape" stroke="#4550E5" stroke-linejoin="round"></path>
            <path d="M35.9,26.08 L35.9,29 L42.1,32.58 C42.3633033,32.7350183 42.6778147,32.7778504 42.9729828,32.6988882 C43.268151,32.619926 43.5192669,32.4257796 43.67,32.16 L47.67,25.16 C47.8250183,24.8966967 47.8678504,24.5821853 47.7888882,24.2870172 C47.709926,23.991849 47.5157796,23.7407331 47.25,23.59 L40.78,19.84 C40.2304139,19.5229125 39.527856,19.710858 39.21,20.26 L35.9,26.08 Z" id="Shape" stroke="#4550E5" stroke-linejoin="round"></path>
            <rect id="Rectangle-path" fill="#FFFFFF" fill-rule="nonzero" x="19.23" y="13.36" width="16.67" height="44.85" rx="2"></rect>
            <rect id="Rectangle-path" stroke="#4550E5" stroke-linejoin="round" x="19.23" y="13.36" width="16.67" height="44.85" rx="2"></rect>
            <rect id="Rectangle-path" fill="#D6DAFF" fill-rule="nonzero" x="22.68" y="17.38" width="9.77" height="10.35" rx="1.15"></rect>
            <rect id="Rectangle-path" stroke="#4550E5" stroke-linejoin="round" x="22.68" y="17.38" width="9.77" height="10.35" rx="1.15"></rect>
            <rect id="Rectangle-path" fill="#D6DAFF" fill-rule="nonzero" x="22.68" y="31.76" width="9.77" height="10.35" rx="1.15"></rect>
            <rect id="Rectangle-path" stroke="#4550E5" stroke-linejoin="round" x="22.68" y="31.76" width="9.77" height="10.35" rx="1.15"></rect>
            <circle id="Oval" stroke="#4550E5" fill="#D6DAFF" fill-rule="nonzero" stroke-linejoin="round" cx="27.57" cy="52.46" r="1.73"></circle>
            <ellipse id="Oval" fill="#D6DAFF" fill-rule="nonzero" cx="41.65" cy="65.58" rx="23" ry="1.73"></ellipse>
        </g>
    </g>
</svg>
