<svg xmlns="http://www.w3.org/2000/svg" width="88" height="68">
  <g fill="none" fill-rule="evenodd">
    <path fill="#F0F2FF" fill-rule="nonzero" d="M84.5 40.1c-.0015-16.3354-9.936-31.0285-25.095-37.1155-15.1589-6.087-32.496-2.3447-43.7943 9.4533C4.3123 24.2358 1.3232 41.7185 8.06 56.6h72.88a39.85 39.85 0 0 0 3.56-16.5z"/>
    <path stroke="#4550E5" stroke-linecap="round" stroke-linejoin="round" d="M5 56.6h78m-82.5 0H3m82 0h2.5"/>
    <path fill="#F0F2FF" fill-rule="nonzero" d="M68.93 66c0 1-11 1.9-24.67 1.9-13.67 0-24.66-.85-24.66-1.9 0-1.05 11-1.9 24.66-1.9s24.67.9 24.67 1.9z"/>
    <path fill="#FFF" fill-rule="nonzero" d="M71.46 63.47a1.26 1.26 0 0 1-1.26 1.27H38.05c-.7014 0-1.27-.5686-1.27-1.27V19.2c0-.7014.5686-1.27 1.27-1.27h26.56a1.26 1.26 0 0 1 .9.37l5.58 5.58a1.26 1.26 0 0 1 .37.9v38.69z"/>
    <path stroke="#4550E5" stroke-linejoin="round" d="M71.46 63.47a1.26 1.26 0 0 1-1.26 1.27H38.05c-.7014 0-1.27-.5686-1.27-1.27V19.2c0-.7014.5686-1.27 1.27-1.27h26.56a1.26 1.26 0 0 1 .9.37l5.58 5.58a1.26 1.26 0 0 1 .37.9v38.69z"/>
    <circle cx="62.08" cy="53.35" r="6.33" stroke="#4550E5"/>
    <path stroke="#4550E5" stroke-linecap="round" stroke-linejoin="round" d="M58.92 53.35l2.53 2.53 4.11-4.74M45.01 33.11h19.6m-17.82-3.79h8.41m-10.19 7.59h19.6m-19.6 3.79h19.6"/>
    <path fill="#D6DAFF" fill-rule="nonzero" stroke="#4550E5" stroke-linejoin="round" d="M65.14 23.11a1.15 1.15 0 0 0 1.15 1.15h5a1.19 1.19 0 0 0-.25-.38l-5.53-5.58a1.51 1.51 0 0 0-.37-.25v5.06z"/>
    <path fill="#FFF" fill-rule="nonzero" d="M18.54 52.09h31.21c2.2091 0 4 1.7909 4 4v3.85c0 .5523-.4477 1-1 1H15.54c-.5523 0-1-.4477-1-1v-3.85c0-2.2091 1.7909-4 4-4zm21.53-16.45H28.22a2.47 2.47 0 0 1-.81-.15c.62 1.29 2.31 5.79 2.31 16.6h8.85c0-10.81 1.69-15.31 2.31-16.6a2.47 2.47 0 0 1-.81.15z"/>
    <path fill="#D6DAFF" fill-rule="nonzero" d="M50.85 64a1.14 1.14 0 0 1-1.09.79H18.53a1.14 1.14 0 0 1-1.09-.79l-1-3h35.42l-1.01 3z"/>
    <path stroke="#4550E5" stroke-linejoin="round" d="M18.54 52.09h31.21c2.2091 0 4 1.7909 4 4v3.85c0 .5523-.4477 1-1 1H15.54c-.5523 0-1-.4477-1-1v-3.85c0-2.2091 1.7909-4 4-4zm21.53-16.45H28.22a2.47 2.47 0 0 1-.81-.15c.62 1.29 2.31 5.79 2.31 16.6h8.85c0-10.81 1.69-15.31 2.31-16.6a2.47 2.47 0 0 1-.81.15zM50.85 64a1.14 1.14 0 0 1-1.09.79H18.53a1.14 1.14 0 0 1-1.09-.79l-1-3h35.42l-1.01 3zM29.64 48.29h9.01"/>
    <rect width="16.45" height="10.12" x="25.92" y="25.52" fill="#FFF" fill-rule="nonzero" rx="2"/>
    <rect width="16.45" height="10.12" x="25.92" y="25.52" stroke="#4550E5" stroke-linejoin="round" rx="2"/>
  </g>
</svg>
