<svg width="80px" height="80px" viewBox="0 0 80 80" version="1.1" xmlns="http://www.w3.org/2000/svg" xmlns:xlink="http://www.w3.org/1999/xlink">
    <!-- Generator: Sketch 48.2 (47327) - http://www.bohemiancoding.com/sketch -->
    <desc>Created with Sketch.</desc>
    <defs></defs>
    <g id="Page-1" stroke="none" stroke-width="1" fill="none" fill-rule="evenodd">
        <g id="ship">
            <circle id="Oval" fill="#F0F2FF" fill-rule="nonzero" cx="40" cy="40" r="40"></circle>
            <rect id="Rectangle-path" stroke="#4550E5" fill="#D6DAFF" fill-rule="nonzero" stroke-linecap="round" stroke-linejoin="round" x="22" y="43.5" width="7.5" height="3.5"></rect>
            <rect id="Rectangle-path" stroke="#4550E5" fill="#D6DAFF" fill-rule="nonzero" stroke-linecap="round" stroke-linejoin="round" x="22" y="40" width="7.5" height="3.5"></rect>
            <path d="M22.5,36.5 L29,36.5 C29.2761424,36.5 29.5,36.7238576 29.5,37 L29.5,40 L22,40 L22,37 C22,36.7238576 22.2238576,36.5 22.5,36.5 Z" id="Shape" fill="#D6DAFF" fill-rule="nonzero"></path>
            <path d="M22.5,36.5 L29,36.5 C29.2761424,36.5 29.5,36.7238576 29.5,37 L29.5,40 L22,40 L22,37 C22,36.7238576 22.2238576,36.5 22.5,36.5 Z" id="Shape" stroke="#4550E5" stroke-linecap="round" stroke-linejoin="round"></path>
            <path d="M59.53,58 L16.07,58 C15.7189527,58.0020443 15.3925417,57.8198614 15.21,57.52 L12.21,52.52 C11.4208298,51.2028681 10.5490872,49.9370044 9.6,48.73 L6.79,45.16 C6.55172695,44.8584802 6.50732329,44.4470903 6.67576848,44.1016711 C6.84421368,43.7562518 7.19570333,43.537921 7.58,43.54 L24.37,43.54 C24.7806471,43.5426928 25.181118,43.6680576 25.52,43.9 L30,47 L70,47 L70,51.77 C69.9977174,52.5231164 69.5725593,53.2110995 68.9,53.55 L60.42,57.79 C60.1443048,57.9299173 59.8391618,58.0019174 59.53,58 Z" id="Shape" fill="#FFFFFF" fill-rule="nonzero"></path>
            <path d="M60.5,46.9999987 L48.5,46.9999987 L48.5,28.9999987 L57.5,29 C57.7974322,28.999517 58.0796435,29.1314599 58.27,29.36 L60.5,31.9999998 L60.5,46.9999987 Z" id="Shape" fill="#FFFFFF" fill-rule="nonzero"></path>
            <path d="M60.5,46.9999987 L48.5,46.9999987 L48.5,28.9999987 L57.5,29 C57.7974322,28.999517 58.0796435,29.1314599 58.27,29.36 L60.5,31.9999998 L60.5,46.9999987 Z" id="Shape" stroke="#4550E5" stroke-linecap="round" stroke-linejoin="round"></path>
            <rect id="Rectangle-path" stroke="#4550E5" fill="#D6DAFF" fill-rule="nonzero" stroke-linecap="round" stroke-linejoin="round" x="60.5" y="43.5" width="7.5" height="3.5"></rect>
            <rect id="Rectangle-path" stroke="#4550E5" fill="#D6DAFF" fill-rule="nonzero" stroke-linecap="round" stroke-linejoin="round" x="60.5" y="40" width="7.5" height="3.5"></rect>
            <rect id="Rectangle-path" stroke="#4550E5" fill="#D6DAFF" fill-rule="nonzero" stroke-linecap="round" stroke-linejoin="round" x="60.5" y="36.5" width="7.5" height="3.5"></rect>
            <path d="M60.5,33 L67.5,33 C67.7761424,33 68,33.2238576 68,33.5 L68,36.5 L60.5,36.5 L60.5,33 Z" id="Shape" fill="#D6DAFF" fill-rule="nonzero"></path>
            <path d="M60.5,33 L67.5,33 C67.7761424,33 68,33.2238576 68,33.5 L68,36.5 L60.5,36.5 L60.5,33 Z" id="Shape" stroke="#4550E5" stroke-linecap="round" stroke-linejoin="round"></path>
            <rect id="Rectangle-path" stroke="#4550E5" fill="#D6DAFF" fill-rule="nonzero" stroke-linecap="round" stroke-linejoin="round" x="39" y="43.5" width="7.5" height="3.5"></rect>
            <rect id="Rectangle-path" stroke="#4550E5" fill="#D6DAFF" fill-rule="nonzero" stroke-linecap="round" stroke-linejoin="round" x="39" y="40" width="7.5" height="3.5"></rect>
            <rect id="Rectangle-path" stroke="#4550E5" fill="#D6DAFF" fill-rule="nonzero" stroke-linecap="round" stroke-linejoin="round" x="39" y="36.5" width="7.5" height="3.5"></rect>
            <path d="M39.5,33 L46,33 C46.2761424,33 46.5,33.2238576 46.5,33.5 L46.5,36.5 L39,36.5 L39,33.5 C39,33.2238576 39.2238576,33 39.5,33 Z" id="Shape" fill="#D6DAFF" fill-rule="nonzero"></path>
            <path d="M39.5,33 L46,33 C46.2761424,33 46.5,33.2238576 46.5,33.5 L46.5,36.5 L39,36.5 L39,33.5 C39,33.2238576 39.2238576,33 39.5,33 Z" id="Shape" stroke="#4550E5" stroke-linecap="round" stroke-linejoin="round"></path>
            <rect id="Rectangle-path" stroke="#4550E5" fill="#D6DAFF" fill-rule="nonzero" stroke-linecap="round" stroke-linejoin="round" x="31.5" y="43.5" width="7.5" height="3.5"></rect>
            <rect id="Rectangle-path" stroke="#4550E5" fill="#D6DAFF" fill-rule="nonzero" stroke-linecap="round" stroke-linejoin="round" x="31.5" y="40" width="7.5" height="3.5"></rect>
            <path d="M32,36.5 L39,36.5 L39,40 L31.5,40 L31.5,37 C31.5,36.7238576 31.7238576,36.5 32,36.5 Z" id="Shape" fill="#D6DAFF" fill-rule="nonzero"></path>
            <path d="M32,36.5 L39,36.5 L39,40 L31.5,40 L31.5,37 C31.5,36.7238576 31.7238576,36.5 32,36.5 Z" id="Shape" stroke="#4550E5" stroke-linecap="round" stroke-linejoin="round"></path>
            <rect id="Rectangle-path" stroke="#4550E5" fill="#FFFFFF" fill-rule="nonzero" stroke-linecap="round" stroke-linejoin="round" x="16" y="37" width="2" height="6.5"></rect>
            <path d="M68,35 L69,35 C69.5522847,35 70,35.4477153 70,36 L70,47 L68,47 L68,35 Z" id="Shape" fill="#FFFFFF" fill-rule="nonzero"></path>
            <path d="M18,43.5 L18,40 L19.09,40 C19.354767,40.0036835 19.6083662,40.1072663 19.8,40.29 L23,43.5 L18,43.5 Z" id="Shape" stroke="#4550E5" fill="#FFFFFF" fill-rule="nonzero" stroke-linecap="round" stroke-linejoin="round"></path>
            <path d="M18,35 L16,35 C15.4477153,35 15,35.4477153 15,36 C15,36.5522847 15.4477153,37 16,37 L18,37 C18.5522847,37 19,36.5522847 19,36 C19,35.4477153 18.5522847,35 18,35 Z" id="Shape" stroke="#4550E5" fill="#FFFFFF" fill-rule="nonzero" stroke-linecap="round" stroke-linejoin="round"></path>
            <rect id="Rectangle-path" fill="#D6DAFF" fill-rule="nonzero" x="46.5" y="26" width="10" height="3"></rect>
            <polygon id="Shape" fill="#FFFFFF" fill-rule="nonzero" points="56 26 50.5 29 46.5 29 46.5 26"></polygon>
            <rect id="Rectangle-path" stroke="#4550E5" stroke-linecap="round" stroke-linejoin="round" x="46.5" y="26" width="10" height="3"></rect>
            <path d="M53.44,21.5 L51.5,21.5 C50.9477153,21.5 50.5,21.9477153 50.5,22.5 L50.5,24 L55.5,24 L54.29,22 C54.1142592,21.6955027 53.7915272,21.5056604 53.44,21.5 Z" id="Shape" stroke="#4550E5" fill="#FFFFFF" fill-rule="nonzero" stroke-linecap="round" stroke-linejoin="round"></path>
            <path d="M46.5,29 L48.5,29 L48.5,31 L47.5,31 C46.9477153,31 46.5,30.5522847 46.5,30 L46.5,29 Z" id="Shape" stroke="#4550E5" fill="#FFFFFF" fill-rule="nonzero" stroke-linecap="round" stroke-linejoin="round"></path>
            <path d="M47.5,24 L55.5,24 C56.0522847,24 56.5,24.4477153 56.5,25 L56.5,26 L46.5,26 L46.5,25 C46.5,24.4477153 46.9477153,24 47.5,24 Z" id="Shape" stroke="#4550E5" fill="#FFFFFF" fill-rule="nonzero" stroke-linecap="round" stroke-linejoin="round"></path>
            <path d="M59.53,58 L16.07,58 C15.7189527,58.0020443 15.3925417,57.8198614 15.21,57.52 L12.21,52.52 C11.4208298,51.2028681 10.5490872,49.9370044 9.6,48.73 L6.79,45.16 C6.55172695,44.8584802 6.50732329,44.4470903 6.67576848,44.1016711 C6.84421368,43.7562518 7.19570333,43.537921 7.58,43.54 L24.37,43.54 C24.7806471,43.5426928 25.181118,43.6680576 25.52,43.9 L30,47 L70,47 L70,51.77 C69.9977174,52.5231164 69.5725593,53.2110995 68.9,53.55 L60.42,57.79 C60.1443048,57.9299173 59.8391618,58.0019174 59.53,58 Z" id="Shape" stroke="#4550E5" stroke-linecap="round" stroke-linejoin="round"></path>
            <path d="M60.5,32 L60.5,25" id="Shape" stroke="#4550E5" stroke-linecap="round" stroke-linejoin="round"></path>
            <path d="M51.5,21.5 L51.5,18" id="Shape" stroke="#4550E5" stroke-linecap="round" stroke-linejoin="round"></path>
            <path d="M15,36 L7.5,43.5" id="Shape" stroke="#4550E5" stroke-linecap="round" stroke-linejoin="round"></path>
            <polygon id="Shape" stroke="#4550E5" fill="#FFFFFF" fill-rule="nonzero" stroke-linecap="round" stroke-linejoin="round" points="51 41.5 60.5 36 60.5 33.5 51 39"></polygon>
            <polygon id="Shape" stroke="#4550E5" fill="#FFFFFF" fill-rule="nonzero" stroke-linecap="round" stroke-linejoin="round" points="51 47 60.5 41.5 60.5 39 51 44.5"></polygon>
            <rect id="Rectangle-path" stroke="#4550E5" fill="#FFFFFF" fill-rule="nonzero" stroke-linecap="round" stroke-linejoin="round" x="51" y="33.5" width="9.5" height="2.5"></rect>
            <rect id="Rectangle-path" stroke="#4550E5" fill="#FFFFFF" fill-rule="nonzero" stroke-linecap="round" stroke-linejoin="round" x="51" y="39" width="9.5" height="2.5"></rect>
            <rect id="Rectangle-path" stroke="#4550E5" fill="#FFFFFF" fill-rule="nonzero" stroke-linecap="round" stroke-linejoin="round" x="51" y="44.5" width="9.5" height="2.5"></rect>
            <path d="M60.37,57.79 L68,54 L30,54 L24.75,50.58 C24.4284025,50.362295 24.0483462,50.2472321 23.66,50.25 L10.66,50.2499512 C11.17,50.98 11.66,51.72 12.12,52.48 L15.12,57.48 C15.2958972,57.8014804 15.6335461,58.0010002 16,58 L59.48,58 C59.7889032,57.9996703 60.0935316,57.9277917 60.37,57.79 Z" id="Shape" stroke="#4550E5" fill="#D6DAFF" fill-rule="nonzero" stroke-linecap="round" stroke-linejoin="round"></path>
            <path d="M50,26 L50,29" id="Shape" stroke="#4550E5" stroke-linecap="round" stroke-linejoin="round"></path>
            <path d="M53.5,26 L53.5,29" id="Shape" stroke="#4550E5" stroke-linecap="round" stroke-linejoin="round"></path>
            <path d="M69.24,56.1 C66.8,56.1 66.8,57.66 64.36,57.66 C61.92,57.66 61.92,56.1 59.48,56.1 C57.04,56.1 57,57.66 54.61,57.66 C52.22,57.66 52.17,56.1 49.73,56.1 C47.29,56.1 47.29,57.66 44.86,57.66 C42.43,57.66 42.42,56.1 40,56.1 C37.58,56.1 37.57,57.66 35.13,57.66 C32.69,57.66 32.69,56.1 30.26,56.1 C27.83,56.1 27.82,57.66 25.38,57.66 C22.94,57.66 22.95,56.1 20.51,56.1 C18.07,56.1 18.08,57.66 15.64,57.66 C13.2,57.66 13.2,56.1 10.77,56.1 C8.34,56.1 8.33,57.66 5.89,57.66 C5.18649731,57.6771202 4.49270085,57.4932641 3.89,57.13 C10.5070882,71.1004343 24.5817048,80.0075732 40.04,80.0075732 C55.4982952,80.0075732 69.5729118,71.1004343 76.19,57.13 C75.5894778,57.4993817 74.8948282,57.6869371 74.19,57.67 C71.68,57.66 71.68,56.1 69.24,56.1 Z" id="Shape" fill="#D6DAFF" fill-rule="nonzero"></path>
            <path d="M1,56.09 C3.44,56.09 3.44,57.66 5.87,57.66 C8.3,57.66 8.31,56.09 10.75,56.09 C13.19,56.09 13.18,57.66 15.62,57.66 C18.06,57.66 18.06,56.09 20.49,56.09 C22.92,56.09 22.93,57.66 25.36,57.66 C27.79,57.66 27.8,56.09 30.24,56.09 C32.68,56.09 32.67,57.66 35.11,57.66 C37.55,57.66 37.55,56.09 39.98,56.09 C42.41,56.09 42.42,57.66 44.86,57.66 C47.3,57.66 47.29,56.09 49.73,56.09 C52.17,56.09 52.17,57.66 54.61,57.66 C57.05,57.66 57.04,56.09 59.48,56.09 C61.92,56.09 61.92,57.66 64.36,57.66 C66.8,57.66 66.8,56.09 69.24,56.09 C71.68,56.09 71.68,57.66 74.12,57.66 C76.56,57.66 76.56,56.09 79,56.09" id="Shape" stroke="#4550E5" stroke-linecap="round" stroke-linejoin="round"></path>
            <path d="M14.66,63.56 C17.1,63.56 17.1,62 19.53,62 C21.96,62 21.97,63.56 24.41,63.56 C26.85,63.56 26.84,62 29.28,62 C31.72,62 31.72,63.56 34.15,63.56 C36.58,63.56 36.59,62 39,62 C41.41,62 41.44,63.56 43.87,63.56" id="Shape" stroke="#4550E5" stroke-linecap="round" stroke-linejoin="round"></path>
            <path d="M29.17,72.73 C31.61,72.73 31.61,71.17 34.04,71.17 C36.47,71.17 36.48,72.73 38.91,72.73 C41.34,72.73 41.35,71.17 43.79,71.17 C46.23,71.17 46.22,72.73 48.66,72.73" id="Shape" stroke="#4550E5" stroke-linecap="round" stroke-linejoin="round"></path>
            <path d="M64.78,66 C62.35,66 62.35,67.56 59.91,67.56 C57.47,67.56 57.48,66 55,66 C52.52,66 52.56,67.56 50.13,67.56" id="Shape" stroke="#4550E5" stroke-linecap="round" stroke-linejoin="round"></path>
            <path d="M68,35 L69,35 C69.5522847,35 70,35.4477153 70,36 L70,47 L68,47 L68,35 Z" id="Shape" stroke="#4550E5" stroke-linecap="round" stroke-linejoin="round"></path>
        </g>
    </g>
</svg>
