<svg width="52px" height="66px" viewBox="0 0 52 66" version="1.1" xmlns="http://www.w3.org/2000/svg" xmlns:xlink="http://www.w3.org/1999/xlink">
    <!-- Generator: Sketch 48.2 (47327) - http://www.bohemiancoding.com/sketch -->
    <desc>Created with Sketch.</desc>
    <defs></defs>
    <g id="Page-1" stroke="none" stroke-width="1" fill="none" fill-rule="evenodd" stroke-linejoin="round">
        <g id="customer-service-woman" transform="translate(0.000000, 1.000000)" stroke="#FFFFFF">
            <path d="M43.13,31.83 C45.8858266,31.2430494 47.8619796,28.8175817 47.88,26 L48,14.12 C48.0280336,10.8178012 46.6848991,7.65194877 44.2908625,5.37732969 C41.8968259,3.10271061 38.6664475,1.92318255 35.37,2.12 C29.0116257,2.63796202 24.1280046,7.97070185 24.17,14.35 L24.09,25.85 C24.0856697,28.6547543 26.0250169,31.0882821 28.76,31.71" id="Shape" stroke-linecap="round"></path>
            <path d="M32.36,30.69 L32.36,29.99" id="Shape" stroke-linecap="round"></path>
            <path d="M46.16,16.65 L46.16,14.7 C46.16,14.42 46.16,14.15 46.16,13.87 C41.6534247,16.4229723 35.9649775,15.3779835 32.66,11.39 C31.9386709,13.879455 29.7184863,15.6379376 27.13,15.77 C26.7284654,15.763066 26.3291061,15.7093706 25.94,15.61 L25.94,16.51" id="Shape" stroke-linecap="round"></path>
            <path d="M47.92,19.48 L47.92,18.88" id="Shape" stroke-linecap="round"></path>
            <path d="M33.34,29.17 C35.9422274,29.8838758 38.7218521,29.5278691 41.0601733,28.1812214 C43.3984946,26.8345738 45.1014541,24.609044 45.79,22" id="Shape" stroke-linecap="round"></path>
            <path d="M26.2,21.86 C26.7826254,24.1893424 28.1713936,26.2370668 30.12,27.64" id="Shape" stroke-linecap="round"></path>
            <path d="M24.1,18.72 L24.1,19.32" id="Shape" stroke-linecap="round"></path>
            <path d="M33,23.55 C34.673805,25.1654132 37.326195,25.1654132 39,23.55" id="Shape" stroke-linecap="round"></path>
            <path d="M41.38,18.24 C41.1313174,17.6303665 40.5384041,17.2318823 39.88,17.2318823 C39.2215959,17.2318823 38.6286826,17.6303665 38.38,18.24" id="Shape" stroke-linecap="round"></path>
            <path d="M33.64,18 C33.3913174,17.3903665 32.7984041,16.9918823 32.14,16.9918823 C31.4815959,16.9918823 30.8886826,17.3903665 30.64,18" id="Shape" stroke-linecap="round"></path>
            <path d="M21.7,21.09 L21.7,22.88 C21.6777814,25.8325445 24.047556,28.2470318 27,28.28" id="Shape" stroke-linecap="round"></path>
            <path d="M25.27,22.31 L22.88,22.31 C22.5635483,22.3100455 22.2603395,22.1829827 22.0384626,21.9573452 C21.8165856,21.7317076 21.6946364,21.4264062 21.7,21.11 L21.7,17.54 C21.7054905,16.8811669 22.241144,16.3499771 22.9,16.35 L25.29,16.35" id="Shape" stroke-linecap="round"></path>
            <path d="M24.08,21.11 C24.0853376,21.7666361 24.6134316,22.2991678 25.27,22.31 C25.9272189,22.31 26.46,21.7772189 26.46,21.12 L26.46,17.55 C26.4626633,17.2343891 26.3398359,16.9306479 26.1185405,16.7056018 C25.8972452,16.4805557 25.5956111,16.352641 25.28,16.35 C24.9635938,16.3446364 24.6582924,16.4665856 24.4326548,16.6884626 C24.2070173,16.9103395 24.0799545,17.2135483 24.08,17.53 L24.08,21.11 Z" id="Shape" stroke-linecap="round"></path>
            <path d="M46.71,22.45 L49.1,22.45 C49.7572189,22.45 50.29,21.9172189 50.29,21.26 L50.29,17.69 C50.2926633,17.3743891 50.1698359,17.0706479 49.9485405,16.8456018 C49.7272452,16.6205557 49.4256111,16.492641 49.11,16.49 L46.72,16.49" id="Shape" stroke-linecap="round"></path>
            <path d="M47.91,21.27 C47.91,21.6951461 47.6831873,22.0879973 47.315,22.3005703 C46.9468127,22.5131434 46.4931873,22.5131434 46.125,22.3005703 C45.7568127,22.0879973 45.53,21.6951461 45.53,21.27 L45.53,17.69 C45.5865701,17.0722441 46.1046594,16.5994303 46.725,16.5994303 C47.3453406,16.5994303 47.8634299,17.0722441 47.92,17.69 L47.91,21.27 Z" id="Shape" stroke-linecap="round"></path>
            <path d="M33.57,28.32 C33.5644619,29.3085669 32.7585859,30.1054721 31.7700189,30.0999442 C30.781452,30.0944164 29.9845384,29.2885487 29.990056,28.2999817 C29.9955735,27.3114147 30.8014329,26.5144927 31.79,26.52 C32.2647398,26.5226448 32.7189841,26.7137747 33.0528004,27.0513418 C33.3866168,27.3889089 33.5726596,27.8452603 33.57,28.32 Z" id="Shape" stroke-linecap="round"></path>
            <path d="M21.71,19.3 L21.71,13.94 C21.9599984,6.18892703 28.3426666,0.0497626902 36.0975989,0.101299491 C43.8525312,0.152836292 50.1530415,6.37628898 50.3,14.13 L50.3,19.49" id="Shape" stroke-linecap="round"></path>
            <path d="M27,28.28 L30,28.28" id="Shape" stroke-linecap="round"></path>
            <path d="M39.52,28.9 L39.51,30.74" id="Shape" stroke-linecap="round"></path>
            <path d="M20.45,43.8 C21.1060921,38.2648108 24.6782481,33.5057525 29.81,31.33" id="Shape" stroke-linecap="round"></path>
            <path d="M44.29,32.64 C48.6966457,35.5251755 51.3338835,40.4530428 51.29,45.72 L51.29,53.46 C51.22,63.14 44.29,64.14 39.37,64.11 L37.12,64.11" id="Shape" stroke-linecap="round"></path>
            <path d="M45.32,53.42 C45.32,57.96 41.94,58.76 39.4,58.75 L36.94,58.75 L36.94,60.54" id="Shape" stroke-linecap="round"></path>
            <path d="M26.27,51.88 L26.3,46.14" id="Shape" stroke-linecap="round"></path>
            <path d="M45.36,46.27 L45.32,53.42" id="Shape" stroke-linecap="round"></path>
            <path d="M34.61,63.47 L34.6,63.47" id="Shape" stroke-linecap="round"></path>
            <path d="M36.93,60.52 L36.93,58.73 L35.15,58.73 C34.5846864,58.7174392 34.0352014,58.917252 33.61,59.29" id="Shape" stroke-linecap="round"></path>
            <path d="M35.89,37.87 L35.78,53.36" id="Shape" stroke-linecap="round"></path>
            <path d="M30.31,36.17 C30.4988544,36.4218058 30.7952427,36.57 31.11,36.57 C31.4247573,36.57 31.7211456,36.4218058 31.91,36.17 L33.7,33.7 C33.9567957,33.3485802 33.9567957,32.8714198 33.7,32.52 L32.24,30.52 C30.5762816,30.9210877 28.9911719,31.5970407 27.55,32.52 L30.31,36.17 Z" id="Shape" stroke-linecap="round"></path>
            <path d="M41.48,36.25 C41.2848819,36.4971241 40.9847677,36.6379184 40.67,36.63 C40.3552299,36.62218 40.0625259,36.4665652 39.88,36.21 L38.12,33.71 C37.8632043,33.3585802 37.8632043,32.8814198 38.12,32.53 L39.6,30.59 C41.2598335,30.9933736 42.8412855,31.6692079 44.28,32.59 L41.48,36.25 Z" id="Shape" stroke-linecap="round"></path>
            <path d="M24.53,61.72 L26.75,61.72 L22.11,47 C21.9770633,46.5922133 21.5988833,46.3146131 21.17,46.31 L19.67,46.31 L24.53,61.72 Z" id="Shape"></path>
            <path d="M5.17,61.59 L25.52,61.73 L25.52,64.21 L7.15,64.09 C6.0454305,64.09 5.15,63.1945695 5.15,62.09 L5.17,61.59 Z" id="Shape"></path>
            <path d="M25.52,61.73 L34.52,61.79 C34.6517074,61.7899726 34.7778806,61.8429679 34.8700663,61.937035 C34.9622521,62.0311021 35.0126879,62.15832 35.01,62.29 C35.01,63.3945695 34.1145695,64.29 33.01,64.29 L25.52,64.24 L25.52,61.73 Z" id="Shape"></path>
            <path d="M13.51,53.4 C13.5152726,53.0222015 13.7158206,52.6740804 14.04,52.48 C13.8354768,52.1873714 13.5066436,52.0063284 13.15,51.99 C12.77,51.99 12.41,52.21 12.22,52.21 C12.03,52.21 11.73,51.99 11.41,51.99 C10.9947957,52.0017677 10.6157735,52.229181 10.41,52.59 C10.0711888,53.4044822 10.1810765,54.3366329 10.7,55.05 C10.9,55.35 11.15,55.69 11.47,55.68 C11.79,55.67 11.89,55.48 12.27,55.48 C12.65,55.48 12.74,55.68 13.07,55.68 C13.4,55.68 13.62,55.38 13.82,55.09 C13.9654839,54.8757899 14.0830966,54.6439249 14.17,54.4 C13.7718341,54.2262405 13.5132305,53.8344169 13.51,53.4 Z" id="Shape"></path>
            <path d="M5.17,61.59 L24.53,61.72 L19.67,46.3 L1.67,46.18 C1.3552427,46.18 1.05885438,46.3281942 0.87,46.58 C0.681351483,46.835949 0.625664713,47.1663571 0.72,47.47 L5.17,61.59 Z" id="Shape"></path>
            <path d="M12.19,50.73 L12.64,50.28" id="Shape" stroke-linecap="round"></path>
            <path d="M38.06,33.59 L35.89,37.87" id="Shape" stroke-linecap="round"></path>
            <path d="M35.89,37.87 L33.77,33.56" id="Shape" stroke-linecap="round"></path>
        </g>
    </g>
</svg>
