<svg width="58px" height="60px" viewBox="0 0 58 60" version="1.1" xmlns="http://www.w3.org/2000/svg" xmlns:xlink="http://www.w3.org/1999/xlink">
    <!-- Generator: Sketch 48.2 (47327) - http://www.bohemiancoding.com/sketch -->
    <desc>Created with Sketch.</desc>
    <defs></defs>
    <g id="Page-1" stroke="none" stroke-width="1" fill="none" fill-rule="evenodd" stroke-linecap="round" stroke-linejoin="round">
        <g id="ecology-globe" transform="translate(0.000000, 1.000000)" stroke="#4550E5">
            <path d="M15.14,4 C14.7976805,3.99984268 14.4584075,4.06430453 14.14,4.19 C13.8386774,1.93508602 11.9149577,0.251331855 9.64,0.251331855 C7.36504234,0.251331855 5.44132258,1.93508602 5.14,4.19 C4.82222008,4.06215042 4.48252572,3.99760849 4.14,4 C2.69363991,4.0874976 1.56545392,5.28599574 1.56545392,6.735 C1.56545392,8.18400426 2.69363991,9.3825024 4.14,9.47 L15.14,9.47 C16.5863601,9.3825024 17.7145461,8.18400426 17.7145461,6.735 C17.7145461,5.28599574 16.5863601,4.0874976 15.14,4 Z" id="Shape"></path>
            <path d="M54.76,10.56 C54.4174743,10.5576085 54.0777799,10.6221504 53.76,10.75 C53.4586774,8.49508602 51.5349577,6.81133186 49.26,6.81133186 C46.9850423,6.81133186 45.0613226,8.49508602 44.76,10.75 C44.4422201,10.6221504 44.1025257,10.5576085 43.76,10.56 C42.2522626,10.56 41.03,11.7822626 41.03,13.29 C41.03,14.7977374 42.2522626,16.02 43.76,16.02 L54.76,16.02 C56.2677374,16.02 57.49,14.7977374 57.49,13.29 C57.49,11.7822626 56.2677374,10.56 54.76,10.56 Z" id="Shape"></path>
            <path d="M47.19,34.46 L38,34.46 L29,23.88 L33.29,18 C33.5071825,17.7104233 33.8480291,17.54 34.21,17.54 C34.5719709,17.54 34.9128175,17.7104233 35.13,18 L47.19,34.46 Z" id="Shape"></path>
            <path d="M23.73,26.26 L22.72,25.08" id="Shape"></path>
            <path d="M24.4,23.1 L25.49,21.82 C25.7041274,21.5669894 26.0185421,21.42075 26.35,21.42 C26.6843599,21.4205178 27.0019393,21.5665313 27.22,21.82 L29,23.88 L38,34.46 L18.26,34.46 L18.26,31.85" id="Shape"></path>
            <path d="M14.74,34.46 L16.32,32.6" id="Shape"></path>
            <path d="M18.26,34.46 L14.74,34.46" id="Shape"></path>
            <path d="M18.26,30.37 L18.26,34.46" id="Shape"></path>
            <path d="M5.97,34.47 L5.97,29" id="Shape"></path>
            <polygon id="Shape" points="11.44 24.9 7.34 20.12 10.07 20.12 5.97 15.34 1.87 20.12 4.61 20.12 0.51 24.9 3.92 24.9 0.51 29 5.97 29 11.44 29 8.02 24.9"></polygon>
            <path d="M42.87,48.93 C42.61,49.25 42.35,49.54 42.08,49.85 C41.81,50.16 41.53,50.43 41.25,50.71 C40.9750848,51.0020589 40.6846657,51.2791254 40.38,51.54 L39.46,52.32 C38.8441576,52.8340675 38.1961775,53.3083621 37.52,53.74 C37.1,54.02 36.67,54.28 36.23,54.53 C32.6369375,56.5945348 28.563953,57.6774451 24.42,57.67 C11.93399,57.6648611 1.55604079,48.0493557 0.6,35.6 C0.57804833,35.3154306 0.671782195,35.034033 0.859995543,34.8194698 C1.04820889,34.6049066 1.31499607,34.4753101 1.6,34.46 L47.19,34.46 C47.4820861,34.4645335 47.759878,34.5871948 47.96,34.8 C48.1569048,35.0177686 48.254672,35.3074492 48.23,35.6 C47.8598041,40.4895439 45.9877437,45.1452465 42.87,48.93 Z" id="Shape"></path>
            <path d="M23.73,38.33 C23.7336281,39.3545089 23.32664,40.3377632 22.6,41.06 C21.140558,42.5265073 20.3208616,44.5110356 20.32,46.58 L20.32,48.5 C20.3354422,49.676625 19.4817508,50.6848453 18.3186788,50.8635858 C17.1556067,51.0423263 16.038573,50.3369663 15.7,49.21 L13.41,41.89 C13.0712003,40.7071846 11.9903801,39.8914713 10.76,39.89 C9.24673979,39.89 8.02,38.6632602 8.02,37.15 C8.02,35.6367398 9.24673979,34.41 10.76,34.41 L19.87,34.41 C20.9033752,34.4125839 21.8927965,34.8283473 22.6178485,35.5646695 C23.3429006,36.3009918 23.7433544,37.2967079 23.73,38.33 Z" id="Shape"></path>
            <path d="M42.86,49 L42.86,44.5 C42.8600635,42.3632737 41.1366627,40.6264786 39,40.61 C37.3666239,40.642674 36.0596732,41.9762972 36.06,43.61 C36.0573613,45.0579365 35.0008778,46.2883791 33.57,46.51 L32.84,46.62 C29.4973611,47.139166 26.9095862,49.8209676 26.51,53.18 L26,57.62 C32.569695,57.1999074 38.6726068,54.079676 42.86,49 Z" id="Shape"></path>
            <polyline id="Shape" points="23.73 30.37 12.8 30.37 16.22 26.26 12.8 26.26 16.9 21.49 14.17 21.49 18.26 16.71 22.37 21.49 19.64 21.49 22.72 25.08 23.73 26.26 21.71 26.26"></polyline>
            <path d="M21,27.09 L23.73,30.37" id="Shape"></path>
            <polyline id="Shape" points="21.71 26.26 20.32 26.26 21.01 27.09"></polyline>
        </g>
    </g>
</svg>
