<svg xmlns="http://www.w3.org/2000/svg" width="88" height="76">
  <g fill="none" fill-rule="evenodd">
    <path fill="#F0F2FF" fill-rule="nonzero" d="M84.5 40c-.0015-16.3354-9.936-31.0285-25.095-37.1155-15.1589-6.087-32.496-2.3447-43.7943 9.4533C4.3123 24.1358 1.3232 41.6185 8.06 56.5h72.88A39.85 39.85 0 0 0 84.5 40z"/>
    <path stroke="#4550E5" stroke-linecap="round" stroke-linejoin="round" d="M5 56.5h78m-82.5 0H3m82 0h2.5"/>
    <path fill="#FFF" fill-rule="nonzero" stroke="#4550E5" stroke-linecap="round" stroke-linejoin="round" d="M59.17 19.5h17.5v34h-17.5zm0-2h17.5v2h-17.5zm-2 39h2v-39c0-.5523-.4477-1-1-1s-1 .4477-1 1v39zm19.5 0h2v-39c0-.5523-.4477-1-1-1s-1 .4477-1 1v39zm-39-37h17.5v34h-17.5z"/>
    <path fill="#FFF" fill-rule="nonzero" stroke="#4550E5" stroke-linecap="round" stroke-linejoin="round" d="M40.67 21.5h11.5c.5523 0 1 .4477 1 1v2h-13.5v-2c0-.5523.4477-1 1-1z"/>
    <path fill="#D6DAFF" fill-rule="nonzero" stroke="#4550E5" stroke-linecap="round" stroke-linejoin="round" d="M47.17 21.5l-3 3h9v-2c0-.5523-.4477-1-1-1h-5z"/>
    <path fill="#FFF" fill-rule="nonzero" stroke="#4550E5" stroke-linecap="round" stroke-linejoin="round" d="M40.67 37.5h11.5c.5523 0 1 .4477 1 1v2h-13.5v-2c0-.5523.4477-1 1-1z"/>
    <path fill="#D6DAFF" fill-rule="nonzero" stroke="#4550E5" stroke-linecap="round" stroke-linejoin="round" d="M47.17 37.5l-3 3h9v-2c0-.5523-.4477-1-1-1h-5z"/>
    <path fill="#FFF" fill-rule="nonzero" stroke="#4550E5" stroke-linecap="round" stroke-linejoin="round" d="M39.67 24.5h13.5v2c0 .5523-.4477 1-1 1h-11.5c-.5523 0-1-.4477-1-1v-2z"/>
    <path fill="#D6DAFF" fill-rule="nonzero" stroke="#4550E5" stroke-linecap="round" stroke-linejoin="round" d="M47.17 24.5l-3 3h8c.5523 0 1-.4477 1-1v-2h-6z"/>
    <path fill="#FFF" fill-rule="nonzero" stroke="#4550E5" stroke-linecap="round" stroke-linejoin="round" d="M62.17 21.5h11.5c.5523 0 1 .4477 1 1v2h-13.5v-2c0-.5523.4477-1 1-1z"/>
    <path fill="#D6DAFF" fill-rule="nonzero" stroke="#4550E5" stroke-linecap="round" stroke-linejoin="round" d="M68.67 21.5l-3 3h9v-2c0-.5523-.4477-1-1-1h-5z"/>
    <path fill="#FFF" fill-rule="nonzero" stroke="#4550E5" stroke-linecap="round" stroke-linejoin="round" d="M61.17 24.5h13.5v2c0 .5523-.4477 1-1 1h-11.5c-.5523 0-1-.4477-1-1v-2z"/>
    <path fill="#D6DAFF" fill-rule="nonzero" stroke="#4550E5" stroke-linecap="round" stroke-linejoin="round" d="M68.67 24.5l-3 3h8c.5523 0 1-.4477 1-1v-2h-6z"/>
    <path fill="#FFF" fill-rule="nonzero" stroke="#4550E5" stroke-linecap="round" stroke-linejoin="round" d="M62.17 29.5h11.5c.5523 0 1 .4477 1 1v2h-13.5v-2c0-.5523.4477-1 1-1z"/>
    <path fill="#D6DAFF" fill-rule="nonzero" stroke="#4550E5" stroke-linecap="round" stroke-linejoin="round" d="M68.67 29.5l-3 3h9v-2c0-.5523-.4477-1-1-1h-5z"/>
    <path fill="#FFF" fill-rule="nonzero" stroke="#4550E5" stroke-linecap="round" stroke-linejoin="round" d="M61.17 32.5h13.5v2c0 .5523-.4477 1-1 1h-11.5c-.5523 0-1-.4477-1-1v-2z"/>
    <path fill="#D6DAFF" fill-rule="nonzero" stroke="#4550E5" stroke-linecap="round" stroke-linejoin="round" d="M68.67 32.5l-3 3h8c.5523 0 1-.4477 1-1v-2h-6z"/>
    <path fill="#FFF" fill-rule="nonzero" stroke="#4550E5" stroke-linecap="round" stroke-linejoin="round" d="M40.67 45.5h11.5c.5523 0 1 .4477 1 1v2h-13.5v-2c0-.5523.4477-1 1-1z"/>
    <path fill="#D6DAFF" fill-rule="nonzero" stroke="#4550E5" stroke-linecap="round" stroke-linejoin="round" d="M47.17 45.5l-3 3h9v-2c0-.5523-.4477-1-1-1h-5z"/>
    <path fill="#FFF" fill-rule="nonzero" stroke="#4550E5" stroke-linecap="round" stroke-linejoin="round" d="M39.67 48.5h13.5v2c0 .5523-.4477 1-1 1h-11.5c-.5523 0-1-.4477-1-1v-2z"/>
    <path fill="#D6DAFF" fill-rule="nonzero" stroke="#4550E5" stroke-linecap="round" stroke-linejoin="round" d="M47.17 48.5l-3 3h8c.5523 0 1-.4477 1-1v-2h-6z"/>
    <path fill="#FFF" fill-rule="nonzero" stroke="#4550E5" stroke-linecap="round" stroke-linejoin="round" d="M40.67 29.5h11.5c.5523 0 1 .4477 1 1v2h-13.5v-2c0-.5523.4477-1 1-1z"/>
    <path fill="#D6DAFF" fill-rule="nonzero" stroke="#4550E5" stroke-linecap="round" stroke-linejoin="round" d="M47.17 29.5l-3 3h9v-2c0-.5523-.4477-1-1-1h-5z"/>
    <path fill="#FFF" fill-rule="nonzero" stroke="#4550E5" stroke-linecap="round" stroke-linejoin="round" d="M39.67 32.5h13.5v2c0 .5523-.4477 1-1 1h-11.5c-.5523 0-1-.4477-1-1v-2z"/>
    <path fill="#D6DAFF" fill-rule="nonzero" stroke="#4550E5" stroke-linecap="round" stroke-linejoin="round" d="M47.17 32.5l-3 3h8c.5523 0 1-.4477 1-1v-2h-6z"/>
    <path fill="#FFF" fill-rule="nonzero" stroke="#4550E5" stroke-linecap="round" stroke-linejoin="round" d="M62.17 37.5h11.5c.5523 0 1 .4477 1 1v2h-13.5v-2c0-.5523.4477-1 1-1z"/>
    <path fill="#D6DAFF" fill-rule="nonzero" stroke="#4550E5" stroke-linecap="round" stroke-linejoin="round" d="M68.67 37.5l-3 3h9v-2c0-.5523-.4477-1-1-1h-5z"/>
    <path fill="#FFF" fill-rule="nonzero" stroke="#4550E5" stroke-linecap="round" stroke-linejoin="round" d="M61.17 40.5h13.5v2c0 .5523-.4477 1-1 1h-11.5c-.5523 0-1-.4477-1-1v-2z"/>
    <path fill="#D6DAFF" fill-rule="nonzero" stroke="#4550E5" stroke-linecap="round" stroke-linejoin="round" d="M68.67 40.5l-3 3h8c.5523 0 1-.4477 1-1v-2h-6z"/>
    <path fill="#FFF" fill-rule="nonzero" stroke="#4550E5" stroke-linecap="round" stroke-linejoin="round" d="M62.17 45.5h11.5c.5523 0 1 .4477 1 1v2h-13.5v-2c0-.5523.4477-1 1-1z"/>
    <path fill="#D6DAFF" fill-rule="nonzero" stroke="#4550E5" stroke-linecap="round" stroke-linejoin="round" d="M68.67 45.5l-3 3h9v-2c0-.5523-.4477-1-1-1h-5z"/>
    <path fill="#FFF" fill-rule="nonzero" stroke="#4550E5" stroke-linecap="round" stroke-linejoin="round" d="M61.17 48.5h13.5v2c0 .5523-.4477 1-1 1h-11.5c-.5523 0-1-.4477-1-1v-2z"/>
    <path fill="#D6DAFF" fill-rule="nonzero" stroke="#4550E5" stroke-linecap="round" stroke-linejoin="round" d="M68.67 48.5l-3 3h8c.5523 0 1-.4477 1-1v-2h-6z"/>
    <path fill="#FFF" fill-rule="nonzero" stroke="#4550E5" stroke-linecap="round" stroke-linejoin="round" d="M39.67 40.5h13.5v2c0 .5523-.4477 1-1 1h-11.5c-.5523 0-1-.4477-1-1v-2z"/>
    <path fill="#D6DAFF" fill-rule="nonzero" stroke="#4550E5" stroke-linecap="round" stroke-linejoin="round" d="M47.17 40.5l-3 3h8c.5523 0 1-.4477 1-1v-2h-6z"/>
    <path fill="#FFF" fill-rule="nonzero" stroke="#4550E5" stroke-linecap="round" stroke-linejoin="round" d="M37.67 17.5h17.5v2h-17.5zm-2 39h2v-39c0-.5523-.4477-1-1-1s-1 .4477-1 1v39zm19.5 0h2v-39c0-.5523-.4477-1-1-1s-1 .4477-1 1v39z"/>
    <path stroke="#4550E5" stroke-linecap="round" stroke-linejoin="round" d="M40.08 44.38A2.86 2.86 0 0 1 43 47.25V68c0 2.3306 1.8894 4.22 4.22 4.22H51"/>
    <path fill="#F0F2FF" fill-rule="nonzero" stroke="#4550E5" stroke-linecap="round" stroke-linejoin="round" d="M52.15 73.12H55v-2.3h-2.85A1.16 1.16 0 0 0 51 72c.0163.6234.5264 1.1202 1.15 1.12z"/>
    <path stroke="#4550E5" stroke-linecap="round" stroke-linejoin="round" d="M52.15 53.57v6.53a2.67 2.67 0 0 0 2.68 2.67h2.5a4.6 4.6 0 0 1 4.6 4.61c0 2.5405-2.0595 4.6-4.6 4.6H55"/>
    <path stroke="#4550E5" stroke-linecap="round" stroke-linejoin="round" d="M48.7 53.57V60c.0055 1.5204 1.2396 2.75 2.76 2.75h5.87"/>
    <ellipse cx="25.13" cy="74.27" fill="#F0F2FF" fill-rule="nonzero" rx="11.5" ry="1.73"/>
    <path fill="#FFF" fill-rule="nonzero" stroke="#4550E5" stroke-linecap="round" stroke-linejoin="round" d="M23.4 12.18a6.89 6.89 0 0 0-6.9 6.89V20a1.41 1.41 0 0 0-1.15 1.38c.0077.732.5706 1.3382 1.3 1.4.7312 3.4499 3.946 5.7932 7.454 5.4334 3.5081-.3598 6.1804-3.307 6.196-6.8334v-2.31a6.89 6.89 0 0 0-6.9-6.89zM11.9 41.5c-.1205-3.982 1.935-7.714 5.3648-9.7406 3.4298-2.0266 7.6906-2.0266 11.1204 0 3.4297 2.0265 5.4853 5.7587 5.3648 9.7406v1.73h-2.87v8.62h-15v-8.62h-4l.02-1.73z"/>
    <circle cx="22.54" cy="19.94" r="1" fill="#4550E5" fill-rule="nonzero"/>
    <circle cx="27.14" cy="19.94" r="1" fill="#4550E5" fill-rule="nonzero"/>
    <circle cx="20.24" cy="22.24" r="1" fill="#D6DAFF" fill-rule="nonzero"/>
    <path stroke="#4550E5" stroke-linecap="round" stroke-linejoin="round" d="M22.83 24.3a3.1 3.1 0 0 0 3.45 0"/>
    <path fill="#FFF" fill-rule="nonzero" d="M30.88 17.35c0-4.1421-3.3579-7.5-7.5-7.5s-7.5 3.3579-7.5 7.5v2.3a5.94 5.94 0 0 0 4-3.45c3.3 2.17 7.55 1.73 11 1.15z"/>
    <path stroke="#4550E5" stroke-linecap="round" stroke-linejoin="round" d="M30.88 17.35c0-4.1421-3.3579-7.5-7.5-7.5s-7.5 3.3579-7.5 7.5v2.3a5.94 5.94 0 0 0 4-3.45c3.3 2.17 7.55 1.73 11 1.15zm-12.08-2.3A3.79 3.79 0 0 0 20 16.2"/>
    <path fill="#FFF" fill-rule="nonzero" stroke="#4550E5" stroke-linecap="round" stroke-linejoin="round" d="M11.9 55c0 1.1046.8954 2 2 2s2-.8954 2-2V43.23h-4V55z"/>
    <path stroke="#4550E5" stroke-linecap="round" stroke-linejoin="round" d="M15.93 43.23v-3.46m14.95 3.46v-3.46"/>
    <path fill="#FFF" fill-rule="nonzero" stroke="#4550E5" stroke-linecap="round" stroke-linejoin="round" d="M20.56 30.81l2.84 3.79 2.74-3.51a11 11 0 0 0-3.31-.52 11.35 11.35 0 0 0-2.27.24z"/>
    <path fill="#D6DAFF" fill-rule="nonzero" stroke="#4550E5" stroke-linecap="round" stroke-linejoin="round" d="M23.4 34.6l2.12.35a1 1 0 0 0 1.1-1.11l-.48-2.75-2.74 3.51zm-2.84-3.79l-.43 3.07A1 1 0 0 0 21.24 35l2.16-.36-2.84-3.83z"/>
    <path stroke="#4550E5" stroke-linecap="round" stroke-linejoin="round" d="M23.4 34.6v17.25"/>
    <rect width="13.23" height="8.63" x="26.85" y="38.63" fill="#FFF" fill-rule="nonzero" rx="1"/>
    <rect width="13.23" height="8.63" x="26.85" y="38.63" stroke="#4550E5" stroke-linecap="round" stroke-linejoin="round" rx="1"/>
    <circle cx="33.47" cy="43.8" r="1.15" fill="#D6DAFF" fill-rule="nonzero" stroke="#4550E5" stroke-linecap="round" stroke-linejoin="round"/>
    <path stroke="#4550E5" stroke-linecap="round" stroke-linejoin="round" d="M33.47 41.5l.57-.57"/>
    <path fill="#FFF" fill-rule="nonzero" stroke="#4550E5" stroke-linecap="round" stroke-linejoin="round" d="M31.69 46.68h3a.81.81 0 0 1 .81.81v.86c0 .6627-.5373 1.2-1.2 1.2h-2.2a1.2 1.2 0 0 1-1.2-1.2v-.86a.81.81 0 0 1 .79-.81z"/>
    <path fill="#D6DAFF" fill-rule="nonzero" d="M30.3 69.68a3.69 3.69 0 0 1 .58 0V51.85h-15v17.83h4.6a3.11 3.11 0 0 1 .69.07l.4-11c.07-.9341.8483-1.6563 1.785-1.6563.9367 0 1.715.7222 1.785 1.6563l.51 10.93h4.65z"/>
    <path stroke="#4550E5" stroke-linecap="round" stroke-linejoin="round" d="M30.3 69.68a3.69 3.69 0 0 1 .58 0V51.85h-15v17.83h4.6a3.11 3.11 0 0 1 .69.07l.4-11c.07-.9341.8483-1.6563 1.785-1.6563.9367 0 1.715.7222 1.785 1.6563l.51 10.93h4.65z"/>
    <path fill="#FFF" fill-rule="nonzero" stroke="#4550E5" stroke-linecap="round" stroke-linejoin="round" d="M33.75 73.12a3.44 3.44 0 0 0-3.45-3.44h-4.6V72c.0055.6312.5188 1.14 1.15 1.14l6.9-.02zm-9.75 0c-.0055-1.9015-1.5485-3.44-3.45-3.44h-4.6V72a1.14 1.14 0 0 0 1.15 1.14l6.9-.02z"/>
  </g>
</svg>
