<svg xmlns="http://www.w3.org/2000/svg" width="88" height="70">
  <g fill="none" fill-rule="evenodd">
    <path fill="#F0F2FF" fill-rule="nonzero" d="M84 40.25c-.0056-16.3342-9.9423-31.024-25.1011-37.108-15.1588-6.084-32.494-2.3398-43.7905 9.4582C3.8118 24.3982.8237 41.8796 7.56 56.76h72.88A39.93 39.93 0 0 0 84 40.25z"/>
    <path stroke="#4550E5" stroke-linecap="round" stroke-linejoin="round" d="M5 56.76h78m-82.5 0H3m82 0h2.5"/>
    <ellipse cx="36.44" cy="68.25" fill="#F0F2FF" fill-rule="nonzero" rx="18" ry="1.5"/>
    <path fill="#FFF" fill-rule="nonzero" d="M57.4 35.15c3.3137 0 6-2.6863 6-6v-12a12 12 0 0 0-12.8-12c-6.412.5556-11.3028 5.9748-11.2 12.41v11.59c0 3.3137 2.6863 6 6 6h12z"/>
    <path stroke="#4550E5" stroke-linecap="round" stroke-linejoin="round" d="M57.4 35.15c3.3137 0 6-2.6863 6-6v-12a12 12 0 0 0-12.8-12c-6.412.5556-11.3028 5.9748-11.2 12.41v11.59c0 3.3137 2.6863 6 6 6h12z"/>
    <path fill="#FFF" fill-rule="nonzero" d="M51.4 33.35A15.6 15.6 0 0 0 35.8 49v4.2c0 7.91-2.81 9-5.92 9H27.4v5.4h2.48c4.36 0 11.92-3.63 11.92-10.8H61c0 4.56-3.36 5.4-5.92 5.4H52.6v5.4h2.48C60 67.55 67 66.5 67 56.75V49a15.59 15.59 0 0 0-15.6-15.65z"/>
    <path stroke="#4550E5" stroke-linecap="round" stroke-linejoin="round" d="M51.4 33.35A15.6 15.6 0 0 0 35.8 49v4.2c0 7.91-2.81 9-5.92 9H27.4v5.4h2.48c4.36 0 11.92-3.63 11.92-10.8H61c0 4.56-3.36 5.4-5.92 5.4H52.6v5.4h2.48C60 67.55 67 66.5 67 56.75V49a15.59 15.59 0 0 0-15.6-15.65zm-9.6 16.2v7.2m19.2-7.2v7.2"/>
    <path fill="#FFF" fill-rule="nonzero" stroke="#4550E5" stroke-linecap="round" stroke-linejoin="round" d="M52.6 67h-1.8c-1.3255 0-2.4-1.0745-2.4-2.4s1.0745-2.4 2.4-2.4h1.8V67zm-25.2 0h-1.8c-1.3255 0-2.4-1.0745-2.4-2.4s1.0745-2.4 2.4-2.4h1.8V67z"/>
    <path stroke="#4550E5" stroke-linecap="round" stroke-linejoin="round" d="M51.4 41.15v15.6"/>
    <path fill="#FFF" fill-rule="nonzero" d="M55 33.95l-3.6 7.2-3.6-7.2v-3H55z"/>
    <path stroke="#4550E5" stroke-linecap="round" stroke-linejoin="round" d="M55 33.95l-3.6 7.2-3.6-7.2v-3H55z"/>
    <path fill="#FFF" fill-rule="nonzero" stroke="#4550E5" stroke-linecap="round" stroke-linejoin="round" d="M45.78 39.48a1 1 0 0 0 .81.39 1 1 0 0 0 .79-.42l1.8-2.5a1 1 0 0 0 0-1.19l-1.48-2a15.6 15.6 0 0 0-4.71 2l2.79 3.72zm11.22 0a1 1 0 0 1-1.6 0L53.63 37a1 1 0 0 1 0-1.19l1.48-2a15.65 15.65 0 0 1 4.72 2L57 39.48zm4.6-19.33v-3.23c-4.5365 2.6195-10.2995 1.5985-13.66-2.42-.6848 2.5366-2.917 4.3496-5.54 4.5a5.32 5.32 0 0 1-1.2-.14v1.34c-.9918.0055-1.7945.8082-1.8 1.8v.6c.0055.9918.8082 1.7945 1.8 1.8h.17c.8592 4.8695 5.0903 8.4194 10.035 8.4194S60.5808 29.2695 61.44 24.4h.16c.9941 0 1.8-.8059 1.8-1.8V22a1.8 1.8 0 0 0-1.8-1.85z"/>
    <path fill="#D6DAFF" fill-rule="nonzero" d="M46.6 24.35c0 .6627-.5373 1.2-1.2 1.2s-1.2-.5373-1.2-1.2.5373-1.2 1.2-1.2 1.2.5373 1.2 1.2zm12 0c0 .6627-.5373 1.2-1.2 1.2s-1.2-.5373-1.2-1.2.5373-1.2 1.2-1.2 1.2.5373 1.2 1.2z"/>
    <path stroke="#4550E5" stroke-linecap="round" stroke-linejoin="round" d="M48.4 26.75c1.68 1.6 4.32 1.6 6 0m2.4-5.4a1.63 1.63 0 0 0-3 0m-4.8-.2a1.63 1.63 0 0 0-3 0m-9 3.2v1.8a5.4 5.4 0 0 0 5.4 5.4h3"/>
    <path fill="#FFF" fill-rule="nonzero" stroke="#4550E5" stroke-linecap="round" stroke-linejoin="round" d="M38.2 19.55h2.4v6h-2.4c-.6627 0-1.2-.5373-1.2-1.2v-3.6c0-.6627.5373-1.2 1.2-1.2z"/>
    <path fill="#D6DAFF" fill-rule="nonzero" stroke="#4550E5" stroke-linecap="round" stroke-linejoin="round" d="M39.4 24.35c0 .6627.5373 1.2 1.2 1.2s1.2-.5373 1.2-1.2v-3.6a1.2 1.2 0 0 0-2.4 0v3.6z"/>
    <path fill="#FFF" fill-rule="nonzero" stroke="#4550E5" stroke-linecap="round" stroke-linejoin="round" d="M64.6 25.55h-2.4v-6h2.4c.6627 0 1.2.5373 1.2 1.2v3.6c0 .6627-.5373 1.2-1.2 1.2z"/>
    <path fill="#D6DAFF" fill-rule="nonzero" stroke="#4550E5" stroke-linecap="round" stroke-linejoin="round" d="M63.4 24.35c0 .6627-.5373 1.2-1.2 1.2s-1.2-.5373-1.2-1.2v-3.6c0-.6627.5373-1.2 1.2-1.2s1.2.5373 1.2 1.2v3.6zM49 31.55c0 .9941-.8059 1.8-1.8 1.8-.9941 0-1.8-.8059-1.8-1.8 0-.9941.8059-1.8 1.8-1.8.9918.0055 1.7945.8082 1.8 1.8z"/>
    <path stroke="#4550E5" stroke-linecap="round" stroke-linejoin="round" d="M37 22.55v-5.4c0-7.9529 6.4471-14.4 14.4-14.4 7.9529 0 14.4 6.4471 14.4 14.4v5.4"/>
    <path fill="#D6DAFF" fill-rule="nonzero" stroke="#4550E5" stroke-linejoin="round" d="M40.13 65.25h2.23l-4.77-14.81a1 1 0 0 0-1-.69h-1.46l5 15.5z"/>
    <path fill="#D6DAFF" fill-rule="nonzero" d="M20.63 65.25h19.5l-5-15.5H17a1 1 0 0 0-.95 1.31l4.58 14.19z"/>
    <path fill="#D6DAFF" fill-rule="nonzero" stroke="#4550E5" stroke-linejoin="round" d="M20.63 65.25h20.5v2.5h-18.5c-1.1046 0-2-.8954-2-2v-.5zm20.5 0h9a.5.5 0 0 1 .5.5c0 1.1046-.8954 2-2 2h-7.5v-2.5z"/>
    <path fill="#FFF" fill-rule="nonzero" stroke="#4550E5" stroke-linejoin="round" d="M29 57a1.14 1.14 0 0 1 .5-1 1.13 1.13 0 0 0-.9-.48c-.38 0-.75.22-.94.22-.19 0-.49-.22-.81-.21a1.2 1.2 0 0 0-1 .61 2.58 2.58 0 0 0 .31 2.48c.21.3.46.63.78.62.32-.01.43-.2.8-.2.37 0 .49.2.81.19.32-.01.55-.3.76-.6a3.23 3.23 0 0 0 .34-.7A1.06 1.06 0 0 1 29 57z"/>
    <path stroke="#4550E5" stroke-linecap="round" stroke-linejoin="round" d="M28.13 54.25l.45-.45"/>
    <path stroke="#4550E5" stroke-linejoin="round" d="M20.63 65.25h19.5l-5-15.5H17a1 1 0 0 0-.95 1.31l4.58 14.19z"/>
  </g>
</svg>
