<svg width="99px" height="74px" viewBox="0 0 99 74" version="1.1" xmlns="http://www.w3.org/2000/svg" xmlns:xlink="http://www.w3.org/1999/xlink">
    <!-- Generator: Sketch 48.2 (47327) - http://www.bohemiancoding.com/sketch -->
    <desc>Created with Sketch.</desc>
    <defs></defs>
    <g id="Page-1" stroke="none" stroke-width="1" fill="none" fill-rule="evenodd">
        <g id="monitor-cash-credit-card">
            <path d="M88.89,40.45 C88.8770539,24.1150719 78.9328818,9.429229 63.770311,3.35251195 C48.6077402,-2.7242051 31.2736176,1.02929128 19.9830793,12.8341119 C8.69254107,24.6389325 5.71436742,42.1229544 12.46,57 L85.33,57 C87.6882539,51.8019602 88.9023104,46.1579618 88.89,40.45 Z" id="Shape" fill="#F0F2FF" fill-rule="nonzero"></path>
            <path d="M9.39,56.95 L87.39,56.95" id="Shape" stroke="#4550E5" stroke-linecap="round" stroke-linejoin="round"></path>
            <path d="M4.89,56.95 L7.39,56.95" id="Shape" stroke="#4550E5" stroke-linecap="round" stroke-linejoin="round"></path>
            <path d="M89.39,56.95 L91.89,56.95" id="Shape" stroke="#4550E5" stroke-linecap="round" stroke-linejoin="round"></path>
            <ellipse id="Oval" fill="#F0F2FF" fill-rule="nonzero" cx="49.11" cy="71.97" rx="15.75" ry="1.57"></ellipse>
            <path d="M68.63,58.11 L68.63,38 C68.63,36.6082424 67.5017576,35.48 66.11,35.48 L32.11,35.48 C31.4399235,35.4773409 30.7963796,35.7416659 30.3216229,36.214546 C29.8468662,36.6874262 29.5799947,37.3299182 29.58,38 L29.58,58.11 L68.63,58.11 Z" id="Shape" fill="#D6DAFF" fill-rule="nonzero"></path>
            <path d="M34.62,58.11 L57.3,35.43 L32.1,35.43 C31.4229005,35.4298667 30.7742332,35.7022185 30.3001776,36.18568 C29.826122,36.6691415 29.5665655,37.3230338 29.58,38 L29.58,58.11 L34.62,58.11 Z" id="Shape" fill="#FFFFFF" fill-rule="nonzero"></path>
            <path d="M68.63,58.11 L68.63,63.11 C68.63,64.5017576 67.5017576,65.63 66.11,65.63 L32.11,65.63 C30.7182424,65.63 29.59,64.5017576 29.59,63.11 L29.59,58.11 L68.63,58.11 Z" id="Shape" stroke="#4550E5" fill="#FFFFFF" fill-rule="nonzero" stroke-linecap="round" stroke-linejoin="round"></path>
            <path d="M50.37,61.89 C50.37,62.5858788 49.8058788,63.15 49.11,63.15 C48.4141212,63.15 47.85,62.5858788 47.85,61.89 C47.85,61.1941212 48.4141212,60.63 49.11,60.63 C49.4441728,60.63 49.7646587,60.7627496 50.0009545,60.9990455 C50.2372504,61.2353413 50.37,61.5558272 50.37,61.89 Z" id="Shape" stroke="#4550E5" fill="#D6DAFF" fill-rule="nonzero" stroke-linecap="round" stroke-linejoin="round"></path>
            <polygon id="Shape" stroke="#4550E5" fill="#FFFFFF" fill-rule="nonzero" stroke-linecap="round" stroke-linejoin="round" points="55.41 70.71 42.8 70.71 43.44 65.67 54.78 65.67"></polygon>
            <path d="M39.03,70.71 L59.18,70.71" id="Shape" stroke="#4550E5" stroke-linecap="round" stroke-linejoin="round"></path>
            <path d="M68.63,58.11 L68.63,38 C68.63,36.6082424 67.5017576,35.48 66.11,35.48 L32.11,35.48 C31.4399235,35.4773409 30.7963796,35.7416659 30.3216229,36.214546 C29.8468662,36.6874262 29.5799947,37.3299182 29.58,38 L29.58,58.11 L68.63,58.11 Z" id="Shape" stroke="#4550E5" stroke-linecap="round" stroke-linejoin="round"></path>
            <path d="M56.67,46.77 C56.67,50.9452727 53.2852727,54.33 49.11,54.33 C44.9347273,54.33 41.55,50.9452727 41.55,46.77 C41.55,42.5947273 44.9347273,39.21 49.11,39.21 C53.2852727,39.21 56.67,42.5947273 56.67,46.77 Z" id="Shape" fill="#FFFFFF" fill-rule="nonzero"></path>
            <path d="M56.67,46.77 C56.67,50.9452727 53.2852727,54.33 49.11,54.33 C44.9347273,54.33 41.55,50.9452727 41.55,46.77 C41.55,42.5947273 44.9347273,39.21 49.11,39.21 C53.2852727,39.21 56.67,42.5947273 56.67,46.77 Z" id="Shape" stroke="#4550E5" stroke-linecap="round" stroke-linejoin="round"></path>
            <path d="M47.85,51.18 C47.3478011,51.1830039 46.8652764,50.9849527 46.51,50.63 L44,48.11 C43.3197652,47.363677 43.3463709,46.2144587 44.0604148,45.5004148 C44.7744587,44.7863709 45.923677,44.7597652 46.67,45.44 L47.86,46.62 L50.93,43.55 C51.676323,42.8697652 52.8255413,42.8963709 53.5395852,43.6104148 C54.2536291,44.3244587 54.2802348,45.473677 53.6,46.22 L49.19,50.63 C48.8353582,50.985905 48.3524163,51.1841274 47.85,51.18 Z" id="Shape" fill="#D6DAFF" fill-rule="nonzero"></path>
            <path d="M47.85,51.18 C47.3478011,51.1830039 46.8652764,50.9849527 46.51,50.63 L44,48.11 C43.3197652,47.363677 43.3463709,46.2144587 44.0604148,45.5004148 C44.7744587,44.7863709 45.923677,44.7597652 46.67,45.44 L47.86,46.62 L50.93,43.55 C51.676323,42.8697652 52.8255413,42.8963709 53.5395852,43.6104148 C54.2536291,44.3244587 54.2802348,45.473677 53.6,46.22 L49.19,50.63 C48.8353582,50.985905 48.3524163,51.1841274 47.85,51.18 Z" id="Shape" stroke="#4550E5" stroke-linecap="round" stroke-linejoin="round"></path>
            <rect id="Rectangle-path" fill="#FFFFFF" fill-rule="nonzero" transform="translate(14.439418, 26.606017) rotate(-15.830000) translate(-14.439418, -26.606017) " x="1.83941783" y="19.0460171" width="25.2" height="15.12" rx="1.05"></rect>
            <path d="M24.82,26.29 L23.45,21.44 C22.1082206,21.8187462 20.7129158,21.0405954 20.33,19.7 L5.79,23.82 C6.16874616,25.1617794 5.39059543,26.5570842 4.05,26.94 L5.42,31.79 C6.06316315,31.6049445 6.75352267,31.6833315 7.33882346,32.0078733 C7.92412426,32.3324151 8.35628681,32.8764521 8.54,33.52 L23.08,29.4 C22.7017497,28.0607171 23.4807499,26.6683663 24.82,26.29 Z" id="Shape" fill="#FFFFFF" fill-rule="nonzero"></path>
            <path d="M16.86,25.92 C17.1410324,26.9004076 16.8034077,27.953544 16.0047285,28.5878071 C15.2060492,29.2220703 14.1038108,29.3123869 13.2125359,28.8165973 C12.321261,28.3208077 11.8167043,27.3366791 11.934392,26.3236006 C12.0520796,25.3105222 12.7688042,24.4682678 13.75,24.19 C15.0855981,23.8168937 16.4726428,24.5884651 16.86,25.92 Z" id="Shape" fill="#D6DAFF" fill-rule="nonzero"></path>
            <path d="M16.86,25.92 C17.1410324,26.9004076 16.8034077,27.953544 16.0047285,28.5878071 C15.2060492,29.2220703 14.1038108,29.3123869 13.2125359,28.8165973 C12.321261,28.3208077 11.8167043,27.3366791 11.934392,26.3236006 C12.0520796,25.3105222 12.7688042,24.4682678 13.75,24.19 C15.0855981,23.8168937 16.4726428,24.5884651 16.86,25.92 Z" id="Shape" stroke="#4550E5" stroke-linecap="round" stroke-linejoin="round"></path>
            <path d="M24.82,26.29 L23.45,21.44 C22.1082206,21.8187462 20.7129158,21.0405954 20.33,19.7 L5.79,23.82 C6.16874616,25.1617794 5.39059543,26.5570842 4.05,26.94 L5.42,31.79 C6.06316315,31.6049445 6.75352267,31.6833315 7.33882346,32.0078733 C7.92412426,32.3324151 8.35628681,32.8764521 8.54,33.52 L23.08,29.4 C22.7017497,28.0607171 23.4807499,26.6683663 24.82,26.29 Z" id="Shape" stroke="#4550E5" stroke-linecap="round" stroke-linejoin="round"></path>
            <rect id="Rectangle-path" stroke="#4550E5" stroke-linecap="round" stroke-linejoin="round" transform="translate(14.439418, 26.606017) rotate(-15.830000) translate(-14.439418, -26.606017) " x="1.83941783" y="19.0460171" width="25.2" height="15.12" rx="1.05"></rect>
            <path d="M91.82,36.74 L74.05,31.65 C73.5147656,31.4987718 73.0618854,31.1404405 72.7916169,30.6543327 C72.5213485,30.1682249 72.4559862,29.5944395 72.61,29.06 L75.61,18.56 C75.7612282,18.0247656 76.1195595,17.5718854 76.6056673,17.3016169 C77.0917751,17.0313485 77.6655605,16.9659862 78.2,17.12 L96,22.21 C97.1111634,22.529692 97.7548639,23.6874588 97.44,24.8 L94.44,35.3 C94.2892141,35.8420924 93.9262194,36.3004869 93.4331172,36.5715049 C92.940015,36.8425229 92.3584647,36.9032676 91.82,36.74 Z" id="Shape" fill="#FFFFFF" fill-rule="nonzero"></path>
            <rect id="Rectangle-path" fill="#D6DAFF" fill-rule="nonzero" transform="translate(86.062360, 23.295064) rotate(15.980000) translate(-86.062360, -23.295064) " x="74.7223595" y="22.0350644" width="22.68" height="2.52"></rect>
            <path d="M75.15,29.35 L81.21,31.08" id="Shape" stroke="#4550E5" stroke-linecap="round" stroke-linejoin="round"></path>
            <rect id="Rectangle-path" fill="#FFFFFF" fill-rule="nonzero" transform="translate(84.673611, 28.135367) rotate(15.980000) translate(-84.673611, -28.135367) " x="75.8536114" y="26.8753669" width="17.64" height="2.52"></rect>
            <path d="M91.82,36.74 L74.05,31.65 C73.5147656,31.4987718 73.0618854,31.1404405 72.7916169,30.6543327 C72.5213485,30.1682249 72.4559862,29.5944395 72.61,29.06 L75.61,18.56 C75.7612282,18.0247656 76.1195595,17.5718854 76.6056673,17.3016169 C77.0917751,17.0313485 77.6655605,16.9659862 78.2,17.12 L96,22.21 C97.1111634,22.529692 97.7548639,23.6874588 97.44,24.8 L94.44,35.3 C94.2892141,35.8420924 93.9262194,36.3004869 93.4331172,36.5715049 C92.940015,36.8425229 92.3584647,36.9032676 91.82,36.74 Z" id="Shape" stroke="#4550E5" stroke-linecap="round" stroke-linejoin="round"></path>
            <rect id="Rectangle-path" stroke="#4550E5" stroke-linecap="round" stroke-linejoin="round" transform="translate(86.062360, 23.295064) rotate(15.980000) translate(-86.062360, -23.295064) " x="74.7223595" y="22.0350644" width="22.68" height="2.52"></rect>
            <rect id="Rectangle-path" stroke="#4550E5" stroke-linecap="round" stroke-linejoin="round" transform="translate(84.673611, 28.135367) rotate(15.980000) translate(-84.673611, -28.135367) " x="75.8536114" y="26.8753669" width="17.64" height="2.52"></rect>
            <circle id="Oval" fill="#D6DAFF" fill-rule="nonzero" cx="49.11" cy="16.9" r="8.4"></circle>
            <path d="M49.11,8.5 C45.7123288,8.49975484 42.6491054,10.546352 41.3488398,13.6853771 C40.0485741,16.8244023 40.7673611,20.4376063 43.17,22.84 L55.05,11 C53.4805121,9.41098397 51.3434125,8.51153126 49.11,8.5 Z" id="Shape" fill="#FFFFFF" fill-rule="nonzero"></path>
            <circle id="Oval" stroke="#4550E5" cx="49.11" cy="16.9" r="8.4"></circle>
            <path d="M49.11,21.1 L49.11,22.15" id="Shape" stroke="#4550E5" stroke-linecap="round" stroke-linejoin="round"></path>
            <path d="M49.11,11.65 L49.11,12.7" id="Shape" stroke="#4550E5" stroke-linecap="round" stroke-linejoin="round"></path>
            <path d="M47,19 C47,20.159798 47.940202,21.1 49.1,21.1 C50.259798,21.1 51.2,20.159798 51.2,19 C51.2,17.840202 50.259798,16.9 49.1,16.9 C47.940202,16.9 47,15.959798 47,14.8 C47,13.640202 47.940202,12.7 49.1,12.7 C50.259798,12.7 51.2,13.640202 51.2,14.8" id="Shape" stroke="#4550E5" stroke-linecap="round" stroke-linejoin="round"></path>
        </g>
    </g>
</svg>